SplineFontDB: 3.2
FontName: SeriousShanns
FullName: Serious Shanns
FamilyName: Serious Shanns
Weight: Book
Copyright: https://github.com/kaBeech/serious-shanns/blob/main/LICENSE
Version: 6.0.0
ItalicAngle: 0
UnderlinePosition: 0
UnderlineWidth: 0
Ascent: 750
Descent: 250
InvalidEm: 0
sfntRevision: 0x00003333
LayerCount: 2
Layer: 0 0 "Back" 1
Layer: 1 0 "Fore" 0
XUID: [1021 45 630387186 12505762]
StyleMap: 0x0040
FSType: 0
OS2Version: 3
OS2_WeightWidthSlopeOnly: 0
OS2_UseTypoMetrics: 0
CreationTime: 1532631502
ModificationTime: 315532800
PfmFamily: 49
TTFWeight: 400
TTFWidth: 5
LineGap: 200
VLineGap: 0
Panose: 0 0 0 0 0 0 0 0 0 0
OS2TypoAscent: 750
OS2TypoAOffset: 0
OS2TypoDescent: -250
OS2TypoDOffset: 0
OS2TypoLinegap: 200
OS2WinAscent: 1000
OS2WinAOffset: 0
OS2WinDescent: 500
OS2WinDOffset: 0
HheadAscent: 750
HheadAOffset: 0
HheadDescent: -250
HheadDOffset: 0
OS2SubXSize: 317
OS2SubYSize: 293
OS2SubXOff: 0
OS2SubYOff: 37
OS2SupXSize: 317
OS2SupYSize: 293
OS2SupXOff: 0
OS2SupYOff: 171
OS2StrikeYSize: 0
OS2StrikeYPos: 132
OS2CapHeight: 650
OS2XHeight: 450
OS2Vendor: 'NONE'
OS2CodePages: 00000001.00000000
OS2UnicodeRanges: 00000001.00000000.00000000.00000000
MarkAttachClasses: 1
DEI: 91125
LangName: 1033 "" "" "Normal" "FontForge 2.0 : Serious Shanns : 11-6-2024" "" "Version 0.2.0"
Encoding: UnicodeBmp
Compacted: 1
UnicodeInterp: none
NameList: AGL For New Fonts
DisplaySize: -48
AntiAlias: 1
FitToEm: 0
WinInfo: 0 16 11
BeginPrivate: 8
BlueValues 32 [-40 -6 502 523 708 718 765 769]
OtherBlues 11 [-297 -287]
BlueScale 9 0.0291667
BlueShift 1 2
StdHW 4 [85]
StdVW 4 [96]
StemSnapH 7 [65 85]
StemSnapV 4 [96]
EndPrivate
BeginChars: 65537 97

StartChar: .notdef
Encoding: 65536 -1 0
Width: 640
GlyphClass: 1
Flags: W
HStem: -268 54<159 480> 695 54<159 480>
VStem: 106 53<-214 695> 480 54<-214 695>
LayerCount: 2
Fore
SplineSet
106 -268 m 1
 106 749 l 1
 534 749 l 1
 534 -268 l 1
 106 -268 l 1
159 -214 m 1
 480 -214 l 1
 480 695 l 1
 159 695 l 1
 159 -214 l 1
EndSplineSet
Validated: 1
EndChar

StartChar: exclam
Encoding: 33 33 1
Width: 640
GlyphClass: 2
Flags: HMW
HStem: -24.5727 153.613
VStem: 237.999 164.001 278.999 92.3857
LayerCount: 2
Fore
SplineSet
379.002929688 738 m 0xa0
 379.002929688 732 377.500976562 688.16796875 374.500976562 606.500976562 c 0
 372.423828125 549.961914062 371.385742188 500.692382812 371.385742188 458.692382812 c 0
 371.385742188 440.026367188 371.590820312 422.795898438 372.000976562 407.000976562 c 0
 372.666992188 382.000976562 372.999023438 362.04296875 372.999023438 347.125976562 c 0
 372.999023438 332.208984375 372.666992188 322.333984375 371.999023438 317.5 c 0
 371.111328125 311.056640625 370.666992188 302.022460938 370.666992188 290.397460938 c 0
 370.666992188 284.580078125 370.778320312 278.114257812 371.000976562 271 c 0
 369.666992188 256.333007812 364.000976562 244.833007812 354.000976562 236.5 c 0
 344.741210938 228.784179688 333.768554688 224.926757812 321.081054688 224.926757812 c 0
 320.065429688 224.926757812 319.038085938 224.951171875 318.001953125 225.000976562 c 0
 304.668945312 225.000976562 293.668945312 229.333984375 285.001953125 238.000976562 c 0
 277.490234375 245.512695312 273.733398438 256.029296875 273.733398438 269.55078125 c 0
 273.733398438 271.629882812 273.823242188 273.780273438 274.000976562 276.001953125 c 0
 274.666992188 286.001953125 275.666992188 295.668945312 277.000976562 305.001953125 c 0
 278.333984375 314.334960938 279.166992188 322.16796875 279.499023438 328.500976562 c 0
 279.833007812 334.833984375 280.333007812 349.833984375 280.999023438 373.500976562 c 0
 281.166992188 379.41796875 281.249023438 385.762695312 281.249023438 392.534179688 c 0
 281.249023438 412.846679688 280.499023438 437.001953125 278.999023438 465.000976562 c 0
 278.333007812 491.000976562 277.833007812 518.500976562 277.499023438 547.500976562 c 0
 277.388671875 557.158203125 277.333007812 566.279296875 277.333007812 574.864257812 c 0
 277.333007812 592.059570312 277.555664062 607.10546875 278.000976562 620 c 0
 278.666992188 639.333007812 279.334960938 661.333007812 280.001953125 686 c 0
 280.668945312 710.666992188 281.001953125 727 281.001953125 735 c 0
 281.668945312 753 286.834960938 766.666992188 296.502929688 776 c 0
 306.169921875 785.333007812 318.002929688 790 332.002929688 790 c 0
 333.002929688 790.047851562 333.989257812 790.071289062 334.962890625 790.071289062 c 0
 347.608398438 790.071289062 357.955078125 786.047851562 366.002929688 778 c 0
 374.669921875 769.333007812 379.002929688 756 379.002929688 738 c 0xa0
322.000976562 -23.9990234375 m 0
 318.475585938 -24.3798828125 315.041992188 -24.5703125 311.700195312 -24.5703125 c 0
 291.661132812 -24.5703125 274.927734375 -17.7158203125 261.499023438 -4.0029296875 c 0
 245.833007812 11.9970703125 237.999023438 31.330078125 237.999023438 53.9970703125 c 0
 237.999023438 73.9970703125 246.833007812 91.330078125 264.499023438 105.997070312 c 0
 282.166992188 120.6640625 301.333984375 128.331054688 322.000976562 128.998046875 c 0
 323.038085938 129.02734375 324.067382812 129.041992188 325.088867188 129.041992188 c 0
 347.030273438 129.041992188 365.166992188 122.194335938 379.500976562 108.499023438 c 0
 394.500976562 94.166015625 402.000976562 76.3330078125 402.000976562 55 c 0xc0
 402.000976562 33.6669921875 394.666992188 15.833984375 380.000976562 1.5009765625 c 0
 365.333984375 -12.83203125 346.000976562 -21.33203125 322.000976562 -23.9990234375 c 0
EndSplineSet
Validated: 1
EndChar

StartChar: quotedbl
Encoding: 34 34 2
Width: 640
GlyphClass: 2
Flags: HMW
VStem: 190.485 101.426 348.437 103.475
LayerCount: 2
Fore
SplineSet
292.912109375 738 m 0
 293.133789062 728.908203125 293.244140625 717.880859375 293.244140625 704.916015625 c 0
 293.244140625 678.904296875 292.797851562 645.09765625 291.908203125 603.498046875 c 0
 290.575195312 541.165039062 288.2421875 498.33203125 284.909179688 474.999023438 c 0
 282.909179688 461.666015625 277.2421875 451.666015625 267.909179688 444.999023438 c 0
 259.424804688 438.938476562 250.114257812 435.908203125 239.977539062 435.908203125 c 0
 238.963867188 435.908203125 237.94140625 435.938476562 236.911132812 435.999023438 c 0
 223.578125 436.666015625 211.745117188 440.833007812 201.412109375 448.5 c 0
 192.259765625 455.291015625 187.68359375 464.565429688 187.68359375 476.32421875 c 0
 187.68359375 480.546875 190.483398438 511.731445312 190.483398438 589.744140625 c 0
 190.483398438 596.965820312 190.459960938 604.383789062 190.412109375 611.999023438 c 0
 190.079101562 665.33203125 188.912109375 709.33203125 186.912109375 743.999023438 c 0
 186.245117188 751.999023438 187.745117188 758.83203125 191.412109375 764.499023438 c 0
 195.079101562 770.166015625 199.912109375 774.333007812 205.912109375 777 c 0
 211.912109375 779.666992188 218.079101562 781.5 224.412109375 782.5 c 0
 230.745117188 783.5 236.912109375 783.666992188 242.912109375 783 c 0
 248.912109375 783 254.579101562 782.333007812 259.912109375 781 c 0
 265.245117188 779.666992188 270.412109375 777.5 275.412109375 774.5 c 0
 280.412109375 771.5 284.579101562 766.833007812 287.912109375 760.5 c 0
 291.245117188 754.166992188 292.912109375 746.666992188 292.912109375 738 c 0
452.908203125 737.997070312 m 0
 453.130859375 728.875976562 453.241210938 717.805664062 453.241210938 704.786132812 c 0
 453.241210938 678.791015625 452.797851562 645.026367188 451.91015625 603.495117188 c 0
 450.577148438 541.162109375 448.577148438 498.329101562 445.91015625 474.99609375 c 0
 443.91015625 461.663085938 438.077148438 451.663085938 428.41015625 444.99609375 c 0
 419.622070312 438.935546875 410.420898438 435.905273438 400.806640625 435.905273438 c 0
 399.844726562 435.905273438 398.87890625 435.935546875 397.909179688 435.99609375 c 0
 384.576171875 436.663085938 372.576171875 440.830078125 361.909179688 448.497070312 c 0
 352.926757812 454.953125 348.435546875 463.654296875 348.435546875 474.6015625 c 0
 348.435546875 476.654296875 348.59375 478.786132812 348.909179688 480.997070312 c 0
 350.409179688 506.49609375 351.159179688 537.432617188 351.159179688 573.805664062 c 0
 351.159179688 585.931640625 351.076171875 598.662109375 350.909179688 611.99609375 c 0
 350.2421875 665.329101562 348.909179688 709.329101562 346.909179688 743.99609375 c 0
 346.909179688 751.99609375 348.7421875 758.829101562 352.409179688 764.49609375 c 0
 356.076171875 770.163085938 360.909179688 774.330078125 366.909179688 776.997070312 c 0
 372.909179688 779.6640625 378.909179688 781.497070312 384.909179688 782.497070312 c 0
 390.909179688 783.497070312 396.909179688 783.6640625 402.909179688 782.997070312 c 0
 408.909179688 782.997070312 414.576171875 782.330078125 419.909179688 780.997070312 c 0
 425.2421875 779.6640625 430.575195312 777.497070312 435.908203125 774.497070312 c 0
 441.241210938 771.497070312 445.408203125 766.830078125 448.408203125 760.497070312 c 0
 451.408203125 754.1640625 452.908203125 746.6640625 452.908203125 737.997070312 c 0
EndSplineSet
Validated: 1
EndChar

StartChar: numbersign
Encoding: 35 35 3
Width: 640
GlyphClass: 2
Flags: HMW
HStem: 192 82 445 84 697.667 20G
LayerCount: 2
Fore
SplineSet
206.041015625 42 m 0
 201.374023438 28 191.706054688 16.4990234375 177.0390625 7.4990234375 c 0
 166.884765625 1.2685546875 157.209960938 -1.8466796875 148.014648438 -1.8466796875 c 0
 143.927734375 -1.8466796875 139.935546875 -1.2314453125 136.038085938 -0.0009765625 c 0
 123.37109375 2.666015625 114.038085938 11.166015625 108.038085938 25.4990234375 c 0
 104.861328125 33.0869140625 103.2734375 41.095703125 103.2734375 49.5244140625 c 0
 103.2734375 57.0166015625 104.528320312 64.8408203125 107.038085938 72.998046875 c 0
 112.37109375 90.998046875 121.704101562 129.665039062 135.037109375 188.998046875 c 1
 105.037109375 188.998046875 l 2
 88.3701171875 188.998046875 75.703125 192.331054688 67.0361328125 198.998046875 c 0
 54.291015625 208.801757812 53.958984375 221.170898438 53.958984375 228.732421875 c 0
 53.958984375 239.524414062 57.6513671875 248.61328125 65.0361328125 255.998046875 c 0
 73.0361328125 263.998046875 85.703125 268.665039062 103.036132812 269.998046875 c 0
 108.369140625 269.998046875 116.536132812 270.165039062 127.536132812 270.498046875 c 0
 138.536132812 270.831054688 146.703125 270.998046875 152.036132812 270.998046875 c 1
 186.036132812 443.998046875 l 1
 180.703125 443.998046875 173.370117188 443.831054688 164.037109375 443.498046875 c 0
 154.704101562 443.165039062 148.37109375 442.998046875 145.038085938 442.998046875 c 0
 143.704101562 442.944335938 142.39453125 442.91796875 141.109375 442.91796875 c 0
 126.340820312 442.91796875 114.817382812 446.444335938 106.538085938 453.498046875 c 0
 93.28125 464.791015625 92.9658203125 477.244140625 92.9658203125 484.541992188 c 0
 92.9658203125 495.44140625 96.9892578125 504.759765625 105.037109375 512.497070312 c 0
 113.704101562 520.830078125 126.704101562 525.330078125 144.037109375 525.997070312 c 0
 156.704101562 526.6640625 176.037109375 526.997070312 202.037109375 526.997070312 c 1
 220.704101562 627.6640625 230.37109375 679.6640625 231.038085938 682.997070312 c 0
 236.37109375 699.6640625 244.704101562 711.331054688 256.037109375 717.998046875 c 0
 263.592773438 722.443359375 271.296875 724.666015625 279.149414062 724.666015625 c 0
 283.075195312 724.666015625 287.038085938 724.110351562 291.038085938 722.999023438 c 0
 305.038085938 720.33203125 315.87109375 713.665039062 323.538085938 702.998046875 c 0
 328.881835938 695.563476562 331.553710938 686.509765625 331.553710938 675.836914062 c 0
 331.553710938 671.197265625 331.048828125 666.250976562 330.0390625 660.999023438 c 2
 303.0390625 528.999023438 l 1
 416.0390625 528.999023438 l 1
 443.0390625 674.999023438 l 2
 448.372070312 692.33203125 456.5390625 704.33203125 467.5390625 710.999023438 c 0
 474.873046875 715.444335938 482.725585938 717.666992188 491.096679688 717.666992188 c 0
 495.28125 717.666992188 499.595703125 717.111328125 504.040039062 716 c 0
 518.70703125 713.333007812 529.70703125 706.666015625 537.040039062 695.999023438 c 0
 541.78515625 689.096679688 544.158203125 680.798828125 544.158203125 671.10546875 c 0
 544.158203125 665.818359375 543.452148438 660.116210938 542.040039062 653.999023438 c 0
 534.70703125 625.999023438 526.374023438 584.999023438 517.041015625 530.999023438 c 1
 528.041015625 530.999023438 l 2
 544.041015625 530.999023438 557.541015625 526.499023438 568.541015625 517.499023438 c 0
 579.541015625 508.499023438 585.374023438 498.999023438 586.041015625 488.999023438 c 0
 586.041015625 476.999023438 582.041015625 466.83203125 574.041015625 458.499023438 c 0
 566.041015625 450.166015625 553.708007812 445.666015625 537.041015625 444.999023438 c 2
 501.041015625 444.999023438 l 1
 472.041015625 273.999023438 l 1
 513.041015625 273.999023438 l 2
 528.374023438 273.999023438 539.041015625 270.499023438 545.041015625 263.499023438 c 0
 551.041015625 256.499023438 554.374023438 247.33203125 555.041015625 235.999023438 c 0
 555.041015625 206.666015625 541.041015625 191.999023438 513.041015625 191.999023438 c 2
 457.041015625 191.999023438 l 1
 443.708007812 115.999023438 434.041015625 64.666015625 428.041015625 37.9990234375 c 0
 422.708007812 23.9990234375 413.208007812 13.166015625 399.541015625 5.4990234375 c 0
 390.559570312 0.4609375 381.650390625 -2.0576171875 372.813476562 -2.0576171875 c 0
 368.203125 -2.0576171875 363.612304688 -1.3720703125 359.041015625 -0.0009765625 c 0
 346.374023438 2.666015625 337.041015625 10.4990234375 331.041015625 23.4990234375 c 0
 327.864257812 30.380859375 326.276367188 37.77734375 326.276367188 45.6875 c 0
 326.276367188 52.71875 327.53125 60.15625 330.041015625 68 c 0
 336.708007812 94.6669921875 345.375 135.666992188 356.041992188 191 c 1
 342.041992188 191 321.708984375 190.833007812 295.041992188 190.5 c 0
 268.375 190.166992188 248.708007812 190 236.041015625 190 c 1
 222.041015625 118 212.041015625 68.6669921875 206.041015625 42 c 0
287.040039062 444.999023438 m 1
 252.041015625 273.998046875 l 1
 279.374023438 274.665039062 318.70703125 274.998046875 370.040039062 274.998046875 c 1
 380.70703125 329.665039062 391.040039062 386.33203125 401.040039062 444.999023438 c 1
 287.040039062 444.999023438 l 1
EndSplineSet
Validated: 1
EndChar

StartChar: dollar
Encoding: 36 36 4
Width: 640
GlyphClass: 2
Flags: HMW
HStem: -28.9932 84.9932 642.998 79.002
VStem: 93.499 92.001 281.499 87.001 471.501 92.999
LayerCount: 2
Fore
SplineSet
361.5 -99 m 0
 360.16796875 -113.666992188 354.5 -124.993164062 344.5 -132.993164062 c 0
 334.5 -140.993164062 322.833007812 -144.993164062 309.5 -144.993164062 c 0
 296.833007812 -144.993164062 287.333007812 -140.493164062 281 -131.493164062 c 0
 275.76953125 -124.05859375 273.15234375 -114.0078125 273.15234375 -101.340820312 c 0
 273.15234375 -98.6748046875 273.26953125 -95.892578125 273.5 -92.994140625 c 0
 274.388671875 -82.330078125 274.833007812 -69.296875 274.833007812 -53.89453125 c 0
 274.833007812 -46.1875 274.72265625 -37.8876953125 274.5 -28.994140625 c 1
 271.5 -28.994140625 l 2
 247.5 -28.994140625 225 -25.994140625 204 -19.994140625 c 0
 183 -13.994140625 165 -5.994140625 150 4.005859375 c 0
 135 14.005859375 122 24.6728515625 111 36.005859375 c 0
 100 47.3388671875 91.166015625 59.671875 84.5 73.0048828125 c 0
 78.5 86.5048828125 75.5 98.1298828125 75.5 107.879882812 c 0
 75.5 111.129882812 75.83203125 114.171875 76.5 117.004882812 c 0
 79.166015625 128.337890625 86.166015625 136.670898438 97.5 142.00390625 c 0
 105.5 145.336914062 111.83203125 147.669921875 116.5 149.002929688 c 0
 121.166015625 150.3359375 126.333007812 150.668945312 132 150.001953125 c 0
 137.66796875 149.334960938 143.16796875 146.66796875 148.5 142.000976562 c 0
 153.833007812 137.333984375 159.5 130.666992188 165.5 122 c 0
 178.833007812 101.333007812 194.166015625 85.166015625 211.5 73.4990234375 c 0
 228.83203125 61.83203125 249.83203125 55.9990234375 274.5 55.9990234375 c 2
 278.5 55.9990234375 l 1
 279.83203125 167.33203125 280.5 266.665039062 280.5 353.998046875 c 1
 277.166015625 353.998046875 271.333007812 354.665039062 263 355.998046875 c 0
 254.66796875 357.331054688 248.5 357.998046875 244.5 357.998046875 c 0
 220.5 360.665039062 198.5 366.998046875 178.5 376.998046875 c 0
 158.5 386.998046875 142.66796875 399.165039062 131 413.498046875 c 0
 119.333984375 427.831054688 110.166015625 442.831054688 103.5 458.498046875 c 0
 96.83203125 474.165039062 93.5 489.998046875 93.5 505.998046875 c 0
 93.5 529.998046875 97.166015625 552.998046875 104.5 574.998046875 c 0
 111.83203125 596.998046875 123 617.498046875 138 636.498046875 c 0
 153 655.498046875 172.5 671.831054688 196.5 685.498046875 c 0
 220.5 699.165039062 248.83203125 708.665039062 281.5 713.998046875 c 1
 282.166015625 729.998046875 282.5 749.331054688 282.5 771.998046875 c 0
 283.166015625 808.665039062 296.833007812 826.998046875 323.5 826.998046875 c 0
 324.055664062 827.010742188 324.606445312 827.016601562 325.15234375 827.016601562 c 0
 354.05078125 827.016601562 368.5 809.677734375 368.5 774.999023438 c 2
 368.5 721.999023438 l 1
 383.16796875 721.33203125 403.66796875 717.999023438 430 711.999023438 c 0
 456.333007812 705.999023438 475.833007812 700.33203125 488.5 694.999023438 c 0
 501.16796875 690.33203125 510.16796875 682.999023438 515.5 672.999023438 c 0
 519.766601562 664.999023438 521.899414062 656.572265625 521.899414062 647.71875 c 0
 521.899414062 645.505859375 521.766601562 643.266601562 521.5 641 c 0
 520.833007812 633 518.333007812 626.833007812 514 622.5 c 0
 509.66796875 618.166992188 504.333984375 615.5 498.000976562 614.5 c 0
 491.66796875 613.5 485.66796875 613.333007812 480.000976562 614 c 0
 474.333984375 614.666992188 468.16796875 615.666992188 461.5 617 c 0
 455.5 618.333007812 448 621.166015625 439 625.499023438 c 0
 430 629.83203125 419.833007812 633.665039062 408.5 636.998046875 c 0
 397.16796875 640.331054688 383.5 642.331054688 367.5 642.998046875 c 1
 366.833007812 589.665039062 365.5 518.998046875 363.5 430.998046875 c 1
 394.16796875 426.998046875 421.5 419.831054688 445.5 409.498046875 c 0
 469.5 399.165039062 488.66796875 387.33203125 503 373.999023438 c 0
 517.333007812 360.666015625 529.5 345.333007812 539.5 328 c 0
 549.5 310.666992188 556.16796875 293.666992188 559.5 277 c 0
 562.833007812 260.333007812 564.5 243 564.5 225 c 0
 564.5 194.333007812 559.333007812 165.333007812 549 138 c 0
 538.66796875 110.666992188 524.16796875 87 505.5 67 c 0
 486.833007812 47 465.166015625 29.6669921875 440.5 15 c 0
 415.83203125 0.3330078125 388.83203125 -10.6669921875 359.5 -18 c 1
 360.166015625 -58 360.833007812 -85 361.5 -99 c 0
185.5 531.006835938 m 0
 185.5 509.673828125 194.000976562 491.006835938 211.000976562 475.006835938 c 0
 228.000976562 459.006835938 251.16796875 447.673828125 280.500976562 441.006835938 c 1
 281.16796875 487.006835938 281.500976562 551.006835938 281.500976562 633.006835938 c 1
 252.833984375 624.33984375 229.66796875 611.33984375 212 594.006835938 c 0
 194.333007812 576.673828125 185.5 555.673828125 185.5 531.006835938 c 0
471.500976562 208.006835938 m 0
 471.500976562 220.673828125 469.83203125 232.340820312 466.5 243.0078125 c 0
 463.166015625 253.674804688 457.833007812 264.841796875 450.5 276.508789062 c 0
 443.16796875 288.17578125 432.16796875 299.008789062 417.5 309.008789062 c 0
 402.833007812 319.008789062 384.5 327.67578125 362.5 335.008789062 c 1
 362.5 305.67578125 362.333007812 261.508789062 362 202.508789062 c 0
 361.66796875 143.508789062 360.833984375 100.67578125 359.500976562 74.0087890625 c 1
 391.500976562 87.341796875 418.16796875 105.674804688 439.500976562 129.0078125 c 0
 460.833984375 152.340820312 471.500976562 178.673828125 471.500976562 208.006835938 c 0
EndSplineSet
Validated: 1
EndChar

StartChar: percent
Encoding: 37 37 5
Width: 640
GlyphClass: 2
Flags: HMW
HStem: -28.0313 75.9731 170.999 74 432 75<188.126 196.459 188.126 199.125> 632 73
VStem: 61.1255 71.919 241.188 70.301 329.056 71.992 448.124 88.8789 507.143 71.7321
LayerCount: 2
Fore
SplineSet
177.125 432 m 0xfe
 153.791992188 432 132.958984375 438.5 114.625 451.5 c 0
 96.29296875 464.5 82.79296875 480.833007812 74.125 500.5 c 0
 65.458984375 520.166992188 61.125 541.333984375 61.125 564.000976562 c 0
 61.125 605.333984375 72.625 639.166992188 95.625 665.5 c 0
 118.625 691.833007812 151.125 705 193.125 705 c 0
 209.79296875 705 225.29296875 702.166992188 239.625 696.5 c 0
 253.958984375 690.833007812 266.791992188 682.333007812 278.125 671 c 0
 289.45703125 659.666992188 298.125 644.166992188 304.125 624.5 c 0
 309.034179688 608.408203125 311.48828125 590.197265625 311.48828125 569.866210938 c 0
 311.48828125 565.348632812 311.3671875 560.7265625 311.125 556 c 0
 309.125 515.333007812 297.291992188 484.5 275.625 463.5 c 0
 253.95703125 442.5 221.125 432 177.125 432 c 0xfe
86.125 19 m 0
 100.125 47.6669921875 133.29296875 107.833984375 185.625 199.500976562 c 0
 237.958984375 291.16796875 290.291992188 383.66796875 342.625 477.000976562 c 0
 394.95703125 570.333984375 430.125 637.000976562 448.125 677.000976562 c 0
 456.125 689.000976562 466.625 696.500976562 479.625 699.500976562 c 0
 483.659179688 700.431640625 487.61328125 700.897460938 491.487304688 700.897460938 c 0
 500.095703125 700.897460938 508.30859375 698.598632812 516.124023438 694.000976562 c 0
 522.794921875 691.036132812 537.002929688 683.4609375 537.002929688 665.655273438 c 0xff
 537.002929688 656.331054688 533.04296875 645.446289062 525.125 633.001953125 c 0
 500.45703125 592.334960938 441.625 488.66796875 348.625 322.000976562 c 0
 255.625 155.333984375 194.125 42.6669921875 164.125 -16 c 0
 151.32421875 -39.630859375 136.889648438 -51.4462890625 120.818359375 -51.4462890625 c 0
 115.125 -51.4462890625 109.228515625 -49.9638671875 103.125 -47 c 0
 86.193359375 -38.95703125 77.728515625 -27.15234375 77.728515625 -11.5849609375 c 0
 77.728515625 -2.6337890625 80.52734375 7.5615234375 86.125 19 c 0
188.125 507 m 0
 204.79296875 507 217.291992188 512.333007812 225.625 523 c 0
 238.095703125 538.962890625 241.1875 561.026367188 241.1875 570.180664062 c 0
 241.1875 590.727539062 236.5 606.000976562 227.125 616.000976562 c 0
 217.125 626.66796875 203.125 632.000976562 185.125 632.000976562 c 0
 169.125 632.000976562 156.79296875 626.16796875 148.125 614.500976562 c 0
 145.20703125 610.572265625 133.045898438 592.4140625 133.045898438 562.6015625 c 0
 133.045898438 546.06640625 136.572265625 533.19921875 143.625 524 c 0
 151.29296875 514 166.125 508.333007812 188.125 507 c 0
444.125 -28 m 0
 420.791992188 -28 400.125 -21.5 382.125 -8.5 c 0
 364.125 4.5 350.625 20.8330078125 341.625 40.5 c 0
 333.24609375 58.810546875 329.0546875 78.4208984375 329.0546875 99.3310546875 c 0
 329.0546875 122.313476562 330.23046875 167.287109375 363.125 205.5 c 0
 385.791992188 231.833007812 418.125 245 460.125 245 c 0
 476.791992188 245 492.291992188 242.333007812 506.625 237 c 0
 520.95703125 231.666992188 533.95703125 223.166992188 545.625 211.5 c 0
 557.291992188 199.833007812 566.125 184.166015625 572.125 164.499023438 c 0
 576.625 149.749023438 578.875 133.217773438 578.875 114.905273438 c 0xfe80
 578.875 108.80078125 578.625 102.499023438 578.125 95.9990234375 c 0
 576.125 55.33203125 564.291992188 24.33203125 542.625 2.9990234375 c 0
 521.615234375 -17.6875 490.10546875 -28.0302734375 448.095703125 -28.0302734375 c 0
 446.78125 -28.0302734375 445.458984375 -28.0205078125 444.125 -28 c 0
455.125 48 m 0
 456.0390625 47.9619140625 456.94140625 47.9443359375 457.83203125 47.9443359375 c 0
 472.522460938 47.9443359375 483.953125 53.1298828125 492.125 63.5009765625 c 0
 493.499023438 65.2451171875 507.142578125 83.193359375 507.142578125 108.302734375 c 0
 507.142578125 150.1015625 489.13671875 171.000976562 453.125 171.000976562 c 0
 437.791992188 171.000976562 425.625 165.16796875 416.625 153.500976562 c 0
 413.4765625 149.418945312 401.046875 131.494140625 401.046875 102.913085938 c 0
 401.046875 86.8427734375 404.740234375 74.0380859375 412.125 64.5 c 0
 420.125 54.1669921875 434.45703125 48.6669921875 455.125 48 c 0
EndSplineSet
Validated: 1
EndChar

StartChar: ampersand
Encoding: 38 38 6
Width: 640
GlyphClass: 2
Flags: HMW
HStem: -41.998 93.998 -40.3768 21G 645.001 79
VStem: 61.3799 100.997 148.379 95.998 382.377 83.002
LayerCount: 2
Fore
SplineSet
545.376953125 -35 m 0xac
 539.510742188 -38.5849609375 533.287109375 -40.3779296875 526.704101562 -40.3779296875 c 0x6c
 519.8203125 -40.3779296875 512.544921875 -38.41796875 504.876953125 -34.4990234375 c 0
 489.876953125 -26.83203125 476.709960938 -13.6650390625 465.376953125 5.001953125 c 0
 464.043945312 8.3349609375 460.2109375 18.3349609375 453.877929688 35.001953125 c 0
 447.544921875 51.6689453125 442.711914062 63.6689453125 439.37890625 71.001953125 c 1
 437.37890625 68.3349609375 433.045898438 62.66796875 426.37890625 54.0009765625 c 0
 419.711914062 45.333984375 414.711914062 39.0009765625 411.37890625 35.0009765625 c 0
 408.045898438 31.0009765625 402.712890625 25.0009765625 395.379882812 17.0009765625 c 0
 388.046875 9.0009765625 381.546875 2.833984375 375.879882812 -1.4990234375 c 0
 370.212890625 -5.83203125 362.879882812 -10.9990234375 353.879882812 -16.9990234375 c 0
 344.879882812 -22.9990234375 336.212890625 -27.4990234375 327.879882812 -30.4990234375 c 0
 319.546875 -33.4990234375 309.546875 -36.166015625 297.879882812 -38.4990234375 c 0
 286.212890625 -40.83203125 274.379882812 -41.9990234375 262.379882812 -41.9990234375 c 0
 225.046875 -41.9990234375 190.879882812 -32.33203125 159.879882812 -12.9990234375 c 0
 128.879882812 6.333984375 104.712890625 31.6669921875 87.3798828125 63 c 0
 70.046875 94.3330078125 61.3798828125 128.333007812 61.3798828125 165 c 0xb4
 61.3798828125 291 113.379882812 376.666992188 217.379882812 422 c 1
 211.379882812 432 204.212890625 444 195.879882812 458 c 0
 187.546875 472 181.379882812 481.833007812 177.379882812 487.5 c 0
 173.379882812 493.166992188 169.046875 500.5 164.379882812 509.5 c 0
 159.712890625 518.5 156.545898438 526.333007812 154.87890625 533 c 0
 153.211914062 539.666992188 151.711914062 547.833984375 150.37890625 557.500976562 c 0
 149.045898438 567.16796875 148.37890625 577.66796875 148.37890625 589.000976562 c 0
 148.37890625 601.000976562 149.87890625 612.833984375 152.87890625 624.500976562 c 0
 155.87890625 636.16796875 161.545898438 648.16796875 169.87890625 660.500976562 c 0
 178.211914062 672.833984375 187.87890625 683.666992188 198.87890625 693 c 0
 209.87890625 702.333007812 224.87890625 709.833007812 243.87890625 715.5 c 0
 262.87890625 721.166992188 284.37890625 724 308.37890625 724 c 0
 327.711914062 724 346.711914062 721 365.37890625 715 c 0
 384.045898438 709 400.87890625 700.166992188 415.87890625 688.5 c 0
 430.87890625 676.833007812 442.87890625 661.5 451.87890625 642.5 c 0
 460.87890625 623.5 465.37890625 602.333007812 465.37890625 579 c 0
 465.37890625 557.666992188 462.711914062 537.833984375 457.37890625 519.500976562 c 0
 452.045898438 501.16796875 445.212890625 485.834960938 436.879882812 473.501953125 c 0
 428.546875 461.168945312 418.046875 449.3359375 405.379882812 438.002929688 c 0
 392.712890625 426.669921875 381.045898438 417.669921875 370.37890625 411.002929688 c 0
 359.711914062 404.3359375 347.37890625 397.668945312 333.37890625 391.001953125 c 1
 345.37890625 370.334960938 365.711914062 339.66796875 394.37890625 299.000976562 c 0
 423.045898438 258.333984375 441.37890625 231.333984375 449.37890625 218.000976562 c 1
 454.045898438 227.333984375 459.37890625 238.166992188 465.37890625 250.5 c 0
 471.37890625 262.833007812 475.87890625 272.833007812 478.87890625 280.5 c 0
 481.87890625 288.166992188 484.711914062 293.666992188 487.37890625 297 c 0
 499.37890625 314.333007812 510.87890625 325.166015625 521.87890625 329.499023438 c 0
 526.211914062 331.206054688 530.673828125 332.059570312 535.265625 332.059570312 c 0
 542.330078125 332.059570312 549.701171875 330.0390625 557.37890625 325.998046875 c 0
 568.711914062 320.665039062 575.544921875 310.83203125 577.877929688 296.499023438 c 0
 578.373046875 293.458984375 578.620117188 290.336914062 578.620117188 287.131835938 c 0
 578.620117188 275.225585938 575.206054688 262.181640625 568.376953125 247.999023438 c 0
 565.043945312 241.999023438 555.043945312 228.666015625 538.376953125 207.999023438 c 0
 521.709960938 187.33203125 508.376953125 168.33203125 498.376953125 150.999023438 c 1
 505.709960938 138.33203125 515.876953125 120.165039062 528.876953125 96.498046875 c 0
 541.876953125 72.8310546875 549.709960938 58.998046875 552.376953125 54.998046875 c 0
 560.485351562 42.025390625 564.5390625 27.9560546875 564.5390625 12.7919921875 c 0
 564.5390625 9.25390625 564.318359375 5.65625 563.876953125 1.9990234375 c 0
 561.543945312 -17.333984375 555.376953125 -29.6669921875 545.376953125 -35 c 0xac
244.377929688 572 m 0
 244.377929688 555.333007812 248.7109375 537 257.377929688 517 c 0
 266.044921875 497 276.711914062 479.333007812 289.37890625 464 c 1
 304.045898438 468.666992188 316.545898438 473.5 326.87890625 478.5 c 0
 337.211914062 483.5 347.044921875 490 356.377929688 498 c 0
 365.7109375 506 372.377929688 515.833007812 376.377929688 527.5 c 0
 380.377929688 539.166992188 382.377929688 553 382.377929688 569 c 0
 382.377929688 593.666992188 374.877929688 612.5 359.877929688 625.5 c 0
 344.877929688 638.5 326.7109375 645 305.377929688 645 c 0
 264.7109375 645 244.377929688 620.666992188 244.377929688 572 c 0
162.377929688 174 m 0xb4
 162.377929688 139.333007812 171.708984375 110.33203125 190.375976562 86.9990234375 c 0
 209.04296875 63.666015625 233.375976562 51.9990234375 263.375976562 51.9990234375 c 0
 272.708984375 51.9990234375 281.875976562 52.9990234375 290.875976562 54.9990234375 c 0
 299.875976562 56.9990234375 307.54296875 58.9990234375 313.875976562 60.9990234375 c 0
 320.208984375 62.9990234375 326.875976562 66.33203125 333.875976562 70.9990234375 c 0
 340.875976562 75.666015625 346.375976562 79.4990234375 350.375976562 82.4990234375 c 0
 354.375976562 85.4990234375 359.208984375 90.166015625 364.875976562 96.4990234375 c 0
 370.54296875 102.83203125 374.209960938 107.33203125 375.876953125 109.999023438 c 0
 377.543945312 112.666015625 381.043945312 117.499023438 386.376953125 124.499023438 c 0
 391.709960938 131.499023438 394.709960938 135.666015625 395.376953125 136.999023438 c 0
 383.376953125 162.999023438 373.376953125 183.33203125 365.376953125 197.999023438 c 0
 357.376953125 213.33203125 341.209960938 238.33203125 316.876953125 272.999023438 c 0
 292.543945312 307.666015625 275.376953125 333.333007812 265.376953125 350 c 1
 245.376953125 341.333007812 228.209960938 330.5 213.876953125 317.5 c 0
 199.543945312 304.5 188.7109375 290.166992188 181.377929688 274.5 c 0
 174.044921875 258.833007812 169.044921875 243 166.377929688 227 c 0
 163.7109375 211 162.377929688 193.333007812 162.377929688 174 c 0xb4
EndSplineSet
Validated: 1
EndChar

StartChar: quotesingle
Encoding: 39 39 7
Width: 640
GlyphClass: 2
Flags: HMW
HStem: 445.91 325.59
VStem: 266.834 106.332
LayerCount: 2
Fore
SplineSet
372.83203125 728 m 0
 373.0546875 719.106445312 373.166015625 708.600585938 373.166015625 696.482421875 c 0
 373.166015625 672.263671875 372.721679688 641.603515625 371.833007812 604.500976562 c 0
 370.5 548.833984375 368.166992188 509.333984375 364.833984375 486.000976562 c 0
 362.833984375 472.000976562 357.000976562 461.66796875 347.333984375 455.000976562 c 0
 338.545898438 448.940429688 329.344726562 445.91015625 319.73046875 445.91015625 c 0
 318.768554688 445.91015625 317.802734375 445.940429688 316.833007812 446.000976562 c 0
 303.5 446.66796875 291.666992188 451.000976562 281.333984375 459.000976562 c 0
 272.181640625 466.086914062 267.60546875 475.526367188 267.60546875 487.319335938 c 0
 267.60546875 490.916015625 270.083984375 520.942382812 270.083984375 578.998046875 c 0
 270.083984375 589.666015625 270.000976562 600.666992188 269.833984375 612.000976562 c 0
 269.166992188 657.333984375 268.166992188 697.666992188 266.833984375 733 c 0
 266.833984375 741 268.333984375 748 271.333984375 754 c 0
 274.333984375 760 279.000976562 764.166992188 285.333984375 766.5 c 0
 291.666992188 768.833007812 297.833984375 770.5 303.833984375 771.5 c 0
 309.833984375 772.5 315.833984375 772.666992188 321.833984375 772 c 0
 327.833984375 772 333.500976562 771.333007812 338.833984375 770 c 0
 344.166992188 768.666992188 349.5 766.5 354.833007812 763.5 c 0
 360.166015625 760.5 364.499023438 756 367.83203125 750 c 0
 371.165039062 744 372.83203125 736.666992188 372.83203125 728 c 0
EndSplineSet
Validated: 1
EndChar

StartChar: parenleft
Encoding: 40 40 8
Width: 640
GlyphClass: 2
Flags: HMW
HStem: -130.998 83.998 733.002 81
VStem: 170.548 97.3819
LayerCount: 2
Fore
SplineSet
468.4296875 -93 m 0
 468.4296875 -103.666992188 464.09765625 -112.6640625 455.430664062 -119.997070312 c 0
 446.763671875 -127.330078125 437.763671875 -130.997070312 428.430664062 -130.997070312 c 0
 383.763671875 -130.997070312 343.263671875 -114.997070312 306.930664062 -82.9970703125 c 0
 270.59765625 -50.9970703125 240.930664062 -6.6640625 217.930664062 50.0029296875 c 0
 194.930664062 106.669921875 180.09765625 172.002929688 173.430664062 246.002929688 c 0
 171.508789062 266.04296875 170.547851562 288.569335938 170.547851562 313.58203125 c 0
 170.547851562 349.314453125 172.508789062 390.12109375 176.430664062 436.002929688 c 0
 183.09765625 514.002929688 196.09765625 578.3359375 215.430664062 629.002929688 c 0
 224.09765625 651.002929688 235.59765625 672.8359375 249.930664062 694.502929688 c 0
 264.263671875 716.169921875 280.596679688 736.002929688 298.9296875 754.002929688 c 0
 317.262695312 772.002929688 337.9296875 786.502929688 360.9296875 797.502929688 c 0
 383.9296875 808.502929688 406.762695312 814.002929688 429.4296875 814.002929688 c 0
 456.111328125 814.002929688 469.452148438 800.979492188 469.452148438 774.93359375 c 0
 469.452148438 767.493164062 469.306640625 751.90625 457.428710938 742.502929688 c 0
 449.428710938 736.169921875 439.428710938 733.002929688 427.428710938 733.002929688 c 0
 410.095703125 733.002929688 393.928710938 728.002929688 378.928710938 718.002929688 c 0
 363.928710938 708.002929688 350.76171875 694.3359375 339.428710938 677.002929688 c 0
 328.095703125 659.669921875 318.262695312 640.669921875 309.9296875 620.002929688 c 0
 301.596679688 599.3359375 294.4296875 577.002929688 288.4296875 553.002929688 c 0
 279.762695312 518.3359375 273.762695312 470.668945312 270.4296875 410.001953125 c 0
 268.763671875 379.66796875 267.930664062 352.16796875 267.930664062 327.500976562 c 0
 267.930664062 302.833984375 268.763671875 281.000976562 270.4296875 262.000976562 c 0
 273.762695312 221.333984375 280.9296875 181.833984375 291.9296875 143.500976562 c 0
 302.9296875 105.16796875 315.762695312 72.16796875 330.4296875 44.5009765625 c 0
 345.096679688 16.833984375 361.096679688 -5.3330078125 378.4296875 -22 c 0
 395.762695312 -38.6669921875 412.4296875 -47 428.4296875 -47 c 0
 441.762695312 -47 451.762695312 -50.3330078125 458.4296875 -57 c 0
 465.096679688 -63.6669921875 468.4296875 -75.6669921875 468.4296875 -93 c 0
EndSplineSet
Validated: 1
EndChar

StartChar: parenright
Encoding: 41 41 9
Width: 640
GlyphClass: 2
Flags: HMW
HStem: -131.005 84 732.998 81.002
VStem: 370.192 99.2482
LayerCount: 2
Fore
SplineSet
466.55859375 246 m 0
 459.225585938 172 444.0625 106.662109375 421.0625 49.9951171875 c 0
 398.0625 -6.671875 368.5625 -51.0048828125 332.5625 -83.0048828125 c 0
 296.5625 -115.004882812 256.229492188 -131.004882812 211.5625 -131.004882812 c 0
 202.229492188 -131.004882812 193.229492188 -127.337890625 184.5625 -120.004882812 c 0
 175.89453125 -112.671875 171.5625 -103.671875 171.5625 -93.0048828125 c 0
 171.5625 -75.671875 175.0625 -63.671875 182.0625 -57.0048828125 c 0
 189.0625 -50.337890625 198.89453125 -47.0048828125 211.5625 -47.0048828125 c 0
 226.89453125 -47.0048828125 243.0625 -38.671875 260.0625 -22.0048828125 c 0
 277.0625 -5.337890625 292.89453125 16.8291015625 307.5625 44.49609375 c 0
 322.229492188 72.1630859375 335.229492188 105.330078125 346.5625 143.997070312 c 0
 357.89453125 182.6640625 364.89453125 221.997070312 367.5625 261.997070312 c 0
 369.31640625 281.998046875 370.193359375 305.137695312 370.193359375 331.416992188 c 0
 370.193359375 355.067382812 369.482421875 381.260742188 368.061523438 409.997070312 c 0
 365.061523438 470.6640625 358.89453125 518.331054688 349.561523438 552.998046875 c 0
 344.228515625 576.998046875 337.561523438 599.331054688 329.561523438 619.998046875 c 0
 321.561523438 640.665039062 311.728515625 659.665039062 300.061523438 676.998046875 c 0
 288.39453125 694.331054688 275.2265625 707.998046875 260.560546875 717.998046875 c 0
 245.893554688 727.998046875 230.2265625 732.998046875 213.55859375 732.998046875 c 0
 200.892578125 732.998046875 190.55859375 736.165039062 182.55859375 742.498046875 c 0
 174.55859375 748.831054688 170.55859375 758.998046875 170.55859375 772.998046875 c 0
 170.55859375 781.665039062 171.55859375 788.83203125 173.55859375 794.499023438 c 0
 175.55859375 800.166015625 179.05859375 804.333007812 184.05859375 807 c 0
 189.05859375 809.666992188 193.392578125 811.5 197.05859375 812.5 c 0
 200.7265625 813.5 205.2265625 814 210.55859375 814 c 0
 233.2265625 814 256.05859375 808.5 279.05859375 797.5 c 0
 302.05859375 786.5 322.55859375 772 340.55859375 754 c 0
 358.55859375 736 374.7265625 716.166992188 389.05859375 694.5 c 0
 403.392578125 672.833007812 415.225585938 651 424.55859375 629 c 0
 443.890625 578.333007812 456.890625 514 463.55859375 436 c 0
 467.48046875 390.118164062 469.44140625 349.311523438 469.44140625 313.579101562 c 0
 469.44140625 288.56640625 468.48046875 266.040039062 466.55859375 246 c 0
EndSplineSet
Validated: 1
EndChar

StartChar: asterisk
Encoding: 42 42 10
Width: 640
GlyphClass: 2
Flags: HMW
HStem: 292.998 103.999 306.499 76.5001
LayerCount: 2
Fore
SplineSet
267.001953125 139 m 0x40
 264.333984375 131 259.83203125 124.999023438 253.498046875 120.999023438 c 0
 247.166015625 116.999023438 240.166015625 114.666015625 232.498046875 113.999023438 c 0
 224.83203125 113.33203125 217.498046875 113.83203125 210.498046875 115.499023438 c 0
 203.498046875 117.166015625 197.33203125 119.333007812 191.998046875 122 c 0
 185.998046875 125.333007812 180.998046875 130.166015625 176.998046875 136.499023438 c 0
 172.998046875 142.83203125 170.33203125 150.665039062 168.998046875 159.998046875 c 0
 167.666015625 169.331054688 169.666015625 178.998046875 174.998046875 188.998046875 c 2
 241.998046875 297.998046875 l 1
 187.33203125 294.665039062 146.998046875 292.998046875 120.998046875 292.998046875 c 0
 104.998046875 292.998046875 92.33203125 298.331054688 82.998046875 308.998046875 c 0
 73.666015625 319.665039062 68.998046875 330.998046875 68.998046875 342.998046875 c 0
 68.998046875 348.998046875 69.83203125 355.165039062 71.498046875 361.498046875 c 0
 73.166015625 367.831054688 75.666015625 373.831054688 78.998046875 379.498046875 c 0
 82.33203125 385.165039062 87.498046875 389.665039062 94.498046875 392.998046875 c 0
 101.498046875 396.331054688 109.33203125 397.6640625 117.998046875 396.997070312 c 0x80
 148.666015625 394.330078125 193.998046875 390.997070312 253.998046875 386.997070312 c 1
 225.33203125 435.6640625 201.665039062 472.997070312 182.998046875 498.997070312 c 0
 175.079101562 512.006835938 171.119140625 524.776367188 171.119140625 537.306640625 c 0
 171.119140625 539.544921875 171.24609375 541.775390625 171.498046875 543.998046875 c 0
 173.166015625 558.665039062 179.333007812 568.33203125 190 572.999023438 c 0
 196 576.999023438 203.5 579.166015625 212.5 579.499023438 c 0
 221.5 579.83203125 230.666015625 577.33203125 240 571.999023438 c 0
 249.333007812 566.666015625 256.666015625 558.666015625 261.998046875 547.999023438 c 0
 269.33203125 531.999023438 288.998046875 493.666015625 320.998046875 432.999023438 c 1
 347.666015625 478.33203125 367.666015625 516.33203125 380.998046875 546.999023438 c 0
 385.666015625 557.666015625 392.498046875 565.666015625 401.498046875 570.999023438 c 0
 410.498046875 576.33203125 419.166015625 578.83203125 427.498046875 578.499023438 c 0
 435.83203125 578.166015625 442.998046875 575.666015625 448.998046875 570.999023438 c 0
 455.666015625 567.666015625 461.166015625 562.333007812 465.498046875 555 c 0
 469.83203125 547.666992188 471.998046875 539 471.998046875 529 c 0
 471.998046875 519 468.666015625 509.333007812 461.998046875 500 c 0
 440.666015625 468.666992188 417.333007812 429.666992188 392 383 c 1
 450 383 491.333007812 386.666992188 516 394 c 0
 520.666015625 395.485351562 525.130859375 396.227539062 529.392578125 396.227539062 c 0
 538.525390625 396.227539062 546.728515625 392.818359375 554.000976562 386 c 0
 564.66796875 376 570.333984375 365.333007812 571.001953125 354 c 0
 571.001953125 348 570.333984375 342 569.001953125 336 c 0
 567.668945312 330 565.3359375 324 562.001953125 318 c 0
 558.669921875 312 554.001953125 307.333007812 548.001953125 304 c 0
 542.001953125 300.666992188 534.669921875 300 526.001953125 302 c 0
 509.001953125 305 479.813476562 306.5 438.4375 306.5 c 0
 424.646484375 306.5 409.500976562 306.333007812 393.001953125 306 c 1
 460.001953125 190 l 2
 465.9765625 177.506835938 468.962890625 166.23046875 468.962890625 156.170898438 c 0
 468.962890625 153.883789062 468.809570312 151.66015625 468.500976562 149.499023438 c 0
 466.833984375 137.83203125 462.000976562 129.33203125 454.000976562 123.999023438 c 0
 447.333984375 119.999023438 438.833984375 117.666015625 428.500976562 116.999023438 c 0
 427.208984375 116.916015625 425.916015625 116.874023438 424.625 116.874023438 c 2
 397.501953125 122.999023438 l 2
 387.168945312 127.666015625 380.668945312 135.333007812 378.001953125 146 c 0
 369.333984375 172.666992188 351.66796875 211 325.000976562 261 c 1
 293.66796875 199.666992188 274.333984375 159 267.001953125 139 c 0x40
EndSplineSet
Validated: 1
EndChar

StartChar: plus
Encoding: 43 43 11
Width: 640
GlyphClass: 2
Flags: HMW
HStem: 359.8 79.1992
VStem: 278.04 80.9971
LayerCount: 2
Fore
SplineSet
359.037109375 250 m 0
 359.037109375 234.666992188 355.708007812 223.833007812 349.041015625 217.5 c 0
 342.374023438 211.166992188 333.041015625 208 321.041015625 208 c 0
 292.374023438 208 278.041015625 222 278.041015625 250 c 2
 278.041015625 357 l 1
 264.708007812 357 246.708007812 356.833007812 224.041015625 356.5 c 0
 201.374023438 356.166992188 185.70703125 356 177.040039062 356 c 0
 160.373046875 356 148.040039062 360.166992188 140.040039062 368.5 c 0
 128.399414062 380.625 127.962890625 393.616210938 127.962890625 401.888671875 c 0
 127.962890625 413.296875 131.655273438 423.000976562 139.040039062 431.000976562 c 0
 146.46875 439.048828125 157.6328125 443.072265625 172.533203125 443.072265625 c 0
 173.6796875 443.072265625 174.848632812 443.048828125 176.040039062 443.000976562 c 0
 222.70703125 441.66796875 256.70703125 441.000976562 278.040039062 441.000976562 c 1
 278.040039062 499.8203125 275.955078125 548.575195312 275.955078125 552.581054688 c 0
 275.955078125 578.860351562 290.31640625 592 319.040039062 592 c 0
 320.374023438 592.06640625 321.682617188 592.099609375 322.965820312 592.099609375 c 0
 334.514648438 592.099609375 344.0390625 589.399414062 351.538085938 584 c 0
 358.721679688 578.827148438 362.313476562 569.69140625 362.313476562 556.590820312 c 0
 362.313476562 554.495117188 362.221679688 552.297851562 362.038085938 549.999023438 c 0
 360.038085938 511.33203125 359.038085938 474.33203125 359.038085938 438.999023438 c 1
 469.038085938 438.999023438 l 2
 484.37109375 438.999023438 495.204101562 435.666015625 501.537109375 428.999023438 c 0
 507.870117188 422.33203125 511.370117188 413.33203125 512.037109375 401.999023438 c 0
 512.037109375 395.999023438 511.370117188 390.499023438 510.037109375 385.499023438 c 0
 508.704101562 380.499023438 506.704101562 375.666015625 504.037109375 370.999023438 c 0
 501.370117188 366.33203125 497.037109375 362.83203125 491.037109375 360.499023438 c 0
 485.037109375 358.166015625 477.704101562 357.333007812 469.037109375 358 c 0
 458.637695312 359.200195312 441.158203125 359.799804688 416.598632812 359.799804688 c 0
 400.224609375 359.799804688 380.704101562 359.533203125 358.037109375 359 c 1
 358.037109375 341 358.204101562 319.666992188 358.537109375 295 c 0
 358.870117188 270.333007812 359.037109375 255.333007812 359.037109375 250 c 0
EndSplineSet
Validated: 1
EndChar

StartChar: comma
Encoding: 44 44 12
Width: 640
GlyphClass: 2
Flags: HMW
VStem: 217.51 204.501
LayerCount: 2
Fore
SplineSet
422.010742188 96 m 0
 415.34375 63.3330078125 401.010742188 12.9990234375 379.010742188 -55.0009765625 c 0
 357.010742188 -123.000976562 340.010742188 -165.000976562 328.010742188 -181.000976562 c 0
 317.34375 -195.000976562 303.84375 -205.000976562 287.510742188 -211.000976562 c 0
 277.7109375 -214.600585938 268.811523438 -216.400390625 260.811523438 -216.400390625 c 0
 255.478515625 -216.400390625 250.544921875 -215.600585938 246.01171875 -214.000976562 c 0
 239.344726562 -212.000976562 233.177734375 -208.000976562 227.510742188 -202.000976562 c 0
 221.84375 -196.000976562 218.510742188 -188.66796875 217.510742188 -180.000976562 c 0
 216.510742188 -171.333984375 219.010742188 -162.333984375 225.010742188 -153.000976562 c 0
 239.010742188 -133.000976562 258.34375 -89.0009765625 283.010742188 -21.0009765625 c 0
 307.677734375 46.9990234375 322.677734375 94.33203125 328.010742188 120.999023438 c 0
 330.010742188 130.33203125 334.677734375 137.665039062 342.010742188 142.998046875 c 0
 349.34375 148.331054688 357.010742188 150.998046875 365.010742188 150.998046875 c 0
 373.010742188 150.998046875 381.010742188 150.331054688 389.010742188 148.998046875 c 0
 399.677734375 145.665039062 408.344726562 139.33203125 415.01171875 129.999023438 c 0
 420.139648438 122.8203125 422.703125 114.458007812 422.703125 104.912109375 c 0
 422.703125 102.047851562 422.47265625 99.0771484375 422.010742188 96 c 0
EndSplineSet
Validated: 1
EndChar

StartChar: hyphen
Encoding: 45 45 13
Width: 640
GlyphClass: 2
Flags: HMW
HStem: 243 87<194.763 220.429> 251 82<428.097 438.763 428.097 445.429>
VStem: 165.905 308.191
LayerCount: 2
Fore
SplineSet
207.095703125 330 m 0xa0
 245.095703125 330 290.4296875 330.5 343.096679688 331.5 c 0
 395.763671875 332.5 425.096679688 333 431.096679688 333 c 0
 446.4296875 333 457.262695312 329.5 463.595703125 322.5 c 0
 469.928710938 315.5 473.428710938 306.333007812 474.095703125 295 c 0
 474.095703125 265.666992188 459.762695312 251 431.095703125 251 c 0x60
 422.428710938 251 388.928710938 249.666992188 330.595703125 247 c 0
 272.262695312 244.333007812 231.762695312 243 209.095703125 243 c 0
 180.428710938 243 166.095703125 257.333007812 166.095703125 286 c 0
 165.967773438 287.872070312 165.904296875 289.684570312 165.904296875 291.4375 c 0
 165.904296875 317.145507812 179.634765625 330 207.095703125 330 c 0xa0
EndSplineSet
Validated: 1
EndChar

StartChar: period
Encoding: 46 46 14
Width: 640
GlyphClass: 2
Flags: HMW
HStem: -14.5617 154.604
VStem: 237.999 164.001
LayerCount: 2
Fore
SplineSet
322 -14 m 0
 318.536132812 -14.3740234375 315.161132812 -14.5615234375 311.875 -14.5615234375 c 0
 291.7578125 -14.5615234375 274.965820312 -7.5439453125 261.5 6.49609375 c 0
 245.83203125 22.8291015625 238 41.99609375 238 63.99609375 c 0
 238 84.6630859375 246.83203125 102.330078125 264.5 116.997070312 c 0
 282.166015625 131.6640625 301.333007812 139.331054688 322 139.998046875 c 0
 323.037109375 140.02734375 324.06640625 140.041992188 325.087890625 140.041992188 c 0
 347.029296875 140.041992188 365.16796875 133.194335938 379.5 119.499023438 c 0
 394.5 105.166015625 402 86.9990234375 402 64.9990234375 c 0
 402 43.666015625 394.66796875 25.8330078125 380 11.5 c 0
 365.333007812 -2.8330078125 346 -11.3330078125 322 -14 c 0
EndSplineSet
Validated: 1
EndChar

StartChar: slash
Encoding: 47 47 15
Width: 640
GlyphClass: 2
Flags: W
LayerCount: 2
Fore
SplineSet
561.029296875 676 m 0
 543.696289062 642 495.029296875 558.49609375 415.029296875 425.49609375 c 0
 335.029296875 292.49609375 286.362304688 209.99609375 269.029296875 177.99609375 c 0
 258.362304688 157.329101562 241.029296875 122.329101562 217.029296875 72.99609375 c 0
 193.029296875 23.6630859375 178.029296875 -6.3369140625 172.029296875 -17.00390625 c 0
 161.362304688 -35.6708984375 147.862304688 -48.6708984375 131.529296875 -56.00390625 c 0
 123.362304688 -59.669921875 115.737304688 -61.5029296875 108.654296875 -61.5029296875 c 0
 101.571289062 -61.5029296875 95.029296875 -59.669921875 89.029296875 -56.0029296875 c 0
 79.029296875 -50.669921875 73.029296875 -38.3369140625 71.029296875 -19.00390625 c 0
 70.6767578125 -15.5927734375 70.5 -12.2333984375 70.5 -8.92578125 c 0
 70.5 6.51171875 74.34375 20.8193359375 82.0302734375 33.99609375 c 0
 179.36328125 193.99609375 262.696289062 336.329101562 332.029296875 460.99609375 c 0
 375.362304688 537.663085938 421.362304688 624.330078125 470.029296875 720.997070312 c 0
 475.362304688 731.6640625 482.6953125 739.831054688 492.028320312 745.498046875 c 0
 501.361328125 751.165039062 510.361328125 753.83203125 519.028320312 753.499023438 c 0
 527.6953125 753.166015625 536.362304688 751.333007812 545.029296875 748 c 0
 557.029296875 742 564.696289062 732.666992188 568.029296875 720 c 0
 569.009765625 716.274414062 569.5 712.375976562 569.5 708.3046875 c 0
 569.5 698.533203125 566.676757812 687.764648438 561.029296875 676 c 0
EndSplineSet
Validated: 1
EndChar

StartChar: zero
Encoding: 48 48 16
Width: 640
GlyphClass: 2
Flags: HMW
HStem: -24 83.999 636.999 81.001
VStem: 84.0782 95.502 459.082 96.8403
LayerCount: 2
Fore
SplineSet
298.076171875 -24 m 0
 266.743164062 -24 237.912109375 -18.33203125 211.579101562 -6.9990234375 c 0
 185.24609375 4.333984375 162.74609375 20.0009765625 144.079101562 40.0009765625 c 0
 125.412109375 60.0009765625 110.745117188 85.0009765625 100.078125 115.000976562 c 0
 90.0390625 143.235351562 85.01953125 174.126953125 85.01953125 207.67578125 c 0
 85.01953125 209.7734375 85.0390625 211.881835938 85.078125 214 c 0
 85.078125 220.666992188 84.9111328125 237.166992188 84.578125 263.5 c 0
 84.2451171875 289.833007812 84.078125 310.833007812 84.078125 326.5 c 0
 84.078125 342.166992188 84.578125 363.833984375 85.578125 391.500976562 c 0
 86.578125 419.16796875 88.4111328125 443.000976562 91.078125 463.000976562 c 0
 93.7451171875 483.000976562 97.2451171875 504.500976562 101.578125 527.500976562 c 0
 105.911132812 550.500976562 111.744140625 570.66796875 119.077148438 588.000976562 c 0
 135.077148438 630.000976562 162.077148438 662.16796875 200.077148438 684.500976562 c 0
 238.077148438 706.833984375 284.41015625 718.000976562 339.077148438 718.000976562 c 0
 366.41015625 718.000976562 392.077148438 713.333984375 416.077148438 704.000976562 c 0
 440.077148438 694.66796875 461.41015625 681.000976562 480.077148438 663.000976562 c 0
 498.744140625 645.000976562 514.244140625 621.66796875 526.577148438 593.000976562 c 0
 538.91015625 564.333984375 546.743164062 531.333984375 550.076171875 494.000976562 c 0
 552.743164062 460.66796875 554.576171875 422.834960938 555.576171875 380.501953125 c 0
 555.806640625 370.733398438 555.921875 360.947265625 555.921875 351.143554688 c 0
 555.921875 318.459960938 554.639648438 285.579101562 552.076171875 252.500976562 c 0
 548.743164062 209.500976562 544.076171875 176.66796875 538.076171875 154.000976562 c 0
 532.076171875 131.333984375 525.409179688 111.333984375 518.076171875 94.0009765625 c 0
 510.743164062 76.66796875 502.91015625 61.66796875 494.577148438 49.0009765625 c 0
 486.244140625 36.333984375 476.911132812 25.6669921875 466.578125 17 c 0
 456.245117188 8.3330078125 445.245117188 1.3330078125 433.578125 -4 c 0
 421.911132812 -9.3330078125 408.744140625 -13.5 394.077148438 -16.5 c 0
 379.41015625 -19.5 364.743164062 -21.5 350.076171875 -22.5 c 0
 335.409179688 -23.5 318.076171875 -24 298.076171875 -24 c 0
183.078125 230.000976562 m 0
 183.078125 227.333984375 183.249023438 223.333984375 183.58203125 218.000976562 c 0
 183.915039062 212.66796875 184.08203125 209.000976562 184.08203125 207.000976562 c 1
 273.415039062 329.000976562 353.748046875 454.333984375 425.081054688 583.000976562 c 1
 413.081054688 600.333984375 398.4140625 613.666992188 381.081054688 623 c 0
 363.748046875 632.333007812 345.081054688 637 325.081054688 637 c 0
 287.748046875 637 258.581054688 626.666992188 237.581054688 606 c 0
 216.581054688 585.333007812 200.748046875 552 190.081054688 506 c 0
 186.081054688 489.333007812 183.248046875 469.833007812 181.581054688 447.5 c 0
 180.19140625 428.885742188 179.497070312 407.029296875 179.497070312 381.930664062 c 0
 179.497070312 376.916992188 179.524414062 371.7734375 179.580078125 366.500976562 c 0
 179.913085938 334.833984375 180.24609375 312.500976562 180.579101562 299.500976562 c 0
 180.912109375 286.500976562 181.745117188 263.333984375 183.078125 230.000976562 c 0
444.08203125 168.000976562 m 0
 446.749023438 176.000976562 449.58203125 198 452.58203125 234 c 0
 455.58203125 270 457.749023438 311.166992188 459.08203125 357.5 c 0
 459.462890625 370.736328125 459.653320312 383.823242188 459.653320312 396.760742188 c 0
 459.653320312 429.109375 458.462890625 460.522460938 456.08203125 491 c 1
 384.749023438 344.333007812 300.749023438 221.333007812 204.08203125 122 c 1
 222.08203125 80.6669921875 253.415039062 60 298.08203125 60 c 0
 316.08203125 60 332.249023438 61.5 346.58203125 64.5 c 0
 360.915039062 67.5 374.58203125 72.8330078125 387.58203125 80.5 c 0
 400.58203125 88.1669921875 411.58203125 99.333984375 420.58203125 114.000976562 c 0
 429.58203125 128.66796875 437.415039062 146.66796875 444.08203125 168.000976562 c 0
EndSplineSet
Validated: 1
EndChar

StartChar: one
Encoding: 49 49 17
Width: 640
GlyphClass: 2
Flags: HMW
HStem: -9 85.5 -5 89<113.004 136.004 113.004 136.004> 511.539 21G
VStem: 272.337 96.6644 282.003 91.498
LayerCount: 2
Fore
SplineSet
563.08203125 34.8388671875 m 0xb0
 563.08203125 22.892578125 559.556640625 12.779296875 552.50390625 4.5 c 0
 544.837890625 -4.5 531.337890625 -9 512.00390625 -9 c 0xb0
 503.337890625 -9 443.837890625 -8.3330078125 333.50390625 -7 c 0
 223.170898438 -5.6669921875 152.00390625 -5 120.00390625 -5 c 0
 105.337890625 -5 94.50390625 -1 87.50390625 7 c 0
 80.50390625 15 77.00390625 25.3330078125 77.00390625 38 c 0
 76.947265625 39.16015625 76.91796875 40.302734375 76.91796875 41.4267578125 c 0
 76.91796875 53.2294921875 80.11328125 63.0869140625 86.50390625 71 c 0
 93.50390625 79.6669921875 105.00390625 84 121.00390625 84 c 0
 151.00390625 84 202.00390625 83.6669921875 274.00390625 83 c 1
 274.00390625 109.666992188 273.670898438 131 273.00390625 147 c 0
 272.55859375 150.556640625 272.3359375 159.600585938 272.3359375 174.131835938 c 0x70
 272.3359375 181.38671875 272.392578125 190.009765625 272.502929688 200 c 0
 272.8359375 230 273.002929688 251.666992188 273.002929688 265 c 0
 273.002929688 278.333007812 273.669921875 303 275.002929688 339 c 0
 276.3359375 375 277.3359375 401.833007812 278.002929688 419.5 c 0
 278.669921875 437.166992188 280.002929688 465.166992188 282.002929688 503.5 c 0
 284.002929688 541.833007812 285.3359375 570 286.002929688 588 c 1
 236.669921875 546.666992188 200.669921875 522 178.002929688 514 c 0
 173.900390625 512.359375 169.783203125 511.5390625 165.6484375 511.5390625 c 0
 156.346679688 511.5390625 146.96484375 515.692382812 137.502929688 524 c 0
 124.47265625 535.44140625 117.95703125 546.8828125 117.95703125 558.32421875 c 0
 117.95703125 558.8828125 117.97265625 559.44140625 118.00390625 560 c 0
 118.00390625 570.666992188 120.3359375 580.166992188 125.002929688 588.5 c 0
 129.669921875 596.833007812 138.002929688 605.333007812 150.002929688 614 c 0
 169.3359375 628.666992188 189.669921875 644.833984375 211.001953125 662.500976562 c 0
 232.334960938 680.16796875 247.66796875 693.000976562 257.001953125 701.000976562 c 0
 266.333984375 709.000976562 276.001953125 715.833984375 286.001953125 721.500976562 c 0
 296.001953125 727.16796875 304.66796875 730.000976562 312.001953125 730.000976562 c 0
 326.001953125 730.000976562 340.66796875 724.000976562 356.001953125 712.000976562 c 0
 371.333984375 700.000976562 379.001953125 690.000976562 379.001953125 682.000976562 c 0
 379.001953125 666.66796875 377.16796875 612.16796875 373.501953125 518.500976562 c 0x68
 369.833984375 424.833984375 368.001953125 370.000976562 368.001953125 354.000976562 c 0
 368.001953125 287.333984375 368.333984375 231.666992188 369.001953125 187 c 0
 369.001953125 162.333007812 369.66796875 126.333007812 371.001953125 79 c 1
 390.333984375 79 410.666992188 78.6669921875 432 78 c 0
 453.333984375 77.3330078125 470.833984375 76.8330078125 484.5 76.5 c 0
 498.166992188 76.1669921875 508 76 514 76 c 0
 532.666992188 76 545.333984375 72.5 552.001953125 65.5 c 0
 557.42578125 59.8046875 563.08203125 50.1865234375 563.08203125 34.8388671875 c 0xb0
EndSplineSet
Validated: 1
EndChar

StartChar: two
Encoding: 50 50 18
Width: 640
GlyphClass: 2
Flags: HMW
HStem: -18.0049 84.0049 -14.0059 91.0059 637.997 83.999
VStem: 86.8359 99.9971 439.833 98.9971
LayerCount: 2
Fore
SplineSet
519.83203125 -12 m 0x78
 491.83203125 -12 457.001953125 -12.6728515625 415.334960938 -14.005859375 c 0x78
 373.66796875 -15.3388671875 336.834960938 -16.671875 304.834960938 -18.0048828125 c 0
 272.834960938 -19.337890625 240.001953125 -20.0048828125 206.334960938 -20.0048828125 c 0
 172.66796875 -20.0048828125 146.500976562 -18.671875 127.833984375 -16.0048828125 c 0
 113.166992188 -14.671875 102.666992188 -5.671875 96.333984375 10.9951171875 c 0
 90.0009765625 27.662109375 86.833984375 51.662109375 86.833984375 82.9951171875 c 0
 86.833984375 111.662109375 93.0009765625 141.829101562 105.333984375 173.49609375 c 0
 117.666992188 205.163085938 135.833984375 235.49609375 159.833984375 264.49609375 c 0
 183.833984375 293.49609375 211.833984375 316.99609375 243.833984375 334.99609375 c 0
 315.166992188 374.99609375 361.166992188 402.99609375 381.833984375 418.99609375 c 0
 409.166992188 440.329101562 426.5 462.99609375 433.833007812 486.99609375 c 0
 437.833007812 500.99609375 439.833007812 518.329101562 439.833007812 538.99609375 c 0
 439.833007812 573.663085938 429.666015625 598.830078125 409.333007812 614.497070312 c 0
 389 630.1640625 360.166992188 637.997070312 322.833984375 637.997070312 c 0
 296.833984375 637.997070312 272.000976562 629.997070312 248.333984375 613.997070312 c 0
 224.666992188 597.997070312 206.5 580.330078125 193.833007812 560.997070312 c 0
 187.833007812 552.330078125 182.166015625 545.497070312 176.833007812 540.497070312 c 0
 171.5 535.497070312 165.833007812 532.6640625 159.833007812 531.997070312 c 0
 153.833007812 531.330078125 148.5 531.663085938 143.833007812 532.99609375 c 0
 139.166015625 534.329101562 132.833007812 536.662109375 124.833007812 539.995117188 c 0
 113.5 545.995117188 106.5 554.662109375 103.833007812 565.995117188 c 0
 103.166015625 568.828125 102.833007812 571.870117188 102.833007812 575.120117188 c 0
 102.833007812 584.870117188 105.833007812 596.495117188 111.833007812 609.995117188 c 0
 118.5 622.662109375 128.5 635.329101562 141.833007812 647.99609375 c 0
 155.166015625 660.663085938 170.499023438 672.663085938 187.83203125 683.99609375 c 0
 205.165039062 695.329101562 225.498046875 704.49609375 248.831054688 711.49609375 c 0
 272.1640625 718.49609375 295.497070312 721.99609375 318.830078125 721.99609375 c 0
 390.830078125 721.99609375 445.497070312 705.329101562 482.830078125 671.99609375 c 0
 520.163085938 638.663085938 538.830078125 588.663085938 538.830078125 521.99609375 c 0
 538.830078125 466.663085938 524.830078125 422.330078125 496.830078125 388.997070312 c 0
 476.163085938 364.330078125 438.830078125 336.997070312 384.830078125 306.997070312 c 0
 371.497070312 298.997070312 348.497070312 286.6640625 315.830078125 269.997070312 c 0
 287.163085938 254.6640625 263.163085938 235.831054688 243.830078125 213.498046875 c 0
 224.497070312 191.165039062 210.6640625 168.33203125 202.331054688 144.999023438 c 0
 193.998046875 121.666015625 188.831054688 96.3330078125 186.831054688 69 c 1
 224.1640625 67 260.1640625 66 294.831054688 66 c 0xb8
 329.498046875 66 356.498046875 66.5 375.831054688 67.5 c 0
 395.1640625 68.5 417.497070312 70 442.830078125 72 c 0
 468.163085938 74 484.830078125 75.3330078125 492.830078125 76 c 0
 493.497070312 76 496.6640625 76.1669921875 502.331054688 76.5 c 0
 507.998046875 76.8330078125 511.831054688 77 513.831054688 77 c 2
 523.831054688 77 l 2
 528.498046875 77 531.998046875 76.3330078125 534.331054688 75 c 0
 536.6640625 73.6669921875 539.331054688 72 542.331054688 70 c 0
 545.331054688 68 547.6640625 65.3330078125 549.331054688 62 c 0
 550.998046875 58.6669921875 552.165039062 54.6669921875 552.83203125 50 c 0
 553.499023438 42 553.166015625 33.5 551.833007812 24.5 c 0
 550.5 15.5 547 7.1669921875 541.333007812 -0.5 c 0
 535.666015625 -8.1669921875 528.499023438 -12 519.83203125 -12 c 0x78
EndSplineSet
Validated: 1
EndChar

StartChar: three
Encoding: 51 51 19
Width: 640
GlyphClass: 2
Flags: HMW
HStem: -23.9941 84 318.006 100 638.006 83.998
VStem: 427.02 99.0491 449.002 99.998
LayerCount: 2
Fore
SplineSet
549 199 m 0xe8
 549 130.333007812 527.830078125 76.0078125 485.497070312 36.0078125 c 0
 443.1640625 -3.9921875 383.6640625 -23.9921875 306.997070312 -23.9921875 c 0
 283.6640625 -23.9921875 260.33203125 -20.4921875 236.998046875 -13.4921875 c 0
 213.665039062 -6.4921875 193.498046875 2.5078125 176.498046875 13.5078125 c 0
 159.498046875 24.5078125 144.33203125 36.5078125 130.998046875 49.5078125 c 0
 117.666015625 62.5078125 107.33203125 75.3408203125 100 88.0078125 c 0
 94 99.5078125 91 110.2578125 91 120.2578125 c 0
 91 123.590820312 91.33203125 126.840820312 92 130.0078125 c 0
 94.666015625 142.674804688 102 151.674804688 114 157.0078125 c 0
 123.1953125 161.60546875 131.755859375 163.904296875 139.68359375 163.904296875 c 0
 143.25 163.904296875 146.689453125 163.438476562 150 162.5078125 c 0
 160.66796875 159.5078125 171.333984375 151.0078125 182.000976562 137.0078125 c 0
 196.66796875 117.0078125 215.3359375 99.1748046875 238.001953125 83.5078125 c 0
 260.668945312 67.8408203125 285.001953125 60.0078125 311.001953125 60.0078125 c 0
 351.001953125 60.0078125 384.001953125 71.3408203125 410.001953125 94.0078125 c 0
 436.001953125 116.674804688 449.001953125 146.0078125 449.001953125 182.0078125 c 0xe8
 449.001953125 204.0078125 445.668945312 223.0078125 439.001953125 239.0078125 c 0
 432.3359375 255.0078125 421.66796875 269.0078125 407.000976562 281.0078125 c 0
 392.333984375 293.0078125 372.16796875 302.174804688 346.5 308.5078125 c 0
 320.833007812 314.840820312 291 318.0078125 257 318.0078125 c 0
 243 318.0078125 230.833007812 323.5078125 220.5 334.5078125 c 0
 210.16796875 345.5078125 205 357.674804688 205 371.0078125 c 0
 205 385.0078125 208.66796875 396.340820312 216 405.0078125 c 0
 223.333007812 413.674804688 234 418.0078125 248 418.0078125 c 0
 304 418.0078125 348 429.174804688 380 451.5078125 c 0
 411.34765625 473.384765625 427.020507812 505.017578125 427.020507812 546.407226562 c 0
 427.020507812 547.26953125 427.013671875 548.13671875 427 549.0078125 c 0
 427.01953125 549.903320312 427.029296875 550.791992188 427.029296875 551.673828125 c 0
 427.029296875 580.333984375 416.51953125 601.778320312 395.5 616.006835938 c 0
 373.833007812 630.673828125 342.666015625 638.006835938 302 638.006835938 c 0
 294 638.006835938 286.166015625 637.173828125 278.5 635.506835938 c 0
 270.83203125 633.83984375 264.665039062 632.172851562 259.998046875 630.505859375 c 0
 255.33203125 628.838867188 250.33203125 626.005859375 244.998046875 622.005859375 c 0
 239.665039062 618.005859375 235.165039062 614.672851562 231.498046875 612.005859375 c 0
 227.83203125 609.338867188 223.83203125 605.005859375 219.498046875 599.005859375 c 0
 215.165039062 593.005859375 211.83203125 588.838867188 209.5 586.505859375 c 0
 207.166015625 584.172851562 204 579.33984375 200 572.006835938 c 0
 189.33203125 557.33984375 178.5 548.672851562 167.5 546.005859375 c 0
 164.356445312 545.244140625 161.118164062 544.86328125 157.78515625 544.86328125 c 0
 149.451171875 544.86328125 140.5234375 547.244140625 131 552.005859375 c 0
 119.666015625 557.338867188 112.833984375 566.171875 110.5 578.504882812 c 0
 109.896484375 581.702148438 109.59375 585.044921875 109.59375 588.533203125 c 0
 109.59375 598.500976562 112.0625 609.658203125 117.001953125 622.004882812 c 0
 123.66796875 635.337890625 132.3359375 647.504882812 143.001953125 658.504882812 c 0
 153.668945312 669.504882812 166.001953125 680.004882812 180.001953125 690.004882812 c 0
 194.001953125 700.004882812 211.168945312 707.837890625 231.501953125 713.504882812 c 0
 251.8359375 719.171875 273.66796875 722.004882812 297.000976562 722.004882812 c 0
 373.66796875 722.004882812 431.3359375 706.004882812 470.001953125 674.004882812 c 0
 507.379882812 643.071289062 526.0703125 597.809570312 526.0703125 538.21875 c 0xf0
 526.0703125 536.1640625 526.046875 534.092773438 526.00390625 532.00390625 c 0
 526.00390625 512.670898438 523.50390625 495.170898438 518.50390625 479.50390625 c 0
 513.50390625 463.836914062 506.669921875 450.50390625 498.00390625 439.50390625 c 0
 489.3359375 428.50390625 478.668945312 418.836914062 466.001953125 410.50390625 c 0
 453.3359375 402.170898438 440.501953125 395.670898438 427.501953125 391.00390625 c 0
 414.501953125 386.336914062 400.668945312 382.669921875 386.001953125 380.002929688 c 1
 413.3359375 374.002929688 436.66796875 366.669921875 456.000976562 358.002929688 c 0
 475.333984375 349.3359375 492.16796875 338.168945312 506.5 324.501953125 c 0
 520.833007812 310.834960938 531.5 293.66796875 538.5 273.000976562 c 0
 545.5 252.333984375 549 227.666992188 549 199 c 0xe8
EndSplineSet
Validated: 1
EndChar

StartChar: four
Encoding: 52 52 20
Width: 640
GlyphClass: 2
Flags: HMW
HStem: -23.001 21G 224.234 80.335
VStem: 387.003 87.4971 394.002 88.998 394.002 97.0561
LayerCount: 2
Fore
SplineSet
489 55 m 0xd0
 490.372070312 47.68359375 491.057617188 40.71875 491.057617188 34.107421875 c 0
 491.057617188 21.4423828125 488.540039062 10.072265625 483.502929688 -0.001953125 c 0
 475.8359375 -15.3349609375 464.668945312 -23.001953125 450.001953125 -23.001953125 c 0
 437.334960938 -23.001953125 425.001953125 -18.1689453125 413.001953125 -8.501953125 c 0
 401.001953125 1.1650390625 394.668945312 10.998046875 394.001953125 20.998046875 c 2
 394.001953125 59.998046875 l 1
 394.001953125 137.498046875 l 1xc8
 394.001953125 223.998046875 l 1xd0
 379.729492188 224.155273438 365.973632812 224.233398438 352.734375 224.233398438 c 0
 253.423828125 224.233398438 183.1796875 219.822265625 142.001953125 210.999023438 c 0
 131.334960938 208.999023438 121.66796875 209.33203125 113.000976562 211.999023438 c 0
 104.333984375 214.666015625 97.5009765625 219.333007812 92.5009765625 226 c 0
 87.5009765625 232.666992188 83.66796875 240.333984375 81.0009765625 249.000976562 c 0
 78.333984375 257.66796875 77.0009765625 266.66796875 77.0009765625 276.000976562 c 0
 77.0009765625 285.333984375 78.66796875 294.333984375 82.0009765625 303.000976562 c 0
 88.66796875 321.66796875 106.500976562 352.16796875 135.500976562 394.500976562 c 0
 164.500976562 436.833984375 202.16796875 489.166992188 248.500976562 551.5 c 0
 294.833984375 613.833007812 327.666992188 659 347 687 c 0
 355.666992188 699.666992188 365.5 709.166992188 376.5 715.5 c 0
 387.5 721.833007812 398 725 408 725 c 0
 410.423828125 725.2421875 412.809570312 725.36328125 415.15625 725.36328125 c 0
 425.71875 725.36328125 435.5 722.909179688 444.5 718 c 0
 455.5 712 462.333007812 701.666992188 465 687 c 0
 469 663.666992188 472.166992188 627.666992188 474.5 579 c 0xe0
 476.833007812 530.333007812 478.333007812 489.166015625 479 455.499023438 c 0
 479.666992188 421.83203125 480.666992188 370.999023438 482 302.999023438 c 1
 493.333007812 302.33203125 506 301.999023438 520 301.999023438 c 0
 535.333007812 301.999023438 546.166015625 298.499023438 552.499023438 291.499023438 c 0
 558.83203125 284.499023438 562.33203125 275.33203125 562.999023438 263.999023438 c 0
 562.999023438 234.666015625 548.666015625 219.999023438 519.999023438 219.999023438 c 0
 506.666015625 219.999023438 494.333007812 220.33203125 483 220.999023438 c 1
 484.333007812 123.666015625 486.333007812 68.3330078125 489 55 c 0xd0
387.001953125 601.997070312 m 1xe0
 288.334960938 472.6640625 221.334960938 372.330078125 186.001953125 300.997070312 c 1
 223.146484375 303.377929688 269.134765625 304.568359375 323.967773438 304.568359375 c 0
 345.897460938 304.568359375 369.2421875 304.377929688 394.001953125 303.997070312 c 1
 394.001953125 428.6640625 391.668945312 527.997070312 387.001953125 601.997070312 c 1xe0
EndSplineSet
Validated: 1
EndChar

StartChar: five
Encoding: 53 53 21
Width: 640
GlyphClass: 2
Flags: HMW
HStem: -18.001 83.998 419.997 89.0029 619 88.998 630 79.998
VStem: 92.598 93.405 99.998 88.0029 457.996 100.006
LayerCount: 2
Fore
SplineSet
558.001953125 296 m 0xda
 558.001953125 246.666992188 551.827148438 202.166015625 539.494140625 162.499023438 c 0
 527.162109375 122.83203125 509.828125 89.83203125 487.495117188 63.4990234375 c 0
 465.162109375 37.166015625 438.330078125 16.9990234375 406.99609375 2.9990234375 c 0
 375.663085938 -11.0009765625 341.330078125 -18.0009765625 303.998046875 -18.0009765625 c 0
 274.6640625 -18.0009765625 247.6640625 -15.0009765625 222.998046875 -9.0009765625 c 0
 198.330078125 -3.0009765625 177.663085938 5.33203125 160.99609375 15.9990234375 c 0
 144.330078125 26.666015625 130.330078125 37.8330078125 118.99609375 49.5 c 0
 107.6640625 61.1669921875 98.330078125 73.333984375 90.998046875 86.0009765625 c 0
 84.998046875 99.5009765625 81.998046875 111.125976562 81.998046875 120.875976562 c 0
 81.998046875 124.125976562 82.330078125 127.16796875 82.998046875 130.000976562 c 0
 85.6640625 141.333984375 92.6640625 150.000976562 103.998046875 156.000976562 c 0
 111.330078125 159.333984375 117.498046875 161.666992188 122.498046875 163 c 0
 127.498046875 164.333007812 132.998046875 164.666015625 138.998046875 163.999023438 c 0
 144.998046875 163.33203125 150.6640625 160.665039062 155.998046875 155.998046875 c 0
 161.330078125 151.331054688 166.998046875 144.6640625 172.998046875 135.997070312 c 0
 202.998046875 89.9970703125 243.6640625 66.6640625 294.998046875 65.9970703125 c 0
 344.998046875 65.9970703125 384.6640625 85.830078125 413.998046875 125.497070312 c 0
 443.330078125 165.1640625 457.998046875 218.331054688 457.998046875 284.998046875 c 0
 457.998046875 326.331054688 448.830078125 359.1640625 430.498046875 383.497070312 c 0
 412.1640625 407.830078125 383.998046875 419.997070312 345.998046875 419.997070312 c 0
 335.998046875 419.997070312 326.330078125 419.497070312 316.998046875 418.497070312 c 0
 307.6640625 417.497070312 299.6640625 416.1640625 292.998046875 414.497070312 c 0
 286.330078125 412.830078125 279.330078125 410.330078125 271.998046875 406.997070312 c 0
 264.6640625 403.6640625 258.831054688 400.997070312 254.498046875 398.997070312 c 0
 250.166015625 396.997070312 244.83203125 393.330078125 238.499023438 387.997070312 c 0
 232.166015625 382.6640625 227.999023438 378.997070312 225.999023438 376.997070312 c 0
 223.999023438 374.997070312 219.666015625 370.830078125 212.999023438 364.497070312 c 0
 206.33203125 358.1640625 202.33203125 354.331054688 200.999023438 352.998046875 c 0
 195.666015625 348.331054688 189.166015625 344.331054688 181.499023438 340.998046875 c 0
 173.83203125 337.665039062 165.33203125 335.498046875 155.999023438 334.498046875 c 0
 146.666015625 333.498046875 137.333984375 334.998046875 128 338.998046875 c 0
 116.66796875 343.665039062 108.16796875 353.998046875 102.5 369.998046875 c 0
 96.833984375 385.998046875 93.666015625 405.665039062 93 428.998046875 c 0
 92.732421875 438.331054688 92.599609375 447.530273438 92.599609375 456.596679688 c 0xda
 92.599609375 470.197265625 92.8984375 483.498046875 93.498046875 496.499023438 c 0
 94.498046875 518.166015625 95.83203125 541.499023438 97.498046875 566.499023438 c 0
 99.166015625 591.499023438 99.998046875 608.666015625 99.998046875 617.999023438 c 1
 94.666015625 626.666015625 91.33203125 636.499023438 90 647.499023438 c 0
 88.666015625 658.499023438 89.166015625 668.666015625 91.5 677.999023438 c 0
 93.83203125 687.33203125 98.5 695.33203125 105.5 701.999023438 c 0
 112.5 708.666015625 120.666015625 711.999023438 129.999023438 711.999023438 c 0
 154.666015625 711.999023438 212.833984375 711.33203125 304.5 709.999023438 c 0xd6
 396.166992188 708.666015625 466 707.999023438 514 707.999023438 c 0
 522.666992188 707.999023438 529.833984375 704.33203125 535.501953125 696.999023438 c 0
 541.16796875 689.666015625 544.834960938 681.333007812 546.501953125 672 c 0
 548.169921875 662.666992188 548.3359375 654 547.002929688 646 c 0
 546.3359375 641.333007812 545.169921875 637.333007812 543.501953125 634 c 0
 541.834960938 630.666992188 539.501953125 628.166992188 536.501953125 626.5 c 0
 533.501953125 624.833007812 530.834960938 623.333007812 528.501953125 622 c 0
 526.169921875 620.666992188 522.669921875 619.833984375 518.001953125 619.500976562 c 0
 513.334960938 619.16796875 510.001953125 619.000976562 508.001953125 619.000976562 c 0xe6
 506.001953125 619.000976562 502.169921875 619.333984375 496.501953125 620.000976562 c 0
 490.834960938 620.66796875 487.66796875 621.000976562 487.001953125 621.000976562 c 0
 477.66796875 621.000976562 461.001953125 622.000976562 437.001953125 624.000976562 c 0
 413.001953125 626.000976562 391.66796875 627.500976562 373.001953125 628.500976562 c 0
 354.333984375 629.500976562 328.333984375 630.000976562 295.001953125 630.000976562 c 0
 261.66796875 630.000976562 226.66796875 629.000976562 190.001953125 627.000976562 c 1
 190.001953125 620.333984375 189.333984375 601.000976562 188.001953125 569.000976562 c 0xd6
 186.66796875 537.000976562 185.834960938 513.833984375 185.501953125 499.500976562 c 0
 185.390625 494.727539062 185.334960938 489.270507812 185.334960938 483.129882812 c 0
 185.334960938 470.830078125 185.557617188 455.787109375 186.002929688 438 c 1
 204.669921875 458.666992188 230.002929688 475.666992188 262.002929688 489 c 0
 294.002929688 502.333007812 330.669921875 509 372.002929688 509 c 0
 401.3359375 509 427.8359375 503.5 451.502929688 492.5 c 0
 475.169921875 481.5 494.669921875 466.333007812 510.002929688 447 c 0
 525.3359375 427.666992188 537.169921875 405.166992188 545.501953125 379.5 c 0
 553.834960938 353.833007812 558.001953125 326 558.001953125 296 c 0xda
EndSplineSet
Validated: 1
EndChar

StartChar: six
Encoding: 54 54 22
Width: 640
GlyphClass: 2
Flags: HMW
HStem: -21.9971 84.0049 393.004 87.9961
VStem: 79.9672 91.0658 462.033 98<227.333 249.672>
LayerCount: 2
Fore
SplineSet
560.033203125 246 m 0
 560.033203125 208.666992188 553.866210938 173.502929688 541.533203125 140.502929688 c 0
 529.200195312 107.502929688 512.3671875 79.169921875 491.034179688 55.5029296875 c 0
 469.701171875 31.8359375 444.201171875 13.0029296875 414.534179688 -0.9970703125 c 0
 384.8671875 -14.9970703125 353.3671875 -21.9970703125 320.034179688 -21.9970703125 c 0
 278.701171875 -21.9970703125 242.701171875 -14.1640625 212.034179688 1.5029296875 c 0
 181.3671875 17.169921875 156.200195312 39.8369140625 136.533203125 69.50390625 c 0
 116.866210938 99.1708984375 102.366210938 134.670898438 93.033203125 176.00390625 c 0
 84.322265625 214.580078125 79.966796875 257.51171875 79.966796875 304.798828125 c 0
 79.966796875 308.177734375 79.9892578125 311.579101562 80.0341796875 315.002929688 c 0
 80.701171875 372.3359375 86.3681640625 424.002929688 97.03515625 470.002929688 c 0
 107.702148438 516.002929688 122.53515625 554.669921875 141.53515625 586.002929688 c 0
 160.53515625 617.3359375 184.03515625 643.8359375 212.03515625 665.502929688 c 0
 240.03515625 687.169921875 270.202148438 703.669921875 302.53515625 715.002929688 c 0
 334.868164062 726.3359375 370.701171875 733.668945312 410.034179688 737.001953125 c 0
 412.954101562 737.255859375 415.807617188 737.3828125 418.594726562 737.3828125 c 0
 430.442382812 737.3828125 441.088867188 735.088867188 450.534179688 730.500976562 c 0
 462.201171875 724.833984375 468.701171875 715.666992188 470.034179688 703 c 0
 470.701171875 695 466.701171875 686.166992188 458.034179688 676.5 c 0
 449.3671875 666.833007812 439.700195312 660.333007812 429.033203125 657 c 0
 421.700195312 655 410.533203125 652.333007812 395.533203125 649 c 0
 380.533203125 645.666992188 367.700195312 642.5 357.033203125 639.5 c 0
 346.366210938 636.5 333.69921875 632 319.032226562 626 c 0
 304.365234375 620 289.865234375 611.333007812 275.532226562 600 c 0
 261.19921875 588.666992188 247.032226562 575 233.032226562 559 c 0
 218.365234375 541.666992188 204.865234375 518 192.532226562 488 c 0
 180.19921875 458 172.366210938 431.333007812 169.033203125 408 c 1
 189.700195312 432.666992188 216.700195312 451 250.033203125 463 c 0
 283.366210938 475 320.366210938 481 361.033203125 481 c 0
 391.700195312 481 419.033203125 476.666992188 443.033203125 468 c 0
 467.033203125 459.333007812 487.866210938 445.666015625 505.533203125 426.999023438 c 0
 523.200195312 408.33203125 536.700195312 383.83203125 546.033203125 353.499023438 c 0
 555.366210938 323.166015625 560.033203125 287.333007812 560.033203125 246 c 0
171.033203125 230.002929688 m 0
 172.366210938 215.3359375 175.3671875 200.506835938 180.034179688 185.506835938 c 0
 184.701171875 170.506835938 191.201171875 155.33984375 199.534179688 140.006835938 c 0
 207.8671875 124.673828125 217.700195312 111.340820312 229.033203125 100.0078125 c 0
 240.366210938 88.6748046875 254.033203125 79.5078125 270.033203125 72.5078125 c 0
 286.033203125 65.5078125 303.033203125 62.0078125 321.033203125 62.0078125 c 0
 345.700195312 62.0078125 369.033203125 70.6748046875 391.033203125 88.0078125 c 0
 413.033203125 105.340820312 430.366210938 127.173828125 443.033203125 153.506835938 c 0
 455.700195312 179.83984375 462.033203125 206.672851562 462.033203125 234.005859375 c 0
 462.033203125 265.338867188 459.366210938 291.671875 454.033203125 313.004882812 c 0
 448.700195312 334.337890625 440.200195312 350.670898438 428.533203125 362.00390625 c 0
 416.866210938 373.336914062 403.69921875 381.336914062 389.032226562 386.00390625 c 0
 374.365234375 390.670898438 356.365234375 393.00390625 335.032226562 393.00390625 c 0
 301.69921875 393.00390625 270.366210938 384.336914062 241.033203125 367.00390625 c 0
 211.700195312 349.670898438 187.700195312 327.670898438 169.033203125 301.00390625 c 1
 169.033203125 272.336914062 169.700195312 248.669921875 171.033203125 230.002929688 c 0
EndSplineSet
Validated: 1
EndChar

StartChar: seven
Encoding: 55 55 23
Width: 640
GlyphClass: 2
Flags: HMW
HStem: -22.9443 21G 622.497 90.5
LayerCount: 2
Fore
SplineSet
219.741210938 26 m 0
 211.741210938 8.6669921875 201.236328125 -4.3349609375 188.236328125 -13.001953125 c 0
 178.294921875 -19.6298828125 168.451171875 -22.943359375 158.705078125 -22.943359375 c 0
 155.706054688 -22.943359375 152.715820312 -22.6298828125 149.735351562 -22.001953125 c 0
 135.735351562 -18.6689453125 125.90234375 -10.6689453125 120.235351562 1.998046875 c 0
 117.631835938 7.818359375 116.330078125 13.919921875 116.330078125 20.302734375 c 0
 116.330078125 27.8115234375 118.131835938 35.7099609375 121.735351562 43.998046875 c 0
 155.735351562 112.665039062 192.235351562 180.998046875 231.235351562 248.998046875 c 0
 270.235351562 316.998046875 302.568359375 371.165039062 328.235351562 411.498046875 c 0
 353.90234375 451.831054688 377.569335938 490.998046875 399.236328125 528.998046875 c 0
 420.903320312 566.998046875 435.403320312 597.998046875 442.736328125 621.998046875 c 1
 411.098632812 623.088867188 378.370117188 623.634765625 344.55078125 623.634765625 c 0
 316.370117188 623.634765625 287.431640625 623.255859375 257.736328125 622.498046875 c 0
 192.403320312 620.831054688 149.736328125 617.331054688 129.736328125 611.998046875 c 0
 121.736328125 609.998046875 114.569335938 610.331054688 108.236328125 612.998046875 c 0
 101.903320312 615.665039062 96.736328125 619.665039062 92.736328125 624.998046875 c 0
 88.736328125 630.331054688 85.736328125 635.998046875 83.736328125 641.998046875 c 0
 81.736328125 647.998046875 80.736328125 653.998046875 80.736328125 659.998046875 c 0
 80.736328125 671.998046875 83.736328125 681.498046875 89.736328125 688.498046875 c 0
 95.736328125 695.498046875 106.736328125 700.665039062 122.736328125 703.998046875 c 0
 147.403320312 708.665039062 181.5703125 711.665039062 225.237304688 712.998046875 c 0
 247.071289062 713.6640625 268.030273438 713.997070312 288.114257812 713.997070312 c 0
 308.198242188 713.997070312 327.407226562 713.6640625 345.740234375 712.998046875 c 0
 382.407226562 711.665039062 418.407226562 710.33203125 453.740234375 708.999023438 c 0
 489.073242188 707.666015625 508.073242188 706.999023438 510.740234375 706.999023438 c 0
 517.407226562 706.999023438 524.240234375 705.499023438 531.240234375 702.499023438 c 0
 538.240234375 699.499023438 544.573242188 694.666015625 550.240234375 687.999023438 c 0
 554.575195312 682.8984375 559.263671875 674.20703125 559.263671875 660.463867188 c 0
 559.263671875 650.153320312 556.088867188 638.331054688 549.739257812 624.997070312 c 0
 540.40625 604.997070312 523.573242188 574.830078125 499.240234375 534.497070312 c 0
 474.907226562 494.1640625 449.57421875 452.831054688 423.241210938 410.498046875 c 0
 396.908203125 368.165039062 364.908203125 311.83203125 327.241210938 241.499023438 c 0
 289.57421875 171.166015625 253.741210938 99.3330078125 219.741210938 26 c 0
EndSplineSet
Validated: 1
EndChar

StartChar: eight
Encoding: 56 56 24
Width: 640
GlyphClass: 2
Flags: W
HStem: -27.9922 85.9971<226.679 401.527> 646.004 72.001<242.915 376.632>
VStem: 73.998 85.998<120.066 256.492> 100.999 93.998<487.944 598.703> 431.997 90.002<483.938 592.01> 472.996 93.0059<121.363 264.134>
LayerCount: 2
Fore
SplineSet
566.001953125 204 m 0xc4
 566.001953125 182.666992188 563.1640625 161.338867188 557.497070312 140.005859375 c 0
 551.830078125 118.672851562 542.330078125 97.83984375 528.997070312 77.5068359375 c 0
 515.6640625 57.173828125 499.331054688 39.3408203125 479.998046875 24.0078125 c 0
 460.665039062 8.6748046875 435.998046875 -3.8251953125 405.998046875 -13.4921875 c 0
 375.998046875 -23.1591796875 342.665039062 -27.9921875 305.998046875 -27.9921875 c 0
 272.665039062 -27.9921875 242.33203125 -23.3251953125 214.999023438 -13.9921875 c 0
 187.666015625 -4.6591796875 165.499023438 7.173828125 148.499023438 21.5068359375 c 0
 131.499023438 35.83984375 117.166015625 53.0068359375 105.499023438 73.0068359375 c 0
 93.83203125 93.0068359375 85.6650390625 113.173828125 80.998046875 133.506835938 c 0
 76.3310546875 153.83984375 73.998046875 174.672851562 73.998046875 196.005859375 c 0xe4
 73.998046875 218.672851562 79.6650390625 243.005859375 90.998046875 269.005859375 c 0
 102.331054688 295.005859375 118.831054688 319.005859375 140.498046875 341.005859375 c 0
 162.165039062 363.005859375 186.33203125 378.338867188 212.999023438 387.005859375 c 1
 177.666015625 403.672851562 150.166015625 425.505859375 130.499023438 452.505859375 c 0
 110.83203125 479.505859375 100.999023438 507.005859375 100.999023438 535.005859375 c 0
 100.999023438 543.005859375 101.666015625 551.505859375 102.999023438 560.505859375 c 0
 104.33203125 569.505859375 106.83203125 580.172851562 110.499023438 592.505859375 c 0
 114.166015625 604.838867188 119.166015625 616.671875 125.499023438 628.004882812 c 0
 131.83203125 639.337890625 140.499023438 650.504882812 151.499023438 661.504882812 c 0
 162.499023438 672.504882812 174.999023438 682.171875 188.999023438 690.504882812 c 0
 202.999023438 698.837890625 220.499023438 705.504882812 241.499023438 710.504882812 c 0
 262.499023438 715.504882812 285.33203125 718.004882812 309.999023438 718.004882812 c 0
 335.999023438 718.004882812 359.499023438 715.504882812 380.499023438 710.504882812 c 0
 401.499023438 705.504882812 419.166015625 698.837890625 433.499023438 690.504882812 c 0
 447.83203125 682.171875 460.499023438 672.504882812 471.499023438 661.504882812 c 0
 482.499023438 650.504882812 490.999023438 639.337890625 496.999023438 628.004882812 c 0
 502.999023438 616.671875 507.999023438 604.671875 511.999023438 592.004882812 c 0
 515.999023438 579.337890625 518.666015625 568.170898438 519.999023438 558.50390625 c 0
 521.33203125 548.836914062 521.999023438 539.669921875 521.999023438 531.002929688 c 0xd8
 521.999023438 523.002929688 520.999023438 515.002929688 518.999023438 507.002929688 c 0
 516.999023438 499.002929688 514.33203125 492.002929688 510.999023438 486.002929688 c 0
 507.666015625 480.002929688 503.333007812 473.669921875 498 467.002929688 c 0
 492.666992188 460.3359375 487.666992188 454.668945312 483 450.001953125 c 0
 478.333007812 445.334960938 472.333007812 440.001953125 465 434.001953125 c 0
 457.666992188 428.001953125 451.833984375 423.501953125 447.500976562 420.501953125 c 0
 443.16796875 417.501953125 437.000976562 413.334960938 429.000976562 408.001953125 c 0
 421.000976562 402.668945312 415.66796875 399.001953125 413.000976562 397.001953125 c 1
 437.66796875 386.334960938 459.334960938 374.334960938 478.001953125 361.001953125 c 0
 496.668945312 347.668945312 511.501953125 334.501953125 522.501953125 321.501953125 c 0
 533.501953125 308.501953125 542.334960938 294.668945312 549.001953125 280.001953125 c 0
 555.668945312 265.334960938 560.168945312 252.16796875 562.501953125 240.500976562 c 0
 564.834960938 228.833984375 566.001953125 216.666992188 566.001953125 204 c 0xc4
194.997070312 538.004882812 m 0xd8
 194.997070312 516.004882812 205.1640625 496.504882812 225.497070312 479.504882812 c 0
 245.830078125 462.504882812 279.330078125 445.337890625 325.997070312 428.004882812 c 1
 353.997070312 439.337890625 378.6640625 454.670898438 399.997070312 474.00390625 c 0
 421.330078125 493.336914062 431.997070312 511.336914062 431.997070312 528.00390625 c 0
 431.997070312 546.670898438 426.6640625 565.00390625 415.997070312 583.00390625 c 0
 405.330078125 601.00390625 390.497070312 616.00390625 371.497070312 628.00390625 c 0
 352.497070312 640.00390625 331.997070312 646.00390625 309.997070312 646.00390625 c 0
 278.6640625 646.00390625 251.6640625 634.836914062 228.997070312 612.50390625 c 0
 206.330078125 590.170898438 194.997070312 565.337890625 194.997070312 538.004882812 c 0xd8
309.997070312 58.0048828125 m 0
 329.330078125 58.0048828125 348.662109375 60.8330078125 367.995117188 66.5 c 0
 387.328125 72.1669921875 404.828125 80.333984375 420.495117188 91.0009765625 c 0
 436.162109375 101.66796875 448.829101562 115.66796875 458.49609375 133.000976562 c 0
 468.163085938 150.333984375 472.99609375 168.666992188 472.99609375 188 c 0
 472.99609375 198.666992188 471.99609375 208.833984375 469.99609375 218.500976562 c 0
 467.99609375 228.16796875 463.99609375 239.334960938 457.99609375 252.001953125 c 0
 451.99609375 264.668945312 443.663085938 276.3359375 432.99609375 287.002929688 c 0
 422.329101562 297.669921875 407.49609375 308.836914062 388.49609375 320.50390625 c 0
 369.49609375 332.170898438 347.329101562 342.670898438 321.99609375 352.00390625 c 1
 273.99609375 339.336914062 234.99609375 317.336914062 204.99609375 286.00390625 c 0
 174.99609375 254.670898438 159.99609375 221.337890625 159.99609375 186.004882812 c 0xe4
 159.99609375 161.337890625 167.49609375 139.004882812 182.49609375 119.004882812 c 0
 197.49609375 99.0048828125 216.329101562 83.837890625 238.99609375 73.5048828125 c 0
 261.663085938 63.171875 285.330078125 58.0048828125 309.997070312 58.0048828125 c 0
EndSplineSet
Validated: 1
EndChar

StartChar: nine
Encoding: 57 57 25
Width: 640
GlyphClass: 2
Flags: HMW
HStem: -22.3812 21G 234.998 89 654.995 84.0049
VStem: 79.4688 98.0049 472.639 87.8928
LayerCount: 2
Fore
SplineSet
206.466796875 -22 m 0
 203.543945312 -22.25390625 200.686523438 -22.3828125 197.897460938 -22.3828125 c 0
 186.0546875 -22.3828125 175.416015625 -20.091796875 165.973632812 -15.5048828125 c 0
 154.306640625 -9.837890625 147.806640625 -0.6708984375 146.473632812 11.99609375 c 0
 145.806640625 20.6630859375 149.639648438 29.6630859375 157.97265625 38.99609375 c 0
 166.305664062 48.3291015625 176.138671875 54.662109375 187.471679688 57.9951171875 c 0
 194.8046875 59.9951171875 206.637695312 62.662109375 222.970703125 65.9951171875 c 0
 239.303710938 69.328125 253.970703125 72.828125 266.970703125 76.4951171875 c 0
 279.970703125 80.162109375 294.637695312 84.9951171875 310.970703125 90.9951171875 c 0
 327.303710938 96.9951171875 343.13671875 105.328125 358.469726562 115.995117188 c 0
 373.802734375 126.662109375 387.802734375 139.329101562 400.469726562 153.99609375 c 0
 417.13671875 173.329101562 431.969726562 195.829101562 444.969726562 221.49609375 c 0
 457.969726562 247.163085938 467.13671875 270.330078125 472.469726562 290.997070312 c 1
 453.802734375 269.6640625 429.802734375 254.997070312 400.469726562 246.997070312 c 0
 371.13671875 238.997070312 335.13671875 234.997070312 292.469726562 234.997070312 c 0
 263.13671875 234.997070312 235.13671875 241.830078125 208.469726562 255.497070312 c 0
 181.802734375 269.1640625 159.135742188 287.331054688 140.46875 309.998046875 c 0
 121.801757812 332.665039062 106.96875 358.83203125 95.96875 388.499023438 c 0
 84.96875 418.166015625 79.46875 448.333007812 79.46875 479 c 0
 79.46875 516.333007812 85.8017578125 551.166015625 98.46875 583.499023438 c 0
 111.135742188 615.83203125 128.135742188 643.33203125 149.46875 665.999023438 c 0
 170.801757812 688.666015625 196.134765625 706.499023438 225.467773438 719.499023438 c 0
 254.80078125 732.499023438 286.133789062 738.999023438 319.466796875 738.999023438 c 0
 401.466796875 738.999023438 462.466796875 707.999023438 502.466796875 645.999023438 c 0
 541.176757812 585.999023438 560.53125 500.711914062 560.53125 390.138671875 c 0
 560.53125 386.454101562 560.509765625 382.741210938 560.466796875 379 c 0
 559.799804688 325.666992188 553.1328125 277.5 540.465820312 234.5 c 0
 527.798828125 191.5 510.798828125 155 489.465820312 125 c 0
 468.1328125 95 442.6328125 69.3330078125 412.965820312 48 c 0
 383.298828125 26.6669921875 351.298828125 10.5 316.965820312 -0.5 c 0
 282.6328125 -11.5 245.799804688 -18.6669921875 206.466796875 -22 c 0
177.47265625 490.993164062 m 0
 177.47265625 436.326171875 189.302734375 394.829101562 212.969726562 366.49609375 c 0
 236.63671875 338.163085938 271.803710938 323.99609375 318.470703125 323.99609375 c 0
 347.803710938 323.99609375 376.470703125 330.663085938 404.470703125 343.99609375 c 0
 432.470703125 357.329101562 455.137695312 375.662109375 472.470703125 398.995117188 c 0
 472.58203125 402.21875 472.637695312 405.720703125 472.637695312 409.500976562 c 0
 472.637695312 428.388671875 471.249023438 454.219726562 468.471679688 486.994140625 c 0
 467.138671875 501.661132812 464.305664062 516.494140625 459.97265625 531.494140625 c 0
 455.639648438 546.494140625 449.139648438 561.661132812 440.47265625 576.994140625 c 0
 431.805664062 592.327148438 421.805664062 605.66015625 410.47265625 616.993164062 c 0
 399.139648438 628.326171875 385.47265625 637.493164062 369.47265625 644.493164062 c 0
 353.47265625 651.493164062 336.47265625 654.993164062 318.47265625 654.993164062 c 0
 293.805664062 654.993164062 270.47265625 646.993164062 248.47265625 630.993164062 c 0
 226.47265625 614.993164062 209.139648438 594.493164062 196.47265625 569.493164062 c 0
 183.805664062 544.493164062 177.47265625 518.326171875 177.47265625 490.993164062 c 0
EndSplineSet
Validated: 1
EndChar

StartChar: colon
Encoding: 58 58 26
Width: 640
GlyphClass: 2
Flags: HMW
HStem: 39.8998 155.096 306.91 155.09
VStem: 254.71 127.695
LayerCount: 2
Fore
SplineSet
382.041015625 417 m 0
 382.283203125 413 382.404296875 408.956054688 382.404296875 404.868164062 c 0
 382.404296875 386.470703125 379.951171875 367.1796875 375.041015625 346.997070312 c 0
 371.708984375 333.6640625 364.375 323.497070312 353.041992188 316.497070312 c 0
 342.694335938 310.106445312 332.625 306.91015625 322.833984375 306.91015625 c 0
 321.900390625 306.91015625 320.970703125 306.939453125 320.041992188 306.997070312 c 0
 280.041992188 308.997070312 258.708984375 324.330078125 256.041992188 352.997070312 c 0
 255.154296875 364.994140625 254.708984375 379.211914062 254.708984375 395.651367188 c 0
 254.708984375 403.876953125 254.8203125 412.659179688 255.04296875 421.997070312 c 0
 255.04296875 430.6640625 257.54296875 437.831054688 262.54296875 443.498046875 c 0
 267.54296875 449.165039062 273.709960938 453.33203125 281.04296875 455.999023438 c 0
 288.376953125 458.666015625 295.376953125 460.333007812 302.04296875 461 c 0
 308.709960938 461.666992188 315.04296875 462 321.04296875 462 c 0
 327.04296875 462 333.209960938 461.333007812 339.54296875 460 c 0
 345.876953125 458.666992188 352.208984375 456.5 358.541992188 453.5 c 0
 364.875 450.5 370.208984375 445.833007812 374.541015625 439.5 c 0
 378.874023438 433.166992188 381.374023438 425.666992188 382.041015625 417 c 0
383.041015625 149.997070312 m 0
 384.541015625 141.249023438 385.291015625 132.40625 385.291015625 123.469726562 c 0
 385.291015625 108.571289062 383.206054688 93.412109375 379.0390625 77.9931640625 c 0
 375.706054688 64.66015625 367.373046875 54.8271484375 354.041015625 48.494140625 c 0
 341.978515625 42.7646484375 330.733398438 39.8994140625 320.307617188 39.8994140625 c 0
 319.209960938 39.8994140625 318.12109375 39.931640625 317.041015625 39.9951171875 c 0
 303.708984375 40.662109375 290.708984375 44.8291015625 278.041015625 52.49609375 c 0
 265.374023438 60.1630859375 258.374023438 70.99609375 257.041015625 84.99609375 c 0
 256.374023438 98.99609375 255.874023438 107.829101562 255.541015625 111.49609375 c 0
 255.208984375 115.163085938 255.541015625 121.99609375 256.541015625 131.99609375 c 0
 257.541015625 141.99609375 258.041015625 149.663085938 258.041015625 154.99609375 c 0
 258.041015625 162.99609375 260.374023438 169.99609375 265.041015625 175.99609375 c 0
 269.708984375 181.99609375 275.541015625 186.163085938 282.541015625 188.49609375 c 0
 289.541015625 190.829101562 296.374023438 192.49609375 303.041015625 193.49609375 c 0
 309.708984375 194.49609375 316.041015625 194.99609375 322.041015625 194.99609375 c 0
 330.041015625 194.99609375 338.041015625 193.829101562 346.041015625 191.49609375 c 0
 354.041015625 189.163085938 361.708984375 184.330078125 369.041015625 176.997070312 c 0
 376.374023438 169.6640625 381.041015625 160.6640625 383.041015625 149.997070312 c 0
EndSplineSet
Validated: 1
EndChar

StartChar: semicolon
Encoding: 59 59 27
Width: 640
GlyphClass: 2
Flags: HMW
HStem: 264.912 155.087
VStem: 285.098 127.698
LayerCount: 2
Fore
SplineSet
412.432617188 375 m 0
 412.674804688 371.000976562 412.795898438 366.958984375 412.795898438 362.872070312 c 0
 412.795898438 344.473632812 410.340820312 325.182617188 405.431640625 304.999023438 c 0
 402.098632812 291.666015625 394.931640625 281.499023438 383.931640625 274.499023438 c 0
 373.888671875 268.108398438 363.706054688 264.912109375 353.384765625 264.912109375 c 0
 352.401367188 264.912109375 351.416992188 264.94140625 350.431640625 264.999023438 c 0
 341.764648438 265.666015625 332.931640625 267.499023438 323.931640625 270.499023438 c 0
 314.931640625 273.499023438 306.598632812 278.666015625 298.931640625 285.999023438 c 0
 291.264648438 293.33203125 287.09765625 301.999023438 286.430664062 311.999023438 c 0
 285.541992188 323.99609375 285.09765625 338.213867188 285.09765625 354.653320312 c 0
 285.09765625 362.87890625 285.208984375 371.661132812 285.431640625 380.999023438 c 0
 285.431640625 388.999023438 287.764648438 395.999023438 292.431640625 401.999023438 c 0
 297.098632812 407.999023438 303.265625 412.166015625 310.932617188 414.499023438 c 0
 318.599609375 416.83203125 325.932617188 418.499023438 332.932617188 419.499023438 c 0
 339.932617188 420.499023438 346.099609375 420.666015625 351.432617188 419.999023438 c 0
 357.432617188 419.999023438 363.432617188 419.499023438 369.432617188 418.499023438 c 0
 375.432617188 417.499023438 381.765625 415.33203125 388.432617188 411.999023438 c 0
 395.099609375 408.666015625 400.599609375 403.833007812 404.932617188 397.5 c 0
 409.265625 391.166992188 411.765625 383.666992188 412.432617188 375 c 0
393.431640625 74 m 0
 392.098632812 52.6669921875 370.431640625 -34.333984375 328.431640625 -187.000976562 c 0
 325.098632812 -201.000976562 318.265625 -211.16796875 307.932617188 -217.500976562 c 0
 298.583984375 -223.23046875 289.098632812 -226.095703125 279.4765625 -226.095703125 c 0
 278.462890625 -226.095703125 277.448242188 -226.063476562 276.431640625 -226 c 0
 263.098632812 -225.333007812 251.265625 -221 240.932617188 -213 c 0
 231.780273438 -205.9140625 227.204101562 -196.474609375 227.204101562 -184.681640625 c 0
 227.204101562 -172.114257812 235.10546875 -128.228515625 248.431640625 -63 c 0
 261.098632812 -1 271.098632812 46.3330078125 278.431640625 79 c 0
 280.431640625 89 283.431640625 97 287.431640625 103 c 0
 291.431640625 109 295.931640625 113 300.931640625 115 c 0
 305.931640625 117 311.264648438 118.333007812 316.931640625 119 c 0
 322.598632812 119.666992188 327.431640625 119.666992188 331.431640625 119 c 0
 337.431640625 119 343.931640625 118.166992188 350.931640625 116.5 c 0
 357.931640625 114.833007812 364.931640625 112.5 371.931640625 109.5 c 0
 378.931640625 106.5 384.431640625 102 388.431640625 96 c 0
 392.431640625 90 394.098632812 82.6669921875 393.431640625 74 c 0
EndSplineSet
Validated: 1
EndChar

StartChar: less
Encoding: 60 60 28
Width: 640
GlyphClass: 2
Flags: HMW
HStem: -12.3989 21G
LayerCount: 2
Fore
SplineSet
565.041015625 14 m 0
 561.708007812 7.3330078125 556.708007812 1.6689453125 550.041015625 -2.998046875 c 0
 543.374023438 -7.6650390625 534.541015625 -10.6650390625 523.541015625 -11.998046875 c 0
 521.341796875 -12.2646484375 519.041992188 -12.3974609375 516.642578125 -12.3974609375 c 0
 507.041992188 -12.3974609375 495.841796875 -10.2646484375 483.041015625 -5.998046875 c 0
 466.374023438 -0.6650390625 445.874023438 11.001953125 421.541015625 29.001953125 c 0
 397.208007812 47.001953125 370.875 68.501953125 342.541992188 93.501953125 c 0
 314.208984375 118.501953125 286.041992188 144.001953125 258.041992188 170.001953125 c 0
 230.041992188 196.001953125 200.541992188 222.834960938 169.541992188 250.501953125 c 0
 138.541992188 278.168945312 112.375 299.668945312 91.0419921875 315.001953125 c 0
 82.375 321.001953125 76.7080078125 330.001953125 74.041015625 342.001953125 c 0
 72.7861328125 347.6484375 72.158203125 353.184570312 72.158203125 358.610351562 c 0
 72.158203125 364.713867188 72.9521484375 370.677734375 74.5400390625 376.500976562 c 0
 77.5400390625 387.500976562 83.373046875 395.333984375 92.0400390625 400.000976562 c 0
 130.040039062 428.000976562 174.540039062 463.16796875 225.540039062 505.500976562 c 0
 276.540039062 547.833984375 323.20703125 586.166992188 365.540039062 620.5 c 0
 407.873046875 654.833007812 445.373046875 682 478.040039062 702 c 0
 488.70703125 708.666992188 498.540039062 712.166992188 507.540039062 712.5 c 0
 516.540039062 712.833007812 524.373046875 711.166015625 531.040039062 707.499023438 c 0
 537.70703125 703.83203125 543.540039062 699.33203125 548.540039062 693.999023438 c 0
 553.540039062 688.666015625 557.373046875 682.999023438 560.040039062 676.999023438 c 0
 562.673828125 672.0234375 563.991210938 667.015625 563.991210938 661.975585938 c 0
 563.991210938 655.536132812 561.840820312 649.043945312 557.540039062 642.499023438 c 0
 549.873046875 630.83203125 535.040039062 616.999023438 513.040039062 600.999023438 c 0
 475.70703125 574.999023438 418.874023438 532.33203125 342.541015625 472.999023438 c 0
 266.208007812 413.666015625 218.041015625 375.999023438 198.041015625 359.999023438 c 1
 224.041015625 339.999023438 252.708007812 315.83203125 284.041015625 287.499023438 c 0
 315.374023438 259.166015625 343.374023438 233.499023438 368.041015625 210.499023438 c 0
 392.708007812 187.499023438 419.041015625 163.999023438 447.041015625 139.999023438 c 0
 475.041015625 115.999023438 499.041015625 96.9990234375 519.041015625 82.9990234375 c 0
 540.374023438 68.9990234375 554.541015625 56.83203125 561.541015625 46.4990234375 c 0
 565.741210938 40.298828125 567.841796875 33.9189453125 567.841796875 27.359375 c 0
 567.841796875 22.986328125 566.908203125 18.533203125 565.041015625 14 c 0
EndSplineSet
Validated: 1
EndChar

StartChar: equal
Encoding: 61 61 29
Width: 640
GlyphClass: 2
Flags: HMW
HStem: 246.996 83 442.999 85.0725
LayerCount: 2
Fore
SplineSet
176.038085938 528 m 0
 214.038085938 526.666992188 253.206054688 525.99609375 293.540039062 525.99609375 c 0
 333.873046875 525.99609375 371.540039062 526.329101562 406.540039062 526.99609375 c 0
 441.540039062 527.663085938 462.373046875 527.99609375 469.040039062 527.99609375 c 0
 484.373046875 527.99609375 495.206054688 524.663085938 501.538085938 517.99609375 c 0
 507.872070312 511.329101562 511.372070312 502.329101562 512.038085938 490.99609375 c 0
 512.038085938 484.99609375 511.372070312 479.49609375 510.038085938 474.49609375 c 0
 508.706054688 469.49609375 506.706054688 464.663085938 504.038085938 459.99609375 c 0
 501.372070312 455.329101562 497.038085938 451.829101562 491.038085938 449.49609375 c 0
 485.038085938 447.163085938 477.706054688 446.330078125 469.038085938 446.997070312 c 0
 453.030273438 447.442382812 436.502929688 447.665039062 419.458007812 447.665039062 c 0
 410.947265625 447.665039062 402.307617188 447.609375 393.538085938 447.498046875 c 0
 367.205078125 447.165039062 330.705078125 446.33203125 284.038085938 444.999023438 c 0
 237.370117188 443.666015625 203.038085938 442.999023438 181.038085938 442.999023438 c 0
 164.370117188 442.999023438 151.370117188 446.999023438 142.038085938 454.999023438 c 0
 128.095703125 466.950195312 127.959960938 479.587890625 127.959960938 486.887695312 c 0
 127.959960938 498.295898438 131.653320312 508 139.038085938 516 c 0
 146.466796875 524.047851562 157.630859375 528.071289062 172.530273438 528.071289062 c 0
 173.677734375 528.071289062 174.846679688 528.047851562 176.038085938 528 c 0
179.040039062 329.99609375 m 0
 196.626953125 329.7734375 215.180664062 329.662109375 234.700195312 329.662109375 c 0
 273.635742188 329.662109375 316.416015625 330.10546875 363.041015625 330.993164062 c 0
 433.041015625 332.326171875 468.374023438 332.993164062 469.041015625 332.993164062 c 0
 484.374023438 332.993164062 495.206054688 329.493164062 501.540039062 322.493164062 c 0
 507.873046875 315.493164062 511.373046875 306.326171875 512.040039062 294.993164062 c 0
 512.040039062 288.993164062 511.373046875 283.493164062 510.040039062 278.493164062 c 0
 508.706054688 273.493164062 506.706054688 268.66015625 504.040039062 263.993164062 c 0
 501.373046875 259.326171875 497.040039062 255.826171875 491.040039062 253.493164062 c 0
 485.040039062 251.16015625 477.706054688 250.327148438 469.040039062 250.994140625 c 0
 453.032226562 251.439453125 436.357421875 251.662109375 419.014648438 251.662109375 c 0
 410.356445312 251.662109375 401.530273438 251.606445312 392.540039062 251.495117188 c 0
 365.540039062 251.162109375 328.373046875 250.329101562 281.040039062 248.99609375 c 0
 233.706054688 247.663085938 199.040039062 246.99609375 177.040039062 246.99609375 c 0
 160.373046875 246.99609375 148.040039062 251.163085938 140.040039062 259.49609375 c 0
 128.663085938 271.346679688 127.967773438 284.059570312 127.967773438 292.397460938 c 0
 127.967773438 302.677734375 131.991210938 311.376953125 140.040039062 318.49609375 c 0
 148.706054688 326.163085938 161.706054688 329.99609375 179.040039062 329.99609375 c 0
EndSplineSet
Validated: 1
EndChar

StartChar: greater
Encoding: 62 62 30
Width: 640
GlyphClass: 2
Flags: W
LayerCount: 2
Fore
SplineSet
161.842773438 5 m 0
 151.842773438 -1 142.174804688 -4.33203125 132.840820312 -4.9990234375 c 0
 123.5078125 -5.666015625 115.5078125 -4.166015625 108.840820312 -0.4990234375 c 0
 102.173828125 3.16796875 96.5068359375 7.66796875 91.83984375 13.0009765625 c 0
 87.1728515625 18.333984375 83.505859375 24.0009765625 80.8388671875 30.0009765625 c 0
 78.138671875 35.1005859375 76.7890625 40.234375 76.7890625 45.4013671875 c 0
 76.7890625 51.716796875 78.8056640625 58.0830078125 82.8388671875 64.5 c 0
 90.171875 76.1669921875 105.171875 90 127.838867188 106 c 0
 165.171875 132 221.838867188 174.666992188 297.838867188 234 c 0
 373.838867188 293.333007812 422.506835938 331 443.838867188 347 c 1
 417.838867188 367 388.671875 391.166992188 356.338867188 419.5 c 0
 324.006835938 447.833007812 295.838867188 473.5 271.838867188 496.5 c 0
 247.838867188 519.5 221.838867188 543 193.838867188 567 c 0
 165.838867188 591 141.171875 610 119.838867188 624 c 0
 98.505859375 638 84.3388671875 650.166992188 77.3388671875 660.5 c 0
 73.3662109375 666.364257812 71.3798828125 672.389648438 71.3798828125 678.576171875 c 0
 71.3798828125 683.290039062 72.533203125 688.09765625 74.83984375 692.998046875 c 0
 78.1728515625 699.665039062 83.005859375 705.33203125 89.3388671875 709.999023438 c 0
 95.671875 714.666015625 104.671875 717.666015625 116.338867188 718.999023438 c 0
 118.671875 719.265625 121.078125 719.3984375 123.557617188 719.3984375 c 0
 133.479492188 719.3984375 144.573242188 717.265625 156.838867188 712.999023438 c 0
 173.506835938 707.666015625 194.172851562 696.166015625 218.83984375 678.499023438 c 0
 243.506835938 660.83203125 270.006835938 639.33203125 298.33984375 613.999023438 c 0
 326.672851562 588.666015625 354.83984375 562.999023438 382.83984375 536.999023438 c 0
 410.83984375 510.999023438 440.172851562 484.33203125 470.83984375 456.999023438 c 0
 501.506835938 429.666015625 528.174804688 407.999023438 550.840820312 391.999023438 c 0
 558.840820312 385.999023438 564.174804688 376.999023438 566.840820312 364.999023438 c 0
 568.026367188 359.665039062 568.620117188 354.4296875 568.620117188 349.29296875 c 0
 568.620117188 342.874023438 567.694335938 336.609375 565.842773438 330.499023438 c 0
 562.508789062 319.499023438 556.842773438 311.666015625 548.842773438 306.999023438 c 0
 510.842773438 278.999023438 466.342773438 243.83203125 415.342773438 201.499023438 c 0
 364.342773438 159.166015625 317.674804688 120.833007812 275.342773438 86.5 c 0
 233.008789062 52.1669921875 195.17578125 25 161.842773438 5 c 0
EndSplineSet
Validated: 1
EndChar

StartChar: question
Encoding: 63 63 31
Width: 640
GlyphClass: 2
Flags: HMW
HStem: -14.5656 154.604 637.999 84.001
VStem: 216.326 163 428.328 99
LayerCount: 2
Fore
SplineSet
351.328125 262 m 0
 348.661132812 244.666992188 342.490234375 231.330078125 332.82421875 221.997070312 c 0
 326.37890625 215.775390625 318.083007812 212.6640625 307.935546875 212.6640625 c 0
 302.861328125 212.6640625 297.32421875 213.442382812 291.32421875 214.998046875 c 0
 272.657226562 219.665039062 260.32421875 228.33203125 254.32421875 240.999023438 c 0
 251.1484375 247.705078125 249.559570312 255.625 249.559570312 264.759765625 c 0
 249.559570312 272.879882812 250.814453125 281.959960938 253.32421875 291.999023438 c 0
 257.9921875 309.999023438 264.82421875 326.999023438 273.82421875 342.999023438 c 0
 282.82421875 358.999023438 292.657226562 372.666015625 303.32421875 383.999023438 c 0
 313.9921875 395.33203125 325.158203125 406.165039062 336.825195312 416.498046875 c 0
 348.4921875 426.831054688 359.66015625 436.498046875 370.326171875 445.498046875 c 0
 380.993164062 454.498046875 390.66015625 463.665039062 399.328125 472.998046875 c 0
 407.994140625 482.331054688 414.994140625 492.498046875 420.328125 503.498046875 c 0
 425.66015625 514.498046875 428.328125 526.331054688 428.328125 538.998046875 c 0
 428.328125 573.665039062 418.16015625 598.83203125 397.828125 614.499023438 c 0
 377.494140625 630.166015625 348.661132812 637.999023438 311.328125 637.999023438 c 0
 301.99609375 637.999023438 292.662109375 635.83203125 283.329101562 631.499023438 c 0
 273.99609375 627.166015625 265.829101562 622.333007812 258.829101562 617 c 0
 251.829101562 611.666992188 244.49609375 604.5 236.829101562 595.5 c 0
 229.162109375 586.5 223.162109375 578.833007812 218.829101562 572.5 c 0
 214.49609375 566.166992188 209.329101562 558.666992188 203.329101562 550 c 0
 197.329101562 541.333007812 191.662109375 534.5 186.329101562 529.5 c 0
 180.99609375 524.5 175.329101562 521.833007812 169.329101562 521.5 c 0
 163.329101562 521.166992188 157.99609375 521.5 153.329101562 522.5 c 0
 148.662109375 523.5 142.662109375 525.666992188 135.329101562 529 c 0
 123.99609375 535 116.829101562 543.666992188 113.829101562 555 c 0
 113.057617188 557.9140625 112.671875 561.048828125 112.671875 564.404296875 c 0
 112.671875 574.096679688 115.890625 585.62890625 122.329101562 599 c 0
 129.662109375 613 138.49609375 626.5 148.828125 639.5 c 0
 159.161132812 652.5 171.994140625 665.5 187.328125 678.5 c 0
 202.66015625 691.5 220.828125 702 241.828125 710 c 0
 262.828125 718 284.66015625 722 307.328125 722 c 0
 379.328125 722 433.994140625 705.333007812 471.328125 672 c 0
 508.66015625 638.666992188 527.328125 588.666992188 527.328125 522 c 0
 527.328125 504 524.494140625 487.666992188 518.828125 473 c 0
 513.16015625 458.333007812 505.66015625 445.666015625 496.328125 434.999023438 c 0
 486.994140625 424.33203125 476.494140625 414.33203125 464.828125 404.999023438 c 0
 453.16015625 395.666015625 441.16015625 386.333007812 428.828125 377 c 0
 416.494140625 367.666992188 405.161132812 358 394.828125 348 c 0
 384.49609375 338 375.328125 325.5 367.328125 310.5 c 0
 359.328125 295.5 353.99609375 279.333007812 351.328125 262 c 0
300.32421875 -14.00390625 m 0
 296.861328125 -14.3779296875 293.486328125 -14.5654296875 290.200195312 -14.5654296875 c 0
 270.083007812 -14.5654296875 253.291015625 -7.5478515625 239.82421875 6.4921875 c 0
 224.157226562 22.8251953125 216.32421875 41.9921875 216.32421875 63.9921875 c 0
 216.32421875 84.6591796875 224.82421875 102.326171875 241.82421875 116.993164062 c 0
 258.82421875 131.66015625 278.32421875 139.327148438 300.32421875 139.994140625 c 0
 301.361328125 140.0234375 302.390625 140.038085938 303.411132812 140.038085938 c 0
 325.33984375 140.038085938 343.309570312 133.190429688 357.32421875 119.495117188 c 0
 371.9921875 105.162109375 379.32421875 86.9951171875 379.32421875 64.9951171875 c 0
 379.32421875 43.662109375 372.157226562 25.8291015625 357.82421875 11.49609375 c 0
 343.4921875 -2.8369140625 324.32421875 -11.3369140625 300.32421875 -14.00390625 c 0
EndSplineSet
Validated: 1
EndChar

StartChar: at
Encoding: 64 64 32
Width: 640
GlyphClass: 2
Flags: HMW
HStem: -129.182 85.178 102.002 77.9951 118.002 79.9941 381 77.1335 612.994 90.0078
VStem: 62.0004 87.0029 185.001 76.999 366.999 80.002 505.003 72.998
LayerCount: 2
Fore
SplineSet
527.005859375 5 m 0xdf80
 523.673828125 -4.3330078125 520.166015625 -12.5009765625 516.499023438 -19.5009765625 c 0
 512.83203125 -26.5009765625 507.83203125 -35.16796875 501.499023438 -45.5009765625 c 0
 495.166015625 -55.833984375 488.499023438 -64.6669921875 481.499023438 -72 c 0
 474.499023438 -79.3330078125 465.33203125 -86.8330078125 453.999023438 -94.5 c 0
 442.666015625 -102.166992188 430.499023438 -108.5 417.499023438 -113.5 c 0
 404.499023438 -118.5 388.999023438 -122.5 370.999023438 -125.5 c 0
 356.272460938 -127.954101562 340.654296875 -129.181640625 324.142578125 -129.181640625 c 0
 320.471679688 -129.181640625 316.7578125 -129.12109375 312.999023438 -129 c 0
 277.666015625 -129 244.666015625 -120.333007812 213.999023438 -103 c 0
 183.33203125 -85.6669921875 156.83203125 -61.5 134.499023438 -30.5 c 0
 112.166015625 0.5 94.5 38.1669921875 81.5 82.5 c 0
 68.5 126.833007812 62 175.333007812 62 228 c 0
 62 286.666992188 66.5 341.333984375 75.5 392.000976562 c 0
 84.5 442.66796875 97.33203125 486.834960938 114 524.501953125 c 0
 130.666015625 562.168945312 150.333984375 594.501953125 173 621.501953125 c 0
 195.666992188 648.501953125 220.666992188 668.834960938 248 682.501953125 c 0
 275.333984375 696.168945312 304 703.001953125 334 703.001953125 c 0
 356.666992188 703.001953125 377 701.168945312 395 697.501953125 c 0
 413 693.834960938 430.5 687.834960938 447.5 679.501953125 c 0
 464.5 671.168945312 479.5 660.001953125 492.5 646.001953125 c 0
 505.5 632.001953125 517.5 614.501953125 528.5 593.501953125 c 0
 539.5 572.501953125 548.5 548.001953125 555.5 520.001953125 c 0
 562.5 492.001953125 568 459.001953125 572 421.001953125 c 0
 576 383.001953125 578 340.334960938 578 293.001953125 c 0
 578 269.001953125 576.166992188 246.168945312 572.5 224.501953125 c 0
 568.833984375 202.834960938 563.5 182.501953125 556.5 163.501953125 c 0
 549.5 144.501953125 539.166992188 129.501953125 525.5 118.501953125 c 0
 511.833984375 107.501953125 496 102.001953125 478 102.001953125 c 0xdf80
 430 102.001953125 403 130.001953125 397 186.001953125 c 1
 381.666992188 140.668945312 352.666992188 118.001953125 310 118.001953125 c 0
 270.666992188 118.001953125 240 130.334960938 218 155.001953125 c 0
 196 179.668945312 185 217.3359375 185 268.002929688 c 0
 185 293.3359375 187.833984375 316.668945312 193.5 338.001953125 c 0
 199.166992188 359.334960938 206.833984375 377.501953125 216.501953125 392.501953125 c 0
 226.16796875 407.501953125 237.501953125 420.168945312 250.501953125 430.501953125 c 0
 263.501953125 440.834960938 277.66796875 448.16796875 293.001953125 452.500976562 c 0
 306.2890625 456.255859375 319.827148438 458.133789062 333.616210938 458.133789062 c 0
 335.73828125 458.133789062 337.8671875 458.088867188 340.001953125 458 c 0
 356.001953125 457.333007812 372.001953125 453.666015625 388.001953125 446.999023438 c 0
 403.334960938 440.999023438 415.66796875 432.999023438 425.001953125 422.999023438 c 0
 434.333984375 412.999023438 436.666992188 403.999023438 432 395.999023438 c 0
 429.333984375 390.666015625 426.333984375 386.333007812 423 383 c 0
 419.666992188 379.666992188 415.666992188 377.333984375 411 376.000976562 c 0
 406.333984375 374.66796875 402 373.66796875 398 373.000976562 c 0
 394 372.333984375 389 372.500976562 383 373.500976562 c 0
 377 374.500976562 372.333984375 375.333984375 369 376.000976562 c 0
 365.666992188 376.66796875 360.666992188 378.000976562 354 380.000976562 c 0
 345.333984375 381.333984375 336.833984375 381.666992188 328.5 381 c 0
 320.166992188 380.333007812 312 377.5 304 372.5 c 0
 296 367.5 289 361.166992188 283 353.5 c 0
 277 345.833007812 272 335.666015625 268 322.999023438 c 0
 264 310.33203125 262 295.999023438 262 279.999023438 c 0
 262 271.33203125 262.5 263.165039062 263.5 255.498046875 c 0
 264.5 247.831054688 266.5 239.1640625 269.5 229.497070312 c 0
 272.5 219.830078125 277.166992188 212.163085938 283.5 206.49609375 c 0
 289.833984375 200.829101562 297.666015625 197.99609375 306.999023438 197.99609375 c 0xbf80
 328.33203125 197.99609375 343.33203125 206.163085938 351.999023438 222.49609375 c 0
 360.666015625 238.829101562 365.666015625 265.99609375 366.999023438 303.99609375 c 0
 366.999023438 314.663085938 375.666015625 323.330078125 392.999023438 329.997070312 c 0
 403.806640625 334.2421875 413.608398438 336.365234375 422.404296875 336.365234375 c 0
 428.802734375 336.365234375 434.666992188 335.2421875 440 332.997070312 c 0
 448.666992188 329.6640625 452.333984375 322.997070312 451.001953125 312.997070312 c 0
 448.333984375 289.44140625 447.001953125 269.3671875 447.001953125 252.774414062 c 0
 447.001953125 244.478515625 447.333984375 237.052734375 448.001953125 230.497070312 c 0
 450.001953125 210.830078125 453.333984375 197.497070312 458.001953125 190.497070312 c 0
 462.66796875 183.497070312 469.334960938 179.997070312 478.001953125 179.997070312 c 0
 483.334960938 179.997070312 488.001953125 184.330078125 492.001953125 192.997070312 c 0
 496.001953125 201.6640625 498.834960938 212.997070312 500.501953125 226.997070312 c 0
 502.169921875 240.997070312 503.3359375 253.330078125 504.002929688 263.997070312 c 0
 504.669921875 274.6640625 505.002929688 284.997070312 505.002929688 294.997070312 c 0
 505.002929688 328.997070312 503.502929688 360.330078125 500.502929688 388.997070312 c 0
 497.502929688 417.6640625 493.8359375 442.1640625 489.502929688 462.497070312 c 0
 485.169921875 482.830078125 479.337890625 501.163085938 472.00390625 517.49609375 c 0
 464.670898438 533.829101562 457.670898438 547.162109375 451.00390625 557.495117188 c 0
 444.337890625 567.828125 436.337890625 576.661132812 427.00390625 583.994140625 c 0
 417.670898438 591.327148438 409.50390625 596.827148438 402.50390625 600.494140625 c 0
 395.50390625 604.161132812 387.50390625 606.994140625 378.50390625 608.994140625 c 0
 369.50390625 610.994140625 362.670898438 612.161132812 358.00390625 612.494140625 c 0
 353.337890625 612.827148438 347.669921875 612.994140625 341.002929688 612.994140625 c 0
 314.3359375 612.994140625 289.502929688 604.661132812 266.502929688 587.994140625 c 0
 243.502929688 571.327148438 223.169921875 548.16015625 205.502929688 518.493164062 c 0
 187.8359375 488.826171875 174.002929688 451.993164062 164.002929688 407.993164062 c 0
 154.002929688 363.993164062 149.002929688 315.993164062 149.002929688 263.993164062 c 0
 149.002929688 218.66015625 152.3359375 177.827148438 159.002929688 141.494140625 c 0
 165.669921875 105.161132812 174.669921875 75.828125 186.002929688 53.4951171875 c 0
 197.3359375 31.162109375 210.502929688 12.3291015625 225.502929688 -3.00390625 c 0
 240.502929688 -18.3369140625 255.502929688 -29.00390625 270.502929688 -35.00390625 c 0
 285.502929688 -41.00390625 301.002929688 -44.00390625 317.002929688 -44.00390625 c 0
 334.3359375 -44.00390625 350.3359375 -42.3369140625 365.002929688 -39.00390625 c 0
 379.669921875 -35.6708984375 391.837890625 -31.6708984375 401.50390625 -27.00390625 c 0
 411.170898438 -22.3369140625 420.337890625 -16.00390625 429.005859375 -8.00390625 c 0
 437.671875 -0.00390625 444.338867188 7.3291015625 449.005859375 13.99609375 c 0
 453.673828125 20.6630859375 459.005859375 29.330078125 465.005859375 39.9970703125 c 0
 467.673828125 44.6640625 470.005859375 48.3310546875 472.005859375 50.998046875 c 0
 474.005859375 53.6650390625 476.338867188 56.83203125 479.005859375 60.4990234375 c 0
 481.673828125 64.166015625 484.005859375 66.8330078125 486.005859375 68.5 c 0
 488.005859375 70.1669921875 490.505859375 71.6669921875 493.505859375 73 c 0
 496.505859375 74.3330078125 499.505859375 75 502.505859375 75 c 0
 505.505859375 75 508.673828125 74.3330078125 512.005859375 73 c 0
 517.338867188 71 521.838867188 68.5 525.505859375 65.5 c 0
 529.173828125 62.5 532.005859375 58.5 534.005859375 53.5 c 0
 536.005859375 48.5 536.338867188 41.8330078125 535.005859375 33.5 c 0
 533.673828125 25.1669921875 531.005859375 15.6669921875 527.005859375 5 c 0xdf80
EndSplineSet
Validated: 1
EndChar

StartChar: A
Encoding: 65 65 33
Width: 640
GlyphClass: 2
Flags: HMW
HStem: -5.55122 21G 251 81.0059
VStem: 53.5711 90.5231
LayerCount: 2
Fore
SplineSet
144.094726562 41 m 2
 137.426757812 20.3330078125 128.094726562 6.6708984375 116.094726562 0.00390625 c 0
 109.427734375 -3.7001953125 102.658203125 -5.5517578125 95.78515625 -5.5517578125 c 0
 90.287109375 -5.5517578125 84.7236328125 -4.3671875 79.09375 -1.9970703125 c 0
 62.080078125 5.78125 53.5732421875 21.3564453125 53.5732421875 44.7294921875 c 0
 53.5732421875 53.4111328125 54.7470703125 63.1689453125 57.0947265625 74.0029296875 c 0
 61.0947265625 95.3359375 80.427734375 147.3359375 115.094726562 230.002929688 c 1
 103.094726562 238.002929688 97.0947265625 247.669921875 97.0947265625 259.002929688 c 0
 96.427734375 268.3359375 100.594726562 277.168945312 109.594726562 285.501953125 c 0
 118.594726562 293.834960938 130.426757812 300.334960938 145.094726562 305.001953125 c 1
 227.094726562 495.668945312 290.094726562 623.001953125 334.094726562 687.001953125 c 0
 344.094726562 700.334960938 352.926757812 710.001953125 360.594726562 716.001953125 c 0
 368.26171875 722.001953125 376.76171875 725.001953125 386.094726562 725.001953125 c 0
 388.397460938 725.244140625 390.661132812 725.365234375 392.887695312 725.365234375 c 0
 402.903320312 725.365234375 412.139648438 722.911132812 420.59375 718.001953125 c 0
 430.926757812 712.001953125 437.09375 701.668945312 439.09375 687.001953125 c 0
 453.09375 604.334960938 476.59375 487.16796875 509.59375 335.500976562 c 0
 542.59375 183.833984375 565.426757812 96.6669921875 578.09375 74 c 0
 583.649414062 63.443359375 586.426757812 53.697265625 586.426757812 44.76171875 c 0
 586.426757812 42.9755859375 586.31640625 41.2216796875 586.094726562 39.5 c 0
 584.76171875 29.1669921875 581.428710938 20.5 576.094726562 13.5 c 0
 570.762695312 6.5 564.4296875 1.3330078125 557.096679688 -2 c 0
 551.305664062 -4.4375 545.514648438 -5.65625 539.723632812 -5.65625 c 2
 519.094726562 -0.4990234375 l 2
 506.426757812 5.833984375 496.094726562 19.6669921875 488.094726562 41 c 0
 479.426757812 61.6669921875 462.760742188 131.666992188 438.09375 251 c 1
 352.760742188 247.666992188 276.426757812 240.666992188 209.094726562 230 c 1
 144.094726562 41 l 2
366.094726562 602.004882812 m 1
 336.76171875 557.337890625 295.094726562 462.671875 241.094726562 318.004882812 c 1
 309.094726562 326.004882812 369.426757812 330.671875 422.094726562 332.004882812 c 1
 366.094726562 602.004882812 l 1
EndSplineSet
Validated: 1
EndChar

StartChar: B
Encoding: 66 66 34
Width: 640
GlyphClass: 2
Flags: HMW
HStem: -22.9961 21G 297.004 72 630.004 78.999
VStem: 78.0005 96.4978 431.997 90.0384 465.998 98.001
LayerCount: 2
Fore
SplineSet
269 -14 m 0xf4
 257.66796875 -14.6669921875 244.998046875 -15.6640625 230.998046875 -16.9970703125 c 0
 216.998046875 -18.330078125 205.665039062 -19.330078125 196.998046875 -19.9970703125 c 2
 170.998046875 -21.9970703125 l 2
 162.33203125 -22.6640625 154.498046875 -22.9970703125 147.498046875 -22.9970703125 c 0
 140.498046875 -22.9970703125 133.998046875 -22.330078125 127.998046875 -20.9970703125 c 2
 123.998046875 -20.9970703125 l 2
 110.665039062 -20.9970703125 99.83203125 -16.4970703125 91.4990234375 -7.4970703125 c 0
 83.783203125 0.8359375 79.92578125 12.1689453125 79.92578125 26.5029296875 c 0
 79.92578125 33.943359375 82.25 48.533203125 82.25 135.748046875 c 0
 82.25 152.249023438 82.1669921875 170.333984375 82 190.002929688 c 0
 81.3330078125 268.669921875 80 349.669921875 78 433.002929688 c 0
 76.6669921875 477.669921875 76 507.669921875 76 523.002929688 c 0
 76 538.3359375 76.5 559.002929688 77.5 585.002929688 c 0
 78.5 611.002929688 79 629.002929688 79 639.002929688 c 0
 79.6669921875 657.002929688 84.5 670.502929688 93.5 679.502929688 c 0
 102.5 688.502929688 114 693.002929688 128 693.002929688 c 2
 133 693.002929688 l 2
 143.66796875 696.3359375 154.66796875 699.168945312 166 701.501953125 c 0
 177.333007812 703.834960938 187.833007812 705.501953125 197.5 706.501953125 c 0
 207.16796875 707.501953125 217.66796875 708.168945312 229 708.501953125 c 0
 240.333007812 708.834960938 249.166015625 709.001953125 255.5 709.001953125 c 2
 276 709.001953125 l 1
 287 709.001953125 l 2
 332.33203125 709.001953125 372.5 700.668945312 407.5 684.001953125 c 0
 442.5 667.334960938 470.166015625 643.16796875 490.5 611.500976562 c 0
 512.921875 576.581054688 522.03515625 537.415039062 522.03515625 496.803710938 c 0xf8
 522.03515625 459.928710938 513.5234375 428.161132812 496.5 401.500976562 c 0
 478.83203125 373.833984375 454.33203125 353.666992188 423 341 c 1
 445.666015625 333.666992188 467.5 322.833984375 488.5 308.500976562 c 0
 509.5 294.16796875 527.33203125 278.16796875 542 260.500976562 c 0
 556.666015625 242.833984375 564 226.333984375 564 211.000976562 c 0
 564 185.66796875 557.666015625 160.500976562 545 135.500976562 c 0
 532.33203125 110.500976562 513.83203125 87.66796875 489.5 67.0009765625 c 0
 465.166015625 46.333984375 433.833007812 28.6669921875 395.5 14 c 0
 357.16796875 -0.6669921875 315 -10 269 -14 c 0xf4
284.998046875 630.002929688 m 0
 248.998046875 630.002929688 213.998046875 625.668945312 179.998046875 617.001953125 c 1
 179.998046875 604.334960938 179.33203125 584.001953125 177.998046875 556.001953125 c 0
 176.665039062 528.001953125 175.665039062 498.334960938 174.998046875 467.001953125 c 0
 174.6640625 451.3359375 174.497070312 435.502929688 174.497070312 419.502929688 c 0
 174.497070312 403.502929688 174.6640625 387.3359375 174.998046875 371.002929688 c 1
 206.33203125 369.669921875 235.998046875 369.002929688 263.998046875 369.002929688 c 0
 283.998046875 369.002929688 302.33203125 370.669921875 318.998046875 374.002929688 c 0
 335.665039062 377.3359375 349.498046875 381.668945312 360.498046875 387.001953125 c 0
 371.498046875 392.334960938 381.498046875 398.834960938 390.498046875 406.501953125 c 0
 399.498046875 414.168945312 406.33203125 422.001953125 410.998046875 430.001953125 c 0
 415.665039062 438.001953125 419.665039062 446.834960938 422.998046875 456.501953125 c 0
 426.33203125 466.168945312 428.6640625 474.8359375 429.997070312 482.502929688 c 0
 431.330078125 490.169921875 431.997070312 498.336914062 431.997070312 507.00390625 c 0
 431.997070312 524.336914062 428.497070312 540.336914062 421.497070312 555.00390625 c 0
 414.497070312 569.670898438 405.830078125 581.50390625 395.497070312 590.50390625 c 0
 385.1640625 599.50390625 373.33203125 607.170898438 359.998046875 613.50390625 c 0
 346.665039062 619.836914062 333.665039062 624.169921875 320.998046875 626.502929688 c 0
 308.33203125 628.8359375 296.33203125 630.002929688 284.998046875 630.002929688 c 0
270.998046875 297.001953125 m 1
 222.33203125 297.001953125 190.998046875 296.66796875 176.998046875 296.000976562 c 1
 179.665039062 188.66796875 181.665039062 112.334960938 182.998046875 67.001953125 c 1
 190.33203125 67.001953125 202.498046875 67.3349609375 219.498046875 68.001953125 c 0
 236.498046875 68.6689453125 249.33203125 69.001953125 257.998046875 69.001953125 c 0
 288.665039062 70.3349609375 317.498046875 75.66796875 344.498046875 85.0009765625 c 0
 371.498046875 94.333984375 393.33203125 105.500976562 409.998046875 118.500976562 c 0
 426.665039062 131.500976562 440.165039062 145.16796875 450.498046875 159.500976562 c 0
 460.83203125 173.833984375 465.998046875 187.000976562 465.998046875 199.000976562 c 0xf4
 465.998046875 207.66796875 462.33203125 216.334960938 454.998046875 225.001953125 c 0
 447.665039062 233.668945312 436.498046875 242.668945312 421.498046875 252.001953125 c 0
 406.498046875 261.334960938 385.998046875 270.001953125 359.998046875 278.001953125 c 0
 333.998046875 286.001953125 304.33203125 292.334960938 270.998046875 297.001953125 c 1
EndSplineSet
Validated: 1
EndChar

StartChar: C
Encoding: 67 67 35
Width: 640
GlyphClass: 2
Flags: HMW
HStem: -31.0911 90.092 518.417 222.246 632.001 80.9961
VStem: 61.9985 100.998 475 103.001
LayerCount: 2
Fore
SplineSet
549.994140625 64 m 0xb8
 495.009765625 0.607421875 410.845703125 -31.091796875 297.490234375 -31.091796875 c 0
 294.01953125 -31.091796875 290.522460938 -31.0625 286.998046875 -31.0029296875 c 0
 259.666015625 -31.0029296875 233.666015625 -26.3359375 208.998046875 -17.0029296875 c 0
 184.331054688 -7.669921875 163.498046875 4.6630859375 146.498046875 19.99609375 c 0
 129.498046875 35.3291015625 114.33203125 53.162109375 100.998046875 73.4951171875 c 0
 87.666015625 93.828125 77.83203125 115.495117188 71.5 138.495117188 c 0
 65.166015625 161.495117188 62 184.662109375 62 207.995117188 c 0
 62 256.662109375 67 303.662109375 77 348.995117188 c 0
 87 394.328125 100.5 435.328125 117.5 471.995117188 c 0
 134.499023438 508.662109375 154.33203125 542.329101562 176.999023438 572.99609375 c 0
 199.666015625 603.663085938 223.833984375 629.163085938 249.5 649.49609375 c 0
 275.166992188 669.829101562 301.5 685.49609375 328.5 696.49609375 c 0
 355.5 707.49609375 381.333984375 712.99609375 406 712.99609375 c 0xb8
 430.666992188 712.99609375 453.333984375 710.329101562 474.001953125 704.99609375 c 1
 476.66796875 714.99609375 481.66796875 723.163085938 489.001953125 729.49609375 c 0
 496.333984375 735.829101562 505.001953125 739.329101562 515.001953125 739.99609375 c 0
 517.37109375 740.440429688 519.75 740.663085938 522.13671875 740.663085938 c 0
 530.490234375 740.663085938 538.944335938 737.940429688 547.5 732.49609375 c 0
 558.5 725.49609375 565.333984375 715.329101562 568 701.99609375 c 0
 570 691.99609375 572 682.163085938 574 672.49609375 c 0
 576 662.829101562 577.166992188 653.329101562 577.5 643.99609375 c 0
 577.833984375 634.663085938 578 626.99609375 578 620.99609375 c 2
 578 599.99609375 l 1
 578 584.99609375 l 2
 578 570.99609375 572.666992188 556.829101562 562 542.49609375 c 0
 551.333984375 528.163085938 540.666015625 520.330078125 529.999023438 518.997070312 c 0
 527.677734375 518.610351562 525.34765625 518.416992188 523.013671875 518.416992188 c 0xd8
 513.283203125 518.416992188 503.4453125 521.77734375 493.499023438 528.498046875 c 0
 481.166015625 536.831054688 474.999023438 547.998046875 474.999023438 561.998046875 c 0
 474.999023438 567.331054688 475.33203125 581.331054688 475.999023438 603.998046875 c 0
 475.33203125 604.665039062 472.166015625 606.83203125 466.498046875 610.499023438 c 0
 460.831054688 614.166015625 456.831054688 616.833007812 454.498046875 618.5 c 0
 452.166015625 620.166992188 448.33203125 622.333984375 442.999023438 625.000976562 c 0
 437.666015625 627.66796875 432.499023438 629.500976562 427.499023438 630.500976562 c 0
 422.499023438 631.500976562 417.666015625 632.000976562 412.999023438 632.000976562 c 0
 392.33203125 632.000976562 370.166015625 625.333984375 346.498046875 612.000976562 c 0
 322.831054688 598.66796875 300.1640625 579.66796875 278.498046875 555.000976562 c 0
 256.830078125 530.333984375 237.163085938 502.000976562 219.49609375 470.000976562 c 0
 201.830078125 438.000976562 187.99609375 401.833984375 177.99609375 361.500976562 c 0
 167.99609375 321.16796875 162.99609375 280.66796875 162.99609375 240.000976562 c 0
 162.99609375 210.66796875 168.663085938 182.000976562 179.99609375 154.000976562 c 0
 191.330078125 126.000976562 207.49609375 103.16796875 228.49609375 85.5009765625 c 0
 249.49609375 67.833984375 272.330078125 59.0009765625 296.99609375 59.0009765625 c 0
 318.330078125 59.0009765625 339.49609375 61.16796875 360.49609375 65.5009765625 c 0
 381.49609375 69.833984375 399.99609375 75.5009765625 415.99609375 82.5009765625 c 0
 431.99609375 89.5009765625 445.830078125 96.5009765625 457.49609375 103.500976562 c 0
 469.163085938 110.500976562 479.99609375 118.000976562 489.99609375 126.000976562 c 0
 498.663085938 132.000976562 506.163085938 136.66796875 512.49609375 140.000976562 c 0
 518.830078125 143.333984375 525.662109375 145.000976562 532.995117188 145.000976562 c 0
 540.328125 145.000976562 547.662109375 142.66796875 554.994140625 138.000976562 c 0
 566.21484375 129.2734375 571.826171875 119.234375 571.826171875 107.883789062 c 0
 571.826171875 94.95703125 564.548828125 80.3291015625 549.994140625 64 c 0xb8
EndSplineSet
Validated: 1
EndChar

StartChar: D
Encoding: 68 68 36
Width: 640
GlyphClass: 2
Flags: HMW
HStem: -31 85.998 694.001 20G
VStem: 60.1877 98.6278 64.8135 102.002 483.815 95.9971
LayerCount: 2
Fore
SplineSet
159.815429688 348 m 0xe8
 160.482421875 319.333007812 161.645507812 276.1640625 163.3125 218.497070312 c 0
 164.979492188 160.830078125 166.1484375 117.330078125 166.815429688 87.9970703125 c 1
 194.1484375 75.9970703125 222.813476562 67.4970703125 252.813476562 62.4970703125 c 0
 282.813476562 57.4970703125 316.813476562 54.9970703125 354.813476562 54.9970703125 c 0
 373.48046875 54.9970703125 391.147460938 61.1640625 407.814453125 73.4970703125 c 0
 424.481445312 85.830078125 438.1484375 101.830078125 448.815429688 121.497070312 c 0
 459.482421875 141.1640625 467.982421875 162.831054688 474.315429688 186.498046875 c 0
 480.6484375 210.165039062 483.815429688 233.33203125 483.815429688 255.999023438 c 0
 483.815429688 381.33203125 432.482421875 476.999023438 329.815429688 542.999023438 c 0
 293.1484375 566.33203125 240.815429688 590.33203125 172.815429688 614.999023438 c 1
 171.815429688 615.999023438 l 1
 170.815429688 615.999023438 l 1
 169.815429688 615.999023438 l 1
 168.815429688 616.999023438 l 1
 167.815429688 616.999023438 l 1
 166.815429688 616.999023438 l 1
 166.815429688 617.999023438 l 1xd8
 165.815429688 617.999023438 l 1
 164.815429688 617.999023438 l 1
 163.815429688 618.999023438 l 1
 162.815429688 618.999023438 l 1
 161.815429688 618.999023438 l 1
 160.815429688 619.999023438 l 1
 159.815429688 619.999023438 l 1
 158.815429688 619.999023438 l 1
 158.815429688 620.999023438 l 1
 157.958007812 583.854492188 157.529296875 545.9140625 157.529296875 507.177734375 c 0
 157.529296875 455.533203125 158.291015625 402.473632812 159.815429688 348 c 0xe8
355.814453125 -31.0009765625 m 0
 322.481445312 -31.0009765625 289.982421875 -29.5 258.315429688 -26.5 c 0
 226.6484375 -23.5 201.481445312 -20 182.814453125 -16 c 0
 164.147460938 -12 147.814453125 -8.3330078125 133.814453125 -5 c 0
 119.814453125 -1.6669921875 111.481445312 0 108.814453125 0 c 0
 95.4814453125 0 84.4814453125 4.5 75.814453125 13.5 c 0
 68.302734375 21.2998046875 64.546875 31.7294921875 64.546875 44.7880859375 c 0
 64.546875 46.796875 64.6357421875 48.8671875 64.8134765625 51 c 0xd8
 66.3134765625 74.9990234375 67.0634765625 112.965820312 67.0634765625 164.901367188 c 0
 67.0634765625 182.21484375 66.98046875 201.081054688 66.8134765625 221.5 c 0
 66.146484375 303.166992188 64.4794921875 391.666992188 61.8125 487 c 0
 61.1455078125 524.333007812 60.6455078125 548.833007812 60.3125 560.5 c 0
 60.2294921875 563.416015625 60.1875 566.73828125 60.1875 570.466796875 c 0xe8
 60.1875 581.654296875 60.5625 596.498046875 61.3125 614.999023438 c 0
 62.3125 639.666015625 62.8125 654.666992188 62.8125 660 c 0
 63.4794921875 678 68.4794921875 691.5 77.8125 700.5 c 0
 87.1455078125 709.5 98.8125 714 112.8125 714 c 0
 121.479492188 714 132.479492188 713.333007812 145.8125 712 c 0
 159.145507812 710.666992188 176.3125 708 197.3125 704 c 0
 218.3125 700 239.8125 694.5 261.8125 687.5 c 0
 283.8125 680.5 307.645507812 670.666992188 333.3125 658 c 0
 358.979492188 645.333007812 383.3125 630.666015625 406.3125 613.999023438 c 0
 429.3125 597.33203125 451.479492188 576.499023438 472.8125 551.499023438 c 0
 494.145507812 526.499023438 512.645507812 499.166015625 528.3125 469.499023438 c 0
 543.979492188 439.83203125 556.479492188 404.499023438 565.8125 363.499023438 c 0
 575.145507812 322.499023438 579.8125 278.33203125 579.8125 230.999023438 c 0
 579.8125 207.666015625 576.645507812 183.999023438 570.3125 159.999023438 c 0
 563.979492188 135.999023438 554.3125 112.499023438 541.3125 89.4990234375 c 0
 528.3125 66.4990234375 513.145507812 45.9990234375 495.8125 27.9990234375 c 0
 478.479492188 9.9990234375 457.646484375 -4.333984375 433.313476562 -15.0009765625 c 0
 408.98046875 -25.66796875 383.147460938 -31.0009765625 355.814453125 -31.0009765625 c 0
EndSplineSet
Validated: 1
EndChar

StartChar: E
Encoding: 69 69 37
Width: 640
GlyphClass: 2
Flags: HMW
HStem: -17.498 85.4132 -6.2352 90.7323 312.001 85.999 332.001 80.999 615.159 82.8417
VStem: 73.3136 97.4971
LayerCount: 2
Fore
SplineSet
516.30859375 -6 m 0x4c
 514.124023438 -5.87890625 511.376953125 -5.818359375 508.06640625 -5.818359375 c 0
 493.189453125 -5.818359375 466.939453125 -7.044921875 429.311523438 -9.4990234375 c 0
 383.311523438 -12.4990234375 332.811523438 -15.166015625 277.811523438 -17.4990234375 c 0
 248.1953125 -18.7548828125 222.009765625 -19.3828125 199.255859375 -19.3828125 c 0
 179.75390625 -19.3828125 162.772460938 -18.9208984375 148.311523438 -17.998046875 c 0
 132.978515625 -17.3310546875 117.645507812 -9.8310546875 102.3125 4.501953125 c 0
 86.9794921875 18.8349609375 77.9794921875 36.3349609375 75.3125 57.001953125 c 0
 73.3125 74.3349609375 72.3125 105.501953125 72.3125 150.501953125 c 0
 72.3125 195.501953125 72.6455078125 243.334960938 73.3125 294.001953125 c 0
 73.53515625 310.899414062 73.646484375 328.500976562 73.646484375 346.806640625 c 0
 73.646484375 383.391601562 73.2021484375 422.790039062 72.3134765625 465.001953125 c 0
 71.646484375 505.001953125 71.146484375 531.501953125 70.8134765625 544.501953125 c 0
 70.73046875 547.750976562 70.6884765625 551.385742188 70.6884765625 555.405273438 c 0
 70.6884765625 567.467773438 71.0634765625 583 71.8134765625 602.000976562 c 0
 72.8134765625 627.333984375 73.3134765625 643.000976562 73.3134765625 649.000976562 c 0
 73.98046875 667.000976562 78.98046875 680.66796875 88.3134765625 690.000976562 c 0
 97.646484375 699.333984375 109.313476562 704.000976562 123.313476562 704.000976562 c 0
 124.2265625 704.036132812 125.127929688 704.053710938 126.018554688 704.053710938 c 0
 142.040039062 704.053710938 154.471679688 698.369140625 163.313476562 687.000976562 c 1
 201.313476562 692.333984375 245.813476562 695.666992188 296.813476562 697 c 0
 322.313476562 697.666015625 346.35546875 697.999023438 368.938476562 697.999023438 c 0
 391.521484375 697.999023438 412.646484375 697.666015625 432.3125 697 c 0
 471.645507812 695.666992188 502.978515625 693.666992188 526.311523438 691 c 0
 542.311523438 689 553.311523438 685 559.311523438 679 c 0
 565.311523438 673 568.64453125 664.666992188 569.311523438 654 c 0
 569.311523438 648 568.64453125 642.333007812 567.311523438 637 c 0
 565.978515625 631.666992188 563.811523438 626.833984375 560.811523438 622.500976562 c 0
 557.811523438 618.16796875 553.311523438 614.66796875 547.311523438 612.000976562 c 0
 541.311523438 609.333984375 534.311523438 608.666992188 526.311523438 610 c 0
 480.137695312 613.438476562 433.692382812 615.158203125 386.975585938 615.158203125 c 0
 370.2890625 615.158203125 353.567382812 614.938476562 336.811523438 614.5 c 0
 273.14453125 612.833007812 218.64453125 608.666015625 173.311523438 601.999023438 c 1
 170.64453125 532.666015625 169.311523438 464.666015625 169.311523438 397.999023438 c 1xac
 217.978515625 397.999023438 284.311523438 400.499023438 368.311523438 405.499023438 c 0
 452.311523438 410.499023438 499.64453125 412.999023438 510.311523438 412.999023438 c 0
 525.64453125 412.999023438 536.477539062 409.666015625 542.810546875 402.999023438 c 0
 549.143554688 396.33203125 552.310546875 386.999023438 552.310546875 374.999023438 c 0
 552.310546875 346.318359375 538.92578125 331.977539062 512.157226562 331.977539062 c 0
 511.548828125 331.977539062 510.93359375 331.985351562 510.311523438 332 c 0x1c
 498.311523438 332 446.811523438 328.666992188 355.811523438 322 c 0
 264.811523438 315.333007812 202.978515625 312 170.311523438 312 c 1
 170.311523438 297.333007812 170.478515625 278.166015625 170.811523438 254.499023438 c 0
 171.14453125 230.83203125 171.477539062 210.499023438 171.810546875 193.499023438 c 0
 172.143554688 176.499023438 172.4765625 158.999023438 172.809570312 140.999023438 c 0
 173.142578125 122.999023438 173.809570312 108.166015625 174.809570312 96.4990234375 c 0
 175.809570312 84.83203125 177.309570312 76.6650390625 179.309570312 71.998046875 c 0
 189.420898438 69.275390625 211.387695312 67.9140625 245.208984375 67.9140625 c 0xac
 269.36328125 67.9140625 299.563476562 68.6083984375 335.809570312 69.9970703125 c 0
 422.809570312 73.330078125 478.642578125 77.6630859375 503.309570312 82.99609375 c 0
 512.642578125 84.3291015625 520.642578125 84.8291015625 527.309570312 84.49609375 c 0
 533.9765625 84.1630859375 539.809570312 82.830078125 544.809570312 80.4970703125 c 0
 549.809570312 78.1640625 553.809570312 75.6640625 556.809570312 72.9970703125 c 0
 559.809570312 70.330078125 562.142578125 66.830078125 563.809570312 62.4970703125 c 0
 565.4765625 58.1640625 566.809570312 54.3310546875 567.809570312 50.998046875 c 0
 568.809570312 47.6650390625 569.309570312 44.33203125 569.309570312 40.9990234375 c 0
 569.309570312 28.33203125 564.809570312 16.9990234375 555.809570312 6.9990234375 c 0
 547.868164062 -1.82421875 536.682617188 -6.2353515625 522.252929688 -6.2353515625 c 0
 520.329101562 -6.2353515625 518.34765625 -6.1572265625 516.30859375 -6 c 0x4c
EndSplineSet
Validated: 1
EndChar

StartChar: F
Encoding: 70 70 38
Width: 640
GlyphClass: 2
Flags: HMW
HStem: -21.0722 21G 322.534 84.6107 621.784 84.7164 694.192 20G
VStem: 75.2351 103.262 77.7521 93.745
LayerCount: 2
Fore
SplineSet
178.497070312 24 m 0xe8
 177.1640625 10 170.669921875 -1.166015625 159.002929688 -9.4990234375 c 0
 148.200195312 -17.21484375 136.112304688 -21.072265625 122.73828125 -21.072265625 c 0
 121.66796875 -21.072265625 120.588867188 -21.0478515625 119.501953125 -20.998046875 c 0
 106.168945312 -20.998046875 95.1689453125 -16.498046875 86.501953125 -7.498046875 c 0
 78.990234375 0.302734375 75.234375 10.732421875 75.234375 23.791015625 c 0xe8
 75.234375 25.7998046875 75.3232421875 27.8701171875 75.5009765625 30.0029296875 c 0
 77.0009765625 52.001953125 77.7509765625 89.09375 77.7509765625 141.279296875 c 0
 77.7509765625 158.676757812 77.66796875 177.750976562 77.5009765625 198.502929688 c 0
 76.833984375 281.502929688 75.1669921875 367.002929688 72.5 455.002929688 c 0
 71.1669921875 499.669921875 70.5 529.669921875 70.5 545.002929688 c 0
 70.5 560.3359375 71 581.002929688 72 607.002929688 c 0
 73 633.002929688 73.5 650.669921875 73.5 660.002929688 c 0
 74.1669921875 678.002929688 79.1669921875 691.502929688 88.5 700.502929688 c 0
 97.8330078125 709.502929688 109.5 714.002929688 123.5 714.002929688 c 0
 125.213867188 714.129882812 126.888671875 714.193359375 128.524414062 714.193359375 c 0xd4
 144.063476562 714.193359375 156.055664062 708.462890625 164.5 697.001953125 c 1
 229.833007812 701.668945312 296 704.668945312 363 706.001953125 c 0
 379.749023438 706.334960938 395.73828125 706.501953125 410.966796875 706.501953125 c 0
 456.655273438 706.501953125 495.5 705.001953125 527.500976562 702.001953125 c 0
 542.833984375 700.668945312 553.666992188 696.8359375 560 690.502929688 c 0
 566.333007812 684.169921875 569.5 675.336914062 569.5 664.00390625 c 0
 569.5 651.336914062 565.833007812 640.669921875 558.5 632.002929688 c 0
 551.166992188 623.3359375 539.5 619.002929688 523.5 619.002929688 c 0
 486.166992188 620.857421875 447.704101562 621.78515625 408.112304688 621.78515625 c 0
 333.877929688 621.78515625 255.673828125 618.524414062 173.5 612.002929688 c 1
 173.5 600.669921875 173.166992188 582.502929688 172.5 557.502929688 c 0
 171.833007812 532.502929688 171.166015625 507.002929688 170.499023438 481.002929688 c 0
 170.165039062 468.002929688 169.998046875 454.919921875 169.998046875 441.752929688 c 0
 169.998046875 428.5859375 170.165039062 415.3359375 170.499023438 402.001953125 c 1
 200.783203125 405.430664062 234.005859375 407.145507812 270.166992188 407.145507812 c 0
 276.1953125 407.145507812 282.305664062 407.09765625 288.498046875 407.001953125 c 0
 331.831054688 406.334960938 371.1640625 404.501953125 406.497070312 401.501953125 c 0
 441.830078125 398.501953125 469.497070312 395.334960938 489.497070312 392.001953125 c 0
 505.497070312 389.334960938 516.497070312 385.001953125 522.497070312 379.001953125 c 0
 528.497070312 373.001953125 531.830078125 364.668945312 532.497070312 354.001953125 c 0
 532.497070312 348.001953125 531.997070312 342.501953125 530.997070312 337.501953125 c 0
 529.997070312 332.501953125 528.1640625 327.668945312 525.497070312 323.001953125 c 0
 522.830078125 318.334960938 518.497070312 314.834960938 512.497070312 312.501953125 c 0
 506.497070312 310.168945312 498.830078125 309.3359375 489.497070312 310.002929688 c 0
 468.830078125 313.3359375 440.497070312 316.168945312 404.497070312 318.501953125 c 0
 368.497070312 320.834960938 327.997070312 322.16796875 282.997070312 322.500976562 c 0
 280 322.5234375 277.038085938 322.534179688 274.110351562 322.534179688 c 0
 233.081054688 322.534179688 198.875976562 320.356445312 171.497070312 316 c 1xe4
 175.497070312 139.333007812 177.830078125 42 178.497070312 24 c 0xe8
EndSplineSet
Validated: 1
EndChar

StartChar: G
Encoding: 71 71 39
Width: 640
GlyphClass: 2
Flags: HMW
HStem: -31.0616 90.0616 278 81.8571 643.002 80.999
VStem: 60.665 100.001
LayerCount: 2
Fore
SplineSet
548.669921875 244 m 0
 547.336914062 230 543.162109375 213.669921875 536.162109375 195.002929688 c 0
 529.162109375 176.3359375 520.495117188 156.502929688 510.162109375 135.502929688 c 0
 499.829101562 114.502929688 486.49609375 94.169921875 470.163085938 74.5029296875 c 0
 453.830078125 54.8359375 436.663085938 37.0029296875 418.663085938 21.0029296875 c 0
 400.663085938 5.0029296875 379.663085938 -7.830078125 355.663085938 -17.4970703125 c 0
 333.211914062 -26.5400390625 311.052734375 -31.0615234375 289.185546875 -31.0615234375 c 0
 287.676757812 -31.0615234375 286.168945312 -31.0400390625 284.663085938 -30.9970703125 c 0
 257.330078125 -30.9970703125 231.497070312 -26.330078125 207.1640625 -16.9970703125 c 0
 182.831054688 -7.6640625 161.998046875 4.6689453125 144.665039062 20.001953125 c 0
 127.33203125 35.3349609375 112.165039062 53.16796875 99.1650390625 73.5009765625 c 0
 86.1650390625 93.833984375 76.498046875 115.500976562 70.1650390625 138.500976562 c 0
 63.83203125 161.500976562 60.6650390625 184.66796875 60.6650390625 208.000976562 c 0
 60.6650390625 257.333984375 65.498046875 305.333984375 75.1650390625 352.000976562 c 0
 84.83203125 398.66796875 98.33203125 440.66796875 115.665039062 478.000976562 c 0
 132.998046875 515.333984375 152.998046875 549.500976562 175.665039062 580.500976562 c 0
 198.33203125 611.500976562 222.499023438 637.500976562 248.166015625 658.500976562 c 0
 273.833007812 679.500976562 300 695.66796875 326.666992188 707.000976562 c 0
 353.333984375 718.333984375 379.000976562 724.000976562 403.66796875 724.000976562 c 0
 431.66796875 724.000976562 462.834960938 717.500976562 497.16796875 704.500976562 c 0
 531.500976562 691.500976562 554.000976562 680.333984375 564.66796875 671.000976562 c 0
 574.446289062 661.22265625 579.334960938 649.518554688 579.334960938 635.888671875 c 0
 579.334960938 629.07421875 578.11328125 621.778320312 575.668945312 614.000976562 c 0
 573.001953125 605.333984375 566.668945312 599.000976562 556.668945312 595.000976562 c 0
 551.668945312 593.000976562 546.501953125 592.000976562 541.168945312 592.000976562 c 0
 535.8359375 592.000976562 530.3359375 593.000976562 524.669921875 595.000976562 c 0
 520.669921875 596.333984375 511.502929688 601.333984375 497.169921875 610.000976562 c 0
 482.836914062 618.66796875 468.169921875 626.334960938 453.169921875 633.001953125 c 0
 438.169921875 639.668945312 424.336914062 643.001953125 411.669921875 643.001953125 c 0
 391.002929688 643.001953125 368.8359375 636.168945312 345.168945312 622.501953125 c 0
 321.501953125 608.834960938 298.834960938 589.16796875 277.16796875 563.500976562 c 0
 255.500976562 537.833984375 235.833984375 508.666992188 218.166992188 476 c 0
 200.5 443.333007812 186.5 406.333007812 176.166992188 365 c 0
 165.833984375 323.666992188 160.666992188 282 160.666992188 240 c 0
 160.666992188 210.666992188 166.333984375 182 177.666992188 154 c 0
 189 126 205.166992188 103.166992188 226.166992188 85.5 c 0
 247.166992188 67.8330078125 270.333984375 59 295.666992188 59 c 0
 311.666992188 59 328.166992188 64.1669921875 345.166992188 74.5 c 0
 362.166992188 84.8330078125 377.333984375 98 390.666992188 114 c 0
 404 130 416.5 148 428.166992188 168 c 0
 439.833984375 188 449.833984375 207.333007812 458.166992188 226 c 0
 466.5 244.666992188 473 262 477.666992188 278 c 1
 435.666992188 276 394.5 272.333007812 354.166992188 267 c 0
 313.833984375 261.666992188 286.000976562 254.666992188 270.66796875 246 c 0
 265.299804688 243.158203125 260.043945312 241.737304688 254.900390625 241.737304688 c 0
 249.184570312 241.737304688 243.607421875 243.491210938 238.168945312 247 c 0
 227.8359375 253.666992188 222.002929688 262.666992188 220.669921875 274 c 0
 220.1796875 277.1015625 219.934570312 280.118164062 219.934570312 283.05078125 c 0
 219.934570312 304.064453125 232.512695312 320.713867188 257.668945312 333 c 0
 276.3359375 342.333007812 317.168945312 349.5 380.168945312 354.5 c 0
 425.168945312 358.071289062 463.111328125 359.857421875 493.99609375 359.857421875 c 0
 506.349609375 359.857421875 517.57421875 359.571289062 527.668945312 359 c 0
 544.3359375 358.333007812 555.8359375 355.5 562.168945312 350.5 c 0
 568.501953125 345.5 573.001953125 337.666992188 575.668945312 327 c 0
 576.024414062 323.7109375 576.202148438 320.587890625 576.202148438 317.630859375 c 0
 576.202148438 298.41015625 568.69140625 286.200195312 553.669921875 281 c 0
 553.669921875 279 552.836914062 273.666992188 551.169921875 265 c 0
 549.502929688 256.333007812 548.669921875 249.333007812 548.669921875 244 c 0
EndSplineSet
Validated: 1
EndChar

StartChar: H
Encoding: 72 72 40
Width: 640
GlyphClass: 2
Flags: HMW
HStem: -21.0741 21G 311.999 86.001 694.074 20G
VStem: 87.63 98.002 458.723 99.5773
LayerCount: 2
Fore
SplineSet
551.633789062 24 m 0
 550.30078125 10 543.799804688 -1.169921875 532.1328125 -9.5029296875 c 0
 521.329101562 -17.21875 509.528320312 -21.076171875 496.725585938 -21.076171875 c 0
 495.700195312 -21.076171875 494.668945312 -21.0517578125 493.6328125 -21.001953125 c 0
 480.299804688 -21.001953125 469.299804688 -16.501953125 460.6328125 -7.501953125 c 0
 453.12109375 0.2978515625 449.364257812 10.7275390625 449.364257812 23.7861328125 c 0
 449.364257812 25.794921875 449.454101562 27.865234375 449.631835938 29.998046875 c 0
 455.692382812 114.237304688 458.72265625 207.841796875 458.72265625 310.811523438 c 0
 458.72265625 321.11328125 458.692382812 331.508789062 458.631835938 341.998046875 c 1
 447.297851562 341.331054688 406.465820312 336.1640625 336.1328125 326.497070312 c 0
 265.799804688 316.830078125 215.6328125 311.997070312 185.6328125 311.997070312 c 1
 185.6328125 309.997070312 185.465820312 306.497070312 185.1328125 301.497070312 c 0
 184.799804688 296.497070312 184.6328125 292.997070312 184.6328125 290.997070312 c 0
 182.6328125 257.997070312 181.6328125 219.247070312 181.6328125 174.747070312 c 0
 181.6328125 130.247070312 182.6328125 79.9970703125 184.6328125 23.9970703125 c 0
 183.299804688 9.9970703125 176.6328125 -1.169921875 164.6328125 -9.5029296875 c 0
 153.522460938 -17.21875 141.5546875 -21.076171875 128.729492188 -21.076171875 c 0
 127.703125 -21.076171875 126.670898438 -21.0517578125 125.633789062 -21.001953125 c 0
 112.30078125 -21.001953125 101.30078125 -16.501953125 92.6337890625 -7.501953125 c 0
 85.1220703125 0.298828125 81.3662109375 10.728515625 81.3662109375 23.787109375 c 0
 81.3662109375 25.7958984375 81.455078125 27.8662109375 81.6328125 29.9990234375 c 0
 82.2998046875 39.33203125 82.7998046875 54.33203125 83.1328125 74.9990234375 c 0
 83.4658203125 95.666015625 83.6328125 123.333007812 83.6328125 158 c 0
 83.6328125 192.666992188 83.9658203125 224 84.6328125 252 c 0
 84.6328125 274.666992188 85.2998046875 307.166992188 86.6328125 349.5 c 0
 87.9658203125 391.833007812 88.798828125 423.166015625 89.1318359375 443.499023438 c 0
 89.2431640625 450.270507812 89.298828125 458.168945312 89.298828125 467.1953125 c 0
 89.298828125 485.2734375 89.076171875 507.875 88.630859375 535 c 0
 87.9638671875 565 87.630859375 584.166992188 87.630859375 592.5 c 0
 87.630859375 600.833007812 87.9638671875 612.333007812 88.630859375 627 c 0
 89.2978515625 641.666992188 89.96484375 652.666992188 90.6318359375 660 c 0
 91.298828125 678 96.1318359375 691.5 105.131835938 700.5 c 0
 114.131835938 709.5 125.631835938 714 139.631835938 714 c 0
 140.71875 714.049804688 141.791992188 714.07421875 142.8515625 714.07421875 c 0
 156.088867188 714.07421875 167.182617188 710.216796875 176.1328125 702.500976562 c 0
 185.799804688 694.16796875 190.6328125 681.000976562 190.6328125 663.000976562 c 0
 190.6328125 656.333984375 189.799804688 642.000976562 188.1328125 620.000976562 c 0
 186.465820312 598.000976562 185.6328125 577.66796875 185.6328125 559.000976562 c 0
 185.6328125 541.66796875 185.965820312 515.16796875 186.6328125 479.500976562 c 0
 187.299804688 443.833984375 187.6328125 416.666992188 187.6328125 398 c 1
 222.299804688 398 257.965820312 400 294.633789062 404 c 0
 331.30078125 408 364.633789062 412 394.633789062 416 c 0
 424.633789062 420 445.633789062 422.666992188 457.633789062 424 c 1
 457.633789062 428.666992188 457.30078125 435.5 456.633789062 444.5 c 0
 455.965820312 453.5 455.633789062 460.333007812 455.633789062 465 c 0
 454.965820312 506.333007812 454.633789062 533.666015625 454.633789062 546.999023438 c 0
 454.633789062 560.33203125 455.133789062 580.999023438 456.133789062 608.999023438 c 0
 457.133789062 636.999023438 457.965820312 653.999023438 458.633789062 659.999023438 c 0
 458.633789062 677.999023438 463.465820312 691.499023438 473.133789062 700.499023438 c 0
 482.80078125 709.499023438 494.30078125 713.999023438 507.633789062 713.999023438 c 0
 508.719726562 714.048828125 509.793945312 714.073242188 510.852539062 714.073242188 c 0
 524.090820312 714.073242188 535.184570312 710.215820312 544.133789062 702.5 c 0
 553.801757812 694.166992188 558.633789062 681 558.633789062 663 c 0
 558.633789062 650.333007812 558.301757812 624.333007812 557.633789062 585 c 0
 556.967773438 545.666992188 556.467773438 511.166992188 556.133789062 481.5 c 0
 556.067382812 475.5703125 556.03515625 469.114257812 556.03515625 462.131835938 c 0
 556.03515625 434.18359375 556.567382812 397.806640625 557.633789062 353 c 0
 558.079101562 337.448242188 558.30078125 320.267578125 558.30078125 301.458007812 c 0
 558.30078125 263.825195312 557.411132812 219.672851562 555.633789062 169 c 0
 552.965820312 93 551.633789062 44.6669921875 551.633789062 24 c 0
EndSplineSet
Validated: 1
EndChar

StartChar: I
Encoding: 73 73 41
Width: 640
GlyphClass: 2
Flags: HMW
HStem: -13.998 80.001 -6.39919 77.8992 612.001 89.001 625.002 85.3327
VStem: 265.043 101.995 273.109 100.596
LayerCount: 2
Fore
SplineSet
528.036132812 -11 m 0x68
 510.703125 -8.3330078125 482.213867188 -6.8310546875 442.546875 -6.498046875 c 0
 434.618164062 -6.431640625 426.743164062 -6.3984375 418.920898438 -6.3984375 c 0x68
 387.609375 -6.3984375 357.151367188 -6.931640625 327.546875 -7.998046875 c 0
 290.546875 -9.3310546875 250.879882812 -10.6640625 208.546875 -11.9970703125 c 0
 166.213867188 -13.330078125 136.713867188 -13.9970703125 120.046875 -13.9970703125 c 0
 102.713867188 -13.9970703125 90.046875 -10.6640625 82.046875 -3.9970703125 c 0
 70.25 5.833984375 69.9638671875 17.4921875 69.9638671875 24.966796875 c 0
 69.9638671875 35.6865234375 73.32421875 44.865234375 80.0458984375 52.50390625 c 0
 87.37890625 60.8369140625 99.7119140625 65.3369140625 117.044921875 66.00390625 c 0
 145.043945312 67.3369140625 194.377929688 69.00390625 265.043945312 71.00390625 c 1x88
 270.421875 154.600585938 273.110351562 241.782226562 273.110351562 332.547851562 c 0
 273.110351562 365.559570312 272.754882812 399.044921875 272.043945312 433.004882812 c 0
 271.375976562 457.004882812 270.875976562 479.671875 270.543945312 501.004882812 c 0
 270.2109375 522.337890625 270.043945312 537.670898438 270.043945312 547.00390625 c 0
 270.043945312 556.336914062 270.7109375 570.836914062 272.043945312 590.50390625 c 0
 273.375976562 610.170898438 274.043945312 621.670898438 274.043945312 625.00390625 c 0
 243.709960938 625.669921875 216.375976562 626.002929688 192.041992188 626.002929688 c 0
 167.708007812 626.002929688 146.374023438 625.669921875 128.040039062 625.002929688 c 0
 111.374023438 625.002929688 98.541015625 628.669921875 89.541015625 636.002929688 c 0
 76.2666015625 646.818359375 75.966796875 659.26953125 75.966796875 666.641601562 c 0
 75.966796875 677.5234375 79.82421875 686.9765625 87.5400390625 695.000976562 c 0
 95.873046875 703.66796875 109.040039062 708.000976562 127.040039062 708.000976562 c 0
 182.598632812 709.556640625 234.305664062 710.334960938 282.161132812 710.334960938 c 0x94
 377.860351562 710.334960938 458.153320312 707.223632812 523.040039062 701.001953125 c 0
 552.372070312 698.334960938 567.706054688 684.66796875 569.0390625 660.000976562 c 0
 569.0390625 654.000976562 568.206054688 648.16796875 566.5390625 642.500976562 c 0
 564.872070312 636.833984375 562.0390625 631.333984375 558.0390625 626.000976562 c 0
 554.0390625 620.66796875 548.706054688 616.500976562 542.0390625 613.500976562 c 0
 535.372070312 610.500976562 528.372070312 610.000976562 521.0390625 612.000976562 c 0
 501.0390625 615.333984375 452.0390625 619.000976562 374.0390625 623.000976562 c 1
 374.0390625 617.66796875 373.706054688 602.66796875 373.0390625 578.000976562 c 0
 372.372070312 553.333984375 372.0390625 533.666992188 372.0390625 519 c 2
 372.0390625 456 l 2
 372.0390625 428.666992188 372.372070312 401.666992188 373.0390625 375 c 0
 373.483398438 359.2265625 373.704101562 342.157226562 373.704101562 323.791992188 c 0x24
 373.704101562 287.047851562 372.81640625 245.1171875 371.038085938 198 c 0
 368.37109375 127.333007812 367.038085938 85.3330078125 367.038085938 72 c 1
 395.704101562 72 429.038085938 71.8330078125 467.038085938 71.5 c 0
 505.038085938 71.1669921875 525.37109375 71 528.038085938 71 c 0
 543.37109375 71 554.204101562 67.5 560.536132812 60.5 c 0
 566.870117188 53.5 570.036132812 44.3330078125 570.036132812 33 c 0
 570.036132812 27 569.704101562 21.5 569.036132812 16.5 c 0
 568.370117188 11.5 566.370117188 6.5 563.036132812 1.5 c 0
 559.704101562 -3.5 555.204101562 -7.1669921875 549.536132812 -9.5 c 0
 543.870117188 -11.8330078125 536.703125 -12.3330078125 528.036132812 -11 c 0x68
EndSplineSet
Validated: 1
EndChar

StartChar: J
Encoding: 74 74 42
Width: 640
GlyphClass: 2
Flags: HMW
HStem: -35.001 101.001 625 82.999
VStem: 67.1674 89 330.168 93.9971
LayerCount: 2
Fore
SplineSet
421.165039062 215 m 0
 415.83203125 155 407.833007812 106.33203125 397.166015625 68.9990234375 c 0
 386.499023438 31.666015625 373.499023438 4.9990234375 358.166015625 -11.0009765625 c 0
 342.833007812 -27.0009765625 324.833007812 -35.0009765625 304.166015625 -35.0009765625 c 0
 281.499023438 -35.0009765625 259.166015625 -31.0009765625 237.166015625 -23.0009765625 c 0
 215.166015625 -15.0009765625 195.999023438 -4.333984375 179.666015625 8.9990234375 c 0
 163.333007812 22.33203125 148.166015625 36.83203125 134.166015625 52.4990234375 c 0
 120.166015625 68.166015625 108.499023438 83.8330078125 99.166015625 99.5 c 0
 89.8330078125 115.166992188 82.5 129.166992188 77.1669921875 141.5 c 0
 71.833984375 153.833007812 68.833984375 163.666015625 68.1669921875 170.999023438 c 0
 66.833984375 176.999023438 66.5009765625 184.166015625 67.16796875 192.499023438 c 0
 67.8349609375 200.83203125 69.3349609375 208.665039062 71.66796875 215.998046875 c 0
 74.0009765625 223.331054688 78.0009765625 229.831054688 83.66796875 235.498046875 c 0
 89.3349609375 241.165039062 97.16796875 244.665039062 107.16796875 245.998046875 c 0
 110.723632812 246.64453125 114.11328125 246.967773438 117.3359375 246.967773438 c 0
 127.40625 246.967773438 135.849609375 243.811523438 142.66796875 237.499023438 c 0
 151.66796875 229.166015625 156.16796875 218.666015625 156.16796875 205.999023438 c 0
 156.16796875 198.666015625 157.500976562 189.833007812 160.16796875 179.5 c 0
 162.834960938 169.166992188 167.334960938 157.166992188 173.66796875 143.5 c 0
 180.000976562 129.833007812 187.833984375 117.333007812 197.166992188 106 c 0
 206.5 94.6669921875 219.666992188 85.1669921875 236.666992188 77.5 c 0
 253.666992188 69.8330078125 271.833984375 66 291.166992188 66 c 0
 315.166992188 66 328.833984375 124 332.166992188 240 c 0
 332.166992188 254.666992188 331.5 301.666992188 330.166992188 381 c 0
 329.500976562 420.666015625 329.16796875 460.749023438 329.16796875 501.249023438 c 0
 329.16796875 541.749023438 329.500976562 582.666015625 330.166992188 624 c 1
 285.368164062 625.200195312 243.688476562 625.799804688 205.12890625 625.799804688 c 0
 179.421875 625.799804688 155.1015625 625.533203125 132.16796875 625 c 0
 115.500976562 625 102.833984375 628.666992188 94.1669921875 636 c 0
 81.4384765625 646.76953125 81.0927734375 659.155273438 81.0927734375 666.639648438 c 0
 81.0927734375 677.521484375 84.9501953125 686.974609375 92.666015625 694.999023438 c 0
 100.999023438 703.666015625 113.83203125 707.999023438 131.165039062 707.999023438 c 0
 186.724609375 709.5546875 238.39453125 710.333007812 286.174804688 710.333007812 c 0
 381.7265625 710.333007812 461.723632812 707.221679688 526.166015625 701 c 0
 555.499023438 698.333007812 571.166015625 684.666015625 573.166015625 659.999023438 c 0
 573.166015625 653.999023438 572.166015625 648.166015625 570.166015625 642.499023438 c 0
 568.166015625 636.83203125 565.499023438 631.33203125 562.166015625 625.999023438 c 0
 558.833007812 620.666015625 553.833007812 616.499023438 547.166015625 613.499023438 c 0
 540.499023438 610.499023438 532.83203125 609.999023438 524.165039062 611.999023438 c 0
 500.83203125 615.33203125 465.165039062 618.33203125 417.165039062 620.999023438 c 1
 417.165039062 601.666015625 417.83203125 572.333007812 419.165039062 533 c 0
 420.498046875 493.666992188 421.665039062 457.833984375 422.665039062 425.500976562 c 0
 423.665039062 393.16796875 424.165039062 357.16796875 424.165039062 317.500976562 c 0
 424.165039062 277.833984375 423.165039062 243.666992188 421.165039062 215 c 0
EndSplineSet
Validated: 1
EndChar

StartChar: K
Encoding: 75 75 43
Width: 640
GlyphClass: 2
Flags: HMW
HStem: -21.0751 21G 694.072 20G
VStem: 76.7335 95.2646
LayerCount: 2
Fore
SplineSet
179.999023438 24 m 0
 178.666015625 10 172.170898438 -1.16796875 160.502929688 -9.5009765625 c 0
 149.701171875 -17.216796875 137.612304688 -21.07421875 124.239257812 -21.07421875 c 0
 123.168945312 -21.07421875 122.08984375 -21.0498046875 121.002929688 -21 c 0
 107.669921875 -21 96.669921875 -16.5 88.0029296875 -7.5 c 0
 80.4912109375 0.30078125 76.7353515625 10.73046875 76.7353515625 23.7890625 c 0
 76.7353515625 25.7978515625 76.82421875 27.8681640625 77.001953125 30.0009765625 c 0
 78.501953125 52 79.251953125 89.091796875 79.251953125 141.276367188 c 0
 79.251953125 158.673828125 79.1689453125 177.748046875 79.001953125 198.5 c 0
 78.3349609375 281.5 76.66796875 367 74.0009765625 455 c 0
 72.66796875 497.666992188 72.0009765625 526.5 72.0009765625 541.5 c 0
 72.0009765625 556.5 72.5009765625 578.166992188 73.5009765625 606.5 c 0
 74.5009765625 634.833007812 75.0009765625 652.666015625 75.0009765625 659.999023438 c 0
 75.66796875 677.999023438 80.66796875 691.499023438 90.0009765625 700.499023438 c 0
 99.333984375 709.499023438 111.000976562 713.999023438 125.000976562 713.999023438 c 0
 126.087890625 714.048828125 127.161132812 714.073242188 128.220703125 714.073242188 c 0
 141.458007812 714.073242188 152.551757812 710.215820312 161.501953125 702.5 c 0
 171.168945312 694.166992188 176.001953125 681 176.001953125 663 c 0
 176.001953125 647 175.334960938 612 174.001953125 558 c 0
 172.668945312 504 172.001953125 459.333007812 172.001953125 424 c 1
 196.001953125 447.333007812 232.001953125 482.666015625 280.001953125 529.999023438 c 0
 328.001953125 577.33203125 366.334960938 614.83203125 395.001953125 642.499023438 c 0
 423.668945312 670.166015625 442.001953125 687.333007812 450.001953125 694 c 0
 459.334960938 702.666992188 468.334960938 708.5 477.001953125 711.5 c 0
 485.668945312 714.5 493.168945312 715.166992188 499.501953125 713.5 c 0
 505.834960938 711.833007812 511.666992188 708.333007812 517.000976562 703 c 0
 524.510742188 694.911132812 528.267578125 685.946289062 528.267578125 676.10546875 c 0
 528.267578125 663.235351562 521.844726562 648.8671875 508.999023438 633 c 0
 498.999023438 621 463.666992188 584.5 402.999023438 523.5 c 0
 342.333007812 462.5 288.333007812 409.333007812 240.999023438 364 c 1
 263.666992188 340 302.166992188 302.5 356.499023438 251.5 c 0
 410.833007812 200.5 457.999023438 155.666992188 497.999023438 117 c 0
 537.999023438 78.3330078125 560.333007812 54 564.999023438 44 c 0
 566.999023438 37.666015625 567.999023438 31.666015625 567.999023438 25.9990234375 c 0
 567.999023438 20.33203125 566.999023438 14.9990234375 564.999023438 9.9990234375 c 0
 560.999023438 -0.0009765625 554.999023438 -7.66796875 546.999023438 -13.0009765625 c 0
 538.724609375 -18.5986328125 530.494140625 -21.3974609375 522.307617188 -21.3974609375 c 0
 508.069335938 -21.3974609375 493.967773438 -12.931640625 479.999023438 4 c 0
 473.331054688 12.6669921875 449.499023438 35.6669921875 408.499023438 73 c 0
 367.499023438 110.333007812 323.331054688 151.5 275.999023438 196.5 c 0
 228.666015625 241.5 193.999023438 277.333007812 171.999023438 304 c 1
 171.999023438 284 l 2
 171.999023438 272.666992188 174.666015625 186 179.999023438 24 c 0
EndSplineSet
Validated: 1
EndChar

StartChar: L
Encoding: 76 76 44
Width: 640
GlyphClass: 2
Flags: HMW
HStem: -15.0049 86.9159
VStem: 72.1323 103.002 101.932 91.7021
LayerCount: 2
Fore
SplineSet
525.134765625 10 m 0xc0
 479.801757812 1.3330078125 411.133789062 -5.005859375 319.133789062 -9.005859375 c 0
 227.133789062 -13.005859375 159.466796875 -15.005859375 116.1328125 -15.005859375 c 0
 102.80078125 -15.005859375 91.80078125 -10.505859375 83.1328125 -1.505859375 c 0
 75.62109375 6.294921875 71.865234375 16.724609375 71.865234375 29.783203125 c 0
 71.865234375 31.7919921875 71.955078125 33.8623046875 72.1328125 35.9951171875 c 0xc0
 72.1328125 41.328125 75.96484375 79.4951171875 83.6328125 150.495117188 c 0
 91.298828125 221.495117188 96.798828125 289.995117188 100.1328125 355.995117188 c 0
 101.33203125 373.995117188 101.931640625 400.994140625 101.931640625 436.993164062 c 0
 101.931640625 460.993164062 101.666015625 488.994140625 101.1328125 520.995117188 c 0
 99.798828125 600.995117188 99.1328125 644.328125 99.1328125 650.995117188 c 0
 99.798828125 668.995117188 104.966796875 682.662109375 114.6328125 691.995117188 c 0
 124.30078125 701.328125 135.80078125 705.995117188 149.133789062 705.995117188 c 0
 150.220703125 706.044921875 151.293945312 706.069335938 152.353515625 706.069335938 c 0
 165.590820312 706.069335938 176.684570312 702.211914062 185.634765625 694.49609375 c 0
 195.301757812 686.163085938 200.134765625 672.99609375 200.134765625 654.99609375 c 0
 200.134765625 635.663085938 199.466796875 609.330078125 198.134765625 575.997070312 c 0
 196.801757812 542.6640625 195.301757812 500.6640625 193.634765625 449.997070312 c 0xa0
 191.966796875 399.330078125 190.466796875 355.330078125 189.134765625 317.997070312 c 0
 188.466796875 289.997070312 185.966796875 249.330078125 181.634765625 195.997070312 c 0
 177.301757812 142.6640625 175.134765625 101.331054688 175.134765625 71.998046875 c 1
 180.005859375 71.9404296875 184.946289062 71.9111328125 189.955078125 71.9111328125 c 0
 242.541015625 71.9111328125 302.767578125 75.107421875 370.634765625 81.498046875 c 0
 444.966796875 88.498046875 494.466796875 95.3310546875 519.134765625 101.998046875 c 0
 527.134765625 103.998046875 534.301757812 103.665039062 540.634765625 100.998046875 c 0
 546.966796875 98.3310546875 551.966796875 94.3310546875 555.634765625 88.998046875 c 0
 559.301757812 83.6650390625 562.301757812 77.83203125 564.634765625 71.4990234375 c 0
 566.966796875 65.166015625 568.134765625 59.3330078125 568.134765625 54 c 0
 568.134765625 42 565.134765625 32.3330078125 559.134765625 25 c 0
 553.134765625 17.6669921875 541.801757812 12.6669921875 525.134765625 10 c 0xc0
EndSplineSet
Validated: 1
EndChar

StartChar: M
Encoding: 77 77 45
Width: 640
GlyphClass: 2
Flags: HMW
HStem: -9.99414 21G<89.999 96.665>
VStem: 53.9975 83.001 266 104.999
LayerCount: 2
Fore
SplineSet
136.998046875 59 m 0
 137.04296875 57.578125 137.06640625 56.17578125 137.06640625 54.7939453125 c 0
 137.06640625 35.443359375 132.708984375 20.0166015625 123.998046875 8.505859375 c 0
 114.666015625 -3.8271484375 103.33203125 -9.994140625 90 -9.994140625 c 0
 66 -9.3271484375 54 15.33984375 54 64.0068359375 c 0
 54 72.0068359375 55 85.673828125 57 105.006835938 c 0
 59 124.33984375 61.5 149.672851562 64.5 181.005859375 c 0
 67.5 212.338867188 70 239.671875 72 263.004882812 c 0
 72.666015625 271.004882812 73.666015625 283.337890625 75 300.004882812 c 0
 79 349.337890625 82.166015625 387.837890625 84.5 415.504882812 c 0
 86.83203125 443.171875 90.33203125 477.671875 95 519.004882812 c 0
 99.666015625 560.337890625 103.833984375 592.837890625 107.5 616.504882812 c 0
 111.16796875 640.171875 115.66796875 656.671875 121 666.004882812 c 0
 127.666992188 680.004882812 137.833984375 690.171875 151.501953125 696.504882812 c 0
 162.791015625 701.736328125 173.740234375 704.352539062 184.349609375 704.352539062 c 0
 186.581054688 704.352539062 188.798828125 704.236328125 191.001953125 704.004882812 c 0
 221.001953125 704.004882812 239.66796875 691.671875 247.001953125 667.004882812 c 0
 255.001953125 637.671875 263.66796875 589.171875 273.001953125 521.504882812 c 0
 282.333984375 453.837890625 291.833984375 376.670898438 301.501953125 290.00390625 c 0
 311.16796875 203.336914062 318.001953125 146.00390625 322.001953125 118.00390625 c 1
 328.66796875 212.00390625 336.334960938 296.670898438 345.001953125 372.00390625 c 0
 351.001953125 427.336914062 359.169921875 483.00390625 369.501953125 539.00390625 c 0
 379.834960938 595.00390625 389.001953125 637.670898438 397.001953125 667.00390625 c 0
 399.669921875 677.00390625 405.169921875 685.170898438 413.501953125 691.50390625 c 0
 421.834960938 697.836914062 430.66796875 701.669921875 440.001953125 703.002929688 c 0
 446.221679688 703.891601562 451.998046875 704.3359375 457.330078125 704.3359375 c 0
 459.998046875 704.3359375 462.5546875 704.224609375 465 704.001953125 c 2
 469 704.001953125 l 1
 482.5 704.001953125 l 2
 486.166992188 704.001953125 491.166992188 703.168945312 497.5 701.501953125 c 0
 503.833984375 699.834960938 509 697.66796875 513 695.000976562 c 0
 517 692.333984375 520.666992188 688.166992188 524 682.5 c 0
 527.333984375 676.833007812 529.666015625 670 530.999023438 662 c 0
 533.666015625 642 541.333984375 544.333007812 554 369 c 0
 566.666992188 193.666992188 576 94.6669921875 582 72 c 0
 584.666992188 60.5712890625 586 50.33984375 586 41.3056640625 c 0
 586 18.720703125 577.666992188 3.6181640625 561 -4.0009765625 c 0
 555.208984375 -6.4384765625 549.41796875 -7.6572265625 543.626953125 -7.6572265625 c 2
 522.998046875 -2.5 l 2
 510.331054688 3.8330078125 500.998046875 17.666015625 494.998046875 38.9990234375 c 0
 480.998046875 83.666015625 468.666015625 278.333007812 457.998046875 623 c 1
 438.666015625 526.333007812 425.998046875 438.333007812 419.998046875 359 c 0
 413.998046875 283 405.831054688 210.833007812 395.498046875 142.5 c 0
 385.166015625 74.1669921875 376.998046875 32.333984375 370.998046875 17.0009765625 c 0
 363.666015625 1.0009765625 344.998046875 -6.9990234375 314.998046875 -6.9990234375 c 0
 313.331054688 -7.08203125 311.703125 -7.1240234375 310.115234375 -7.1240234375 c 0
 298.995117188 -7.1240234375 289.791015625 -5.08203125 282.499023438 -0.9990234375 c 0
 274.166015625 3.66796875 268.666015625 10.3349609375 265.999023438 19.001953125 c 0
 257.999023438 51.001953125 244.666015625 124.501953125 225.999023438 239.501953125 c 0
 207.33203125 354.501953125 190.33203125 464.668945312 174.999023438 570.001953125 c 1
 172.999023438 548.668945312 171.166015625 524.668945312 169.499023438 498.001953125 c 0
 167.83203125 471.334960938 166.33203125 448.16796875 164.999023438 428.500976562 c 0
 163.666015625 408.833984375 161.499023438 379.666992188 158.499023438 341 c 0
 155.499023438 302.333007812 153.33203125 273 151.999023438 253 c 0
 150.666015625 225 148.666015625 196.166992188 145.999023438 166.5 c 0
 143.33203125 136.833007812 141.166015625 113.5 139.498046875 96.5 c 0
 137.831054688 79.5 136.998046875 67 136.998046875 59 c 0
EndSplineSet
Validated: 1
EndChar

StartChar: N
Encoding: 78 78 46
Width: 640
GlyphClass: 2
Flags: HMW
HStem: -14.1178 21G
VStem: 73.9102 82.7479 473.33 92.5787 482.911 83.18
LayerCount: 2
Fore
SplineSet
491.909179688 -14 m 0xd0
 490.416992188 -14.078125 488.955078125 -14.1181640625 487.5234375 -14.1181640625 c 0
 476.797851562 -14.1181640625 467.7578125 -11.9140625 460.40625 -7.5029296875 c 0
 452.073242188 -2.5029296875 446.240234375 4.330078125 442.907226562 12.9970703125 c 0
 436.907226562 26.330078125 420.907226562 55.6630859375 394.907226562 100.99609375 c 0
 368.907226562 146.329101562 342.07421875 193.49609375 314.407226562 242.49609375 c 0
 286.740234375 291.49609375 257.740234375 346.329101562 227.407226562 406.99609375 c 0
 197.07421875 467.663085938 174.241210938 519.330078125 158.908203125 561.997070312 c 1
 162.108398438 503.86328125 163.708007812 448.9296875 163.708007812 397.196289062 c 0
 163.708007812 384.262695312 163.608398438 371.529296875 163.408203125 358.99609375 c 0
 162.408203125 296.329101562 160.908203125 232.49609375 158.908203125 167.49609375 c 0
 157.408203125 118.748046875 156.658203125 84.3427734375 156.658203125 64.2802734375 c 0
 156.658203125 55.919921875 156.974609375 44.9990234375 156.974609375 44.8046875 c 0
 156.974609375 25.599609375 152.619140625 11.330078125 143.908203125 1.9970703125 c 0
 135.159179688 -7.3779296875 124.65234375 -12.0654296875 112.387695312 -12.0654296875 c 0
 111.569335938 -12.0654296875 110.743164062 -12.044921875 109.909179688 -12.0029296875 c 0
 95.9091796875 -12.0029296875 86.4091796875 -6.3359375 81.4091796875 4.9970703125 c 0
 76.4091796875 16.330078125 73.9091796875 32.9970703125 73.9091796875 54.9970703125 c 0
 73.9091796875 68.330078125 74.9091796875 119.997070312 76.9091796875 209.997070312 c 0
 78.9091796875 299.997070312 80.2421875 378.6640625 80.9091796875 445.997070312 c 0
 81.076171875 462.83203125 81.1591796875 479.5 81.1591796875 496.001953125 c 0
 81.1591796875 545.5 80.4091796875 593.499023438 78.9091796875 639.998046875 c 0
 78.8134765625 641.903320312 78.765625 643.767578125 78.765625 645.590820312 c 0
 78.765625 656.528320312 80.48046875 665.997070312 83.9091796875 673.99609375 c 0
 87.9091796875 683.329101562 93.576171875 690.162109375 100.909179688 694.495117188 c 0
 108.2421875 698.828125 115.909179688 701.828125 123.909179688 703.495117188 c 0
 131.909179688 705.162109375 140.576171875 705.329101562 149.909179688 703.99609375 c 0
 178.576171875 703.99609375 196.576171875 691.663085938 203.909179688 666.99609375 c 0
 217.909179688 622.99609375 256.576171875 541.99609375 319.909179688 423.99609375 c 0
 383.2421875 305.99609375 436.909179688 210.663085938 480.909179688 137.99609375 c 1
 482.6875 179.779296875 483.576171875 234.232421875 483.576171875 301.35546875 c 0
 483.576171875 334.904296875 483.354492188 371.618164062 482.91015625 411.497070312 c 0xd0
 481.577148438 531.1640625 478.577148438 609.997070312 473.91015625 647.997070312 c 0
 473.5234375 651.09375 473.330078125 654.096679688 473.330078125 657.005859375 c 0
 473.330078125 669.12890625 476.690429688 679.625976562 483.411132812 688.497070312 c 0
 491.744140625 699.497070312 502.577148438 704.997070312 515.91015625 704.997070312 c 0
 523.243164062 704.997070312 529.576171875 704.1640625 534.909179688 702.497070312 c 0
 540.2421875 700.830078125 544.409179688 698.830078125 547.409179688 696.497070312 c 0
 550.409179688 694.1640625 552.909179688 690.331054688 554.909179688 684.998046875 c 0
 556.909179688 679.665039062 558.409179688 674.83203125 559.409179688 670.499023438 c 0
 560.409179688 666.166015625 561.576171875 659.333007812 562.909179688 650 c 0
 564.2421875 639.333007812 565.2421875 585.833007812 565.909179688 489.5 c 0xe0
 566.030273438 471.981445312 566.090820312 454.34765625 566.090820312 436.59765625 c 0
 566.090820312 356.741210938 564.86328125 274.541992188 562.409179688 190 c 0
 559.409179688 86.6669921875 554.2421875 27 546.909179688 11 c 0
 540.2421875 -5.6669921875 521.909179688 -14 491.909179688 -14 c 0xd0
EndSplineSet
Validated: 1
EndChar

StartChar: O
Encoding: 79 79 47
Width: 640
GlyphClass: 2
Flags: HMW
HStem: -24 83.998 636.997 81.001
VStem: 75.2358 96.3855 468.736 96.0643
LayerCount: 2
Fore
SplineSet
287.237304688 -24 m 0
 245.904296875 -23.3330078125 208.904296875 -10.8369140625 176.237304688 13.49609375 c 0
 143.569335938 37.8291015625 118.403320312 70.49609375 100.736328125 111.49609375 c 0
 83.7119140625 151.004882812 75.2001953125 194.072265625 75.2001953125 240.700195312 c 0
 75.2001953125 242.4609375 75.2119140625 244.2265625 75.236328125 245.997070312 c 2
 75.236328125 262.997070312 l 2
 75.236328125 292.997070312 75.4033203125 316.997070312 75.736328125 334.997070312 c 0
 76.0693359375 352.997070312 77.40234375 376.997070312 79.7353515625 406.997070312 c 0
 82.068359375 436.997070312 86.068359375 465.497070312 91.7353515625 492.497070312 c 0
 97.40234375 519.497070312 104.569335938 544.997070312 113.236328125 568.997070312 c 0
 129.903320312 612.330078125 159.569335938 647.997070312 202.237304688 675.997070312 c 0
 244.904296875 703.997070312 292.237304688 717.997070312 344.237304688 717.997070312 c 0
 370.904296875 717.997070312 396.571289062 712.830078125 421.237304688 702.497070312 c 0
 445.905273438 692.1640625 467.905273438 677.331054688 487.237304688 657.998046875 c 0
 506.571289062 638.665039062 522.737304688 613.998046875 535.737304688 583.998046875 c 0
 548.737304688 553.998046875 556.905273438 520.331054688 560.237304688 482.998046875 c 0
 562.905273438 449.665039062 564.405273438 413.998046875 564.737304688 375.998046875 c 0
 564.780273438 371.251953125 564.799804688 366.498046875 564.799804688 361.736328125 c 0
 564.799804688 328.374023438 563.780273438 294.627929688 561.737304688 260.499023438 c 0
 559.405273438 221.499023438 554.905273438 190.666015625 548.237304688 167.999023438 c 0
 539.571289062 136.666015625 528.904296875 109.666015625 516.237304688 86.9990234375 c 0
 503.569335938 64.33203125 489.569335938 45.83203125 474.237304688 31.4990234375 c 0
 458.904296875 17.166015625 441.237304688 5.8330078125 421.237304688 -2.5 c 0
 401.237304688 -10.8330078125 380.737304688 -16.5 359.737304688 -19.5 c 0
 338.737304688 -22.5 314.569335938 -24 287.237304688 -24 c 0
287.237304688 59.99609375 m 0
 305.237304688 59.99609375 322.233398438 62.1640625 338.233398438 66.4970703125 c 0
 354.233398438 70.830078125 369.901367188 77.830078125 385.233398438 87.4970703125 c 0
 400.567382812 97.1640625 414.233398438 109.997070312 426.233398438 125.997070312 c 0
 438.233398438 141.997070312 447.567382812 160.6640625 454.233398438 181.997070312 c 0
 456.901367188 190.6640625 459.568359375 210.6640625 462.235351562 241.997070312 c 0
 464.901367188 273.330078125 467.069335938 310.663085938 468.736328125 353.99609375 c 0
 469.225585938 366.741210938 469.471679688 379.428710938 469.471679688 392.05859375 c 0
 469.471679688 422.370117188 468.059570312 452.349609375 465.236328125 481.99609375 c 0
 461.236328125 525.99609375 447.069335938 562.829101562 422.736328125 592.49609375 c 0
 398.403320312 622.163085938 368.569335938 636.99609375 333.237304688 636.99609375 c 0
 297.237304688 636.99609375 267.069335938 623.829101562 242.737304688 597.49609375 c 0
 218.404296875 571.163085938 200.904296875 534.330078125 190.237304688 486.997070312 c 0
 177.827148438 433.408203125 171.622070312 371.466796875 171.622070312 301.171875 c 0
 171.622070312 288.389648438 171.827148438 275.331054688 172.237304688 261.99609375 c 0
 172.904296875 240.663085938 174.737304688 220.99609375 177.737304688 202.99609375 c 0
 180.737304688 184.99609375 184.904296875 166.99609375 190.237304688 148.99609375 c 0
 195.569335938 130.99609375 202.569335938 115.49609375 211.237304688 102.49609375 c 0
 219.904296875 89.49609375 230.737304688 79.1630859375 243.737304688 71.49609375 c 0
 256.737304688 63.8291015625 271.237304688 59.99609375 287.237304688 59.99609375 c 0
EndSplineSet
Validated: 1
EndChar

StartChar: P
Encoding: 80 80 48
Width: 640
GlyphClass: 2
Flags: HMW
HStem: -19.0771 21G 230.001 81.9374 630.003 80.998
VStem: 94.7115 94.3366 99.7877 102.314 464.046 92.0029
LayerCount: 2
Fore
SplineSet
202.102539062 21.7568359375 m 0xec
 202.102539062 8.837890625 196.583984375 -1.2421875 185.547851562 -8.4951171875 c 0
 174.814453125 -15.548828125 162.811523438 -19.0751953125 149.5390625 -19.0751953125 c 0
 148.384765625 -19.0751953125 147.220703125 -19.048828125 146.046875 -18.9951171875 c 0
 132.046875 -18.9951171875 120.546875 -14.828125 111.546875 -6.4951171875 c 0
 103.708007812 0.7626953125 99.7890625 10.9287109375 99.7890625 24.0029296875 c 0xec
 99.7890625 25.939453125 99.875 27.939453125 100.046875 30.00390625 c 0
 100.713867188 40.6708984375 101.046875 56.50390625 101.046875 77.50390625 c 0
 101.046875 98.50390625 100.879882812 124.50390625 100.546875 155.50390625 c 0
 100.213867188 186.50390625 99.7138671875 216.50390625 99.046875 245.50390625 c 0
 98.3798828125 274.50390625 97.546875 310.00390625 96.546875 352.00390625 c 0
 95.546875 394.00390625 95.046875 429.00390625 95.046875 457.00390625 c 0
 94.82421875 471.455078125 94.712890625 487.463867188 94.712890625 505.029296875 c 0xf4
 94.712890625 540.134765625 95.1572265625 581.458984375 96.0458984375 629.002929688 c 0
 92.712890625 632.3359375 90.712890625 634.002929688 90.0458984375 634.002929688 c 0
 84.712890625 642.002929688 82.8798828125 650.169921875 84.546875 658.502929688 c 0
 86.2138671875 666.8359375 89.880859375 674.3359375 95.5478515625 681.002929688 c 0
 101.21484375 687.669921875 107.381835938 691.669921875 114.048828125 693.002929688 c 0
 138.048828125 698.3359375 173.215820312 702.668945312 219.548828125 706.001953125 c 0
 265.881835938 709.334960938 298.381835938 711.001953125 317.048828125 711.001953125 c 0
 362.381835938 711.001953125 402.881835938 703.001953125 438.548828125 687.001953125 c 0
 474.215820312 671.001953125 502.548828125 646.834960938 523.548828125 614.501953125 c 0
 544.548828125 582.168945312 555.381835938 543.668945312 556.048828125 499.001953125 c 0
 556.048828125 461.668945312 549.881835938 426.501953125 537.548828125 393.501953125 c 0
 525.215820312 360.501953125 508.548828125 332.001953125 487.548828125 308.001953125 c 0
 466.548828125 284.001953125 440.715820312 265.001953125 410.048828125 251.001953125 c 0
 379.381835938 237.001953125 346.048828125 230.001953125 310.048828125 230.001953125 c 0
 258.048828125 230.001953125 217.048828125 233.668945312 187.048828125 241.001953125 c 1
 188.381835938 213.001953125 190.048828125 186.168945312 192.048828125 160.501953125 c 0
 194.048828125 134.834960938 196.048828125 108.16796875 198.048828125 80.5009765625 c 0
 200.313476562 49.16796875 202.102539062 24.41796875 202.102539062 21.7568359375 c 0xec
317.047851562 630.005859375 m 0
 293.71484375 630.005859375 251.716796875 627.336914062 191.049804688 622.00390625 c 1
 191.049804688 608.670898438 190.3828125 584.00390625 189.049804688 548.00390625 c 0xf4
 187.716796875 512.00390625 186.716796875 475.00390625 186.049804688 437.00390625 c 0
 185.3828125 399.00390625 185.049804688 362.00390625 185.049804688 326.00390625 c 1
 210.673828125 316.62890625 240.399414062 311.94140625 274.2265625 311.94140625 c 0
 276.482421875 311.94140625 278.756835938 311.961914062 281.049804688 312.00390625 c 0
 300.3828125 312.00390625 317.8828125 313.336914062 333.549804688 316.00390625 c 0
 349.216796875 318.670898438 362.883789062 322.337890625 374.55078125 327.004882812 c 0
 386.217773438 331.671875 396.717773438 337.838867188 406.05078125 345.505859375 c 0
 415.383789062 353.172851562 423.216796875 360.83984375 429.549804688 368.506835938 c 0
 435.8828125 376.173828125 441.215820312 385.173828125 445.548828125 395.506835938 c 0
 449.881835938 405.83984375 453.21484375 415.172851562 455.547851562 423.505859375 c 0
 457.880859375 431.838867188 459.713867188 441.505859375 461.046875 452.505859375 c 0
 462.379882812 463.505859375 463.212890625 472.505859375 463.545898438 479.505859375 c 0
 463.87890625 486.505859375 464.045898438 495.005859375 464.045898438 505.005859375 c 0
 464.045898438 523.672851562 460.545898438 540.505859375 453.545898438 555.505859375 c 0
 446.545898438 570.505859375 437.87890625 582.505859375 427.545898438 591.505859375 c 0
 417.212890625 600.505859375 405.379882812 608.005859375 392.046875 614.005859375 c 0
 378.713867188 620.005859375 365.880859375 624.172851562 353.547851562 626.505859375 c 0
 341.21484375 628.838867188 329.047851562 630.005859375 317.047851562 630.005859375 c 0
EndSplineSet
Validated: 1
EndChar

StartChar: Q
Encoding: 81 81 49
Width: 640
GlyphClass: 2
Flags: HMW
HStem: -24.1963 84.2021 637.005 80.9971
VStem: 70.8148 95.6075 275.602 73.1323 468.845 93.3379
LayerCount: 2
Fore
SplineSet
545.744140625 -206 m 0
 538.634765625 -210.443359375 531.225585938 -212.6640625 523.521484375 -212.6640625 c 0
 519.666015625 -212.6640625 515.737304688 -212.108398438 511.735351562 -210.997070312 c 0
 499.735351562 -207.6640625 489.068359375 -199.997070312 479.735351562 -187.997070312 c 0
 470.40234375 -175.997070312 454.40234375 -153.6640625 431.735351562 -120.997070312 c 0
 409.068359375 -88.330078125 387.068359375 -54.9970703125 365.735351562 -20.9970703125 c 1
 351.870117188 -23.130859375 336.938476562 -24.197265625 320.939453125 -24.197265625 c 0
 316.938476562 -24.197265625 312.870117188 -24.130859375 308.735351562 -23.9970703125 c 0
 279.40234375 -23.9970703125 252.069335938 -19.330078125 226.736328125 -9.9970703125 c 0
 201.403320312 -0.6640625 179.5703125 12.3359375 161.237304688 29.0029296875 c 0
 142.904296875 45.669921875 127.071289062 65.5029296875 113.73828125 88.5029296875 c 0
 100.405273438 111.502929688 90.4052734375 136.169921875 83.73828125 162.502929688 c 0
 77.0712890625 188.8359375 73.0712890625 216.668945312 71.73828125 246.001953125 c 0
 71.1220703125 263.084960938 70.8134765625 279.766601562 70.8134765625 296.046875 c 0
 70.8134765625 403.024414062 84.1220703125 492.67578125 110.73828125 565.001953125 c 0
 128.071289062 609.001953125 157.73828125 645.501953125 199.73828125 674.501953125 c 0
 241.73828125 703.501953125 288.73828125 718.001953125 340.73828125 718.001953125 c 0
 368.071289062 718.001953125 393.571289062 713.334960938 417.23828125 704.001953125 c 0
 440.905273438 694.668945312 462.405273438 681.001953125 481.73828125 663.001953125 c 0
 501.071289062 645.001953125 517.23828125 620.668945312 530.23828125 590.001953125 c 0
 543.23828125 559.334960938 552.071289062 523.66796875 556.73828125 483.000976562 c 0
 560.368164062 447.220703125 562.18359375 405.2890625 562.18359375 357.20703125 c 0
 562.18359375 343.473632812 562.03515625 329.23828125 561.739257812 314.500976562 c 0
 560.40625 248.16796875 556.073242188 197.66796875 548.740234375 163.000976562 c 0
 534.740234375 91.0009765625 502.073242188 39.66796875 450.740234375 9.0009765625 c 1
 464.073242188 -10.33203125 478.240234375 -29.9990234375 493.240234375 -49.9990234375 c 0
 508.240234375 -69.9990234375 522.573242188 -88.666015625 536.240234375 -105.999023438 c 0
 549.907226562 -123.33203125 559.07421875 -134.999023438 563.741210938 -140.999023438 c 0
 568.408203125 -148.33203125 570.075195312 -156.33203125 568.7421875 -164.999023438 c 0
 567.409179688 -173.666015625 564.576171875 -181.833007812 560.243164062 -189.5 c 0
 555.91015625 -197.166992188 551.077148438 -202.666992188 545.744140625 -206 c 0
168.735351562 262.004882812 m 0
 170.735351562 224.004882812 177.901367188 189.837890625 190.234375 159.504882812 c 0
 202.567382812 129.171875 219.067382812 105.004882812 239.734375 87.0048828125 c 0
 260.401367188 69.0048828125 283.401367188 60.0048828125 308.734375 60.0048828125 c 2
 318.734375 60.0048828125 l 1
 302.734375 90.0048828125 291.401367188 113.337890625 284.734375 130.004882812 c 0
 278.646484375 146.33203125 275.602539062 160.706054688 275.602539062 173.127929688 c 0
 275.602539062 190.630859375 281.646484375 204.256835938 293.734375 214.005859375 c 0
 299.734375 218.672851562 306.234375 221.505859375 313.234375 222.505859375 c 0
 320.234375 223.505859375 326.901367188 221.505859375 333.234375 216.505859375 c 0
 339.567382812 211.505859375 344.734375 204.005859375 348.734375 194.005859375 c 0
 360.734375 160.672851562 378.067382812 124.33984375 400.734375 85.0068359375 c 1
 429.401367188 104.33984375 448.401367188 135.33984375 457.734375 178.006835938 c 0
 459.734375 188.006835938 461.901367188 208.173828125 464.234375 238.506835938 c 0
 466.567382812 268.83984375 468.067382812 306.672851562 468.734375 352.005859375 c 0
 468.80859375 357.044921875 468.845703125 362.059570312 468.845703125 367.049804688 c 0
 468.845703125 406.948242188 466.475585938 445.266601562 461.735351562 482.004882812 c 0
 456.40234375 529.337890625 441.90234375 567.004882812 418.235351562 595.004882812 c 0
 394.568359375 623.004882812 365.068359375 637.004882812 329.735351562 637.004882812 c 0
 293.068359375 637.004882812 262.568359375 624.004882812 238.235351562 598.004882812 c 0
 213.90234375 572.004882812 196.40234375 535.671875 185.735351562 489.004882812 c 0
 172.859375 437.5 166.420898438 382.5 166.420898438 324.004882812 c 0
 166.420898438 303.756835938 167.192382812 283.08984375 168.735351562 262.004882812 c 0
EndSplineSet
Validated: 1
EndChar

StartChar: R
Encoding: 82 82 50
Width: 640
GlyphClass: 2
Flags: HMW
HStem: -19.0801 21G 694.06 20G
VStem: 76.0342 95 80.4892 102.598 80.5342 93.498 84.0342 81 461.034 92
LayerCount: 2
Fore
SplineSet
183.0859375 21.755859375 m 0xd2
 183.0859375 8.8369140625 177.571289062 -1.248046875 166.53515625 -8.5 c 0
 155.801757812 -15.5537109375 143.517578125 -19.080078125 129.681640625 -19.080078125 c 0
 128.477539062 -19.080078125 127.26171875 -19.0537109375 126.034179688 -19 c 0
 112.034179688 -19 100.534179688 -14.8330078125 91.5341796875 -6.5 c 0
 84.1708984375 0.318359375 80.4892578125 9.703125 80.4892578125 21.6533203125 c 0xd2
 80.4892578125 24.30859375 80.6708984375 27.0908203125 81.0341796875 30 c 0
 83.701171875 64.6669921875 85.0341796875 94.1669921875 85.0341796875 118.5 c 0
 85.0341796875 142.833007812 84.701171875 202.666015625 84.0341796875 297.999023438 c 0xc6
 84.0341796875 310.666015625 84.701171875 337.833007812 86.0341796875 379.5 c 0
 86.7001953125 400.333984375 87.033203125 420.625976562 87.033203125 440.375976562 c 0
 87.033203125 460.125976562 86.7001953125 479.333984375 86.0341796875 498 c 0
 85.3671875 520.666992188 83.5341796875 551.333984375 80.5341796875 590.000976562 c 0xca
 77.5341796875 628.66796875 76.0341796875 652.000976562 76.0341796875 660.000976562 c 2
 76.0341796875 666.000976562 l 2xe2
 75.9892578125 666.845703125 75.966796875 667.68359375 75.966796875 668.513671875 c 0
 75.966796875 680.127929688 80.322265625 690.290039062 89.033203125 699.000976562 c 0
 97.1904296875 709.040039062 108.299804688 714.059570312 122.361328125 714.059570312 c 0
 123.240234375 714.059570312 124.130859375 714.040039062 125.033203125 714.000976562 c 0
 138.366210938 714.000976562 149.033203125 711.333984375 157.033203125 706.000976562 c 1
 212.366210938 703.333984375 262.533203125 696.166992188 307.533203125 684.5 c 0
 352.533203125 672.833007812 390.033203125 658.333007812 420.033203125 641 c 0
 450.033203125 623.666992188 475.366210938 604 496.033203125 582 c 0
 516.700195312 560 531.3671875 538 540.034179688 516 c 0
 548.701171875 494 553.034179688 471.666992188 553.034179688 449 c 0
 553.034179688 432.333007812 550.8671875 417 546.534179688 403 c 0
 542.201171875 389 536.034179688 376.833007812 528.034179688 366.5 c 0
 520.034179688 356.166992188 509.701171875 347 497.034179688 339 c 0
 484.3671875 331 470.8671875 324.166992188 456.534179688 318.5 c 0
 442.201171875 312.833007812 425.201171875 307.833007812 405.534179688 303.5 c 0
 385.8671875 299.166992188 366.3671875 295.833984375 347.034179688 293.500976562 c 0
 327.701171875 291.16796875 306.034179688 289.000976562 282.034179688 287.000976562 c 1
 349.3671875 252.333984375 408.700195312 211.833984375 460.033203125 165.500976562 c 0
 511.366210938 119.16796875 545.033203125 79.66796875 561.033203125 47.0009765625 c 0
 563.033203125 41.0009765625 564.033203125 35.2509765625 564.033203125 29.7509765625 c 0
 564.033203125 24.2509765625 563.033203125 19.0009765625 561.033203125 14.0009765625 c 0
 557.033203125 4.0009765625 550.700195312 -3.9990234375 542.033203125 -9.9990234375 c 0
 534.700195312 -15.3759765625 526.918945312 -18.064453125 518.689453125 -18.064453125 c 0
 515.696289062 -18.064453125 512.643554688 -17.708984375 509.532226562 -16.998046875 c 0
 497.865234375 -14.3310546875 487.032226562 -6.3310546875 477.032226562 7.001953125 c 0
 466.365234375 21.001953125 451.198242188 38.1689453125 431.53125 58.501953125 c 0
 411.864257812 78.8349609375 388.197265625 101.501953125 360.530273438 126.501953125 c 0
 332.86328125 151.501953125 301.36328125 176.168945312 266.030273438 200.501953125 c 0
 230.697265625 224.834960938 196.364257812 244.334960938 163.03125 259.001953125 c 1
 165.03125 220.334960938 168.698242188 174.66796875 174.03125 122.000976562 c 0xca
 176.907226562 93.6025390625 183.0859375 31.578125 183.0859375 21.755859375 c 0xd2
176.036132812 498 m 0
 176.036132812 490.666992188 175.538085938 480.833984375 174.538085938 468.500976562 c 0
 173.538085938 456.16796875 172.705078125 445.16796875 172.038085938 435.500976562 c 0
 171.37109375 425.833984375 170.204101562 412.500976562 168.537109375 395.500976562 c 0
 166.870117188 378.500976562 165.703125 366.333984375 165.036132812 359.000976562 c 1xc6
 173.036132812 357.4765625 183.321289062 356.71484375 195.891601562 356.71484375 c 0
 205.3203125 356.71484375 216.03515625 357.143554688 228.036132812 358.000976562 c 0
 255.369140625 359.333984375 278.369140625 360.833984375 297.036132812 362.500976562 c 0
 315.703125 364.16796875 334.536132812 366.500976562 353.536132812 369.500976562 c 0
 372.536132812 372.500976562 388.036132812 376.000976562 400.036132812 380.000976562 c 0
 412.036132812 384.000976562 423.036132812 389.000976562 433.036132812 395.000976562 c 0
 443.036132812 401.000976562 450.203125 408.16796875 454.536132812 416.500976562 c 0
 458.869140625 424.833984375 461.036132812 434.333984375 461.036132812 445.000976562 c 0
 461.036132812 463.66796875 454.203125 481.66796875 440.536132812 499.000976562 c 0
 426.869140625 516.333984375 409.536132812 531.666992188 388.536132812 545 c 0
 367.536132812 558.333007812 343.703125 570.5 317.036132812 581.5 c 0
 290.369140625 592.5 264.869140625 601.333007812 240.536132812 608 c 0
 216.203125 614.666992188 193.036132812 620 171.036132812 624 c 1xe2
 173.036132812 575.333007812 174.703125 533.333007812 176.036132812 498 c 0
EndSplineSet
Validated: 1
EndChar

StartChar: S
Encoding: 83 83 51
Width: 640
GlyphClass: 2
Flags: HMW
HStem: -29 85<268.494 289.827 268.494 293.164> 645.001 79.001
VStem: 99.829 100.001 471.827 99.0029
LayerCount: 2
Fore
SplineSet
78.8310546875 66 m 0
 72.3916015625 79.3740234375 69.169921875 90.9111328125 69.169921875 100.60546875 c 0
 69.169921875 103.958984375 69.5556640625 107.091796875 70.326171875 110.00390625 c 0
 73.326171875 121.336914062 80.4931640625 130.00390625 91.826171875 136.00390625 c 0
 99.826171875 139.336914062 106.159179688 141.669921875 110.826171875 143.002929688 c 0
 115.493164062 144.3359375 120.66015625 144.668945312 126.327148438 144.001953125 c 0
 131.994140625 143.334960938 137.494140625 140.66796875 142.827148438 136.000976562 c 0
 148.16015625 131.333984375 154.16015625 124.666992188 160.827148438 116 c 0
 172.827148438 98 189.327148438 83.5 210.327148438 72.5 c 0
 231.327148438 61.5 255.16015625 56 281.827148438 56 c 0
 297.827148438 56 314.494140625 58.1669921875 331.827148438 62.5 c 0
 349.16015625 66.8330078125 366.16015625 73.5 382.827148438 82.5 c 0
 399.494140625 91.5 414.494140625 102 427.827148438 114 c 0
 441.16015625 126 451.827148438 140.166992188 459.827148438 156.5 c 0
 467.827148438 172.833007812 471.827148438 190 471.827148438 208 c 0
 471.827148438 218 471.16015625 227 469.827148438 235 c 0
 468.494140625 243 465.994140625 251.666992188 462.327148438 261 c 0
 458.66015625 270.333007812 453.66015625 278.833007812 447.327148438 286.5 c 0
 440.994140625 294.166992188 432.161132812 301.833984375 420.828125 309.500976562 c 0
 409.495117188 317.16796875 396.162109375 324.000976562 380.829101562 330.000976562 c 0
 365.49609375 336.000976562 346.829101562 341.500976562 324.829101562 346.500976562 c 0
 302.829101562 351.500976562 278.162109375 355.333984375 250.829101562 358.000976562 c 0
 226.829101562 360.66796875 204.99609375 367.000976562 185.329101562 377.000976562 c 0
 165.662109375 387.000976562 149.829101562 399.16796875 137.829101562 413.500976562 c 0
 125.829101562 427.833984375 116.49609375 442.833984375 109.829101562 458.500976562 c 0
 103.162109375 474.16796875 99.8291015625 490.000976562 99.8291015625 506.000976562 c 0
 99.8291015625 528.66796875 103.662109375 550.500976562 111.329101562 571.500976562 c 0
 118.99609375 592.500976562 130.829101562 612.333984375 146.829101562 631.000976562 c 0
 162.829101562 649.66796875 182.162109375 665.834960938 204.829101562 679.501953125 c 0
 227.49609375 693.168945312 254.663085938 704.001953125 286.330078125 712.001953125 c 0
 317.997070312 720.001953125 351.830078125 724.001953125 387.830078125 724.001953125 c 0
 405.830078125 724.001953125 430.497070312 722.501953125 461.830078125 719.501953125 c 0
 493.163085938 716.501953125 514.49609375 712.668945312 525.829101562 708.001953125 c 0
 538.49609375 703.334960938 547.663085938 696.001953125 553.330078125 686.001953125 c 0
 557.91796875 677.90625 560.211914062 669.373046875 560.211914062 660.403320312 c 0
 560.211914062 658.293945312 560.084960938 656.16015625 559.831054688 654.001953125 c 0
 559.1640625 646.001953125 556.497070312 639.668945312 551.830078125 635.001953125 c 0
 547.163085938 630.334960938 541.49609375 627.66796875 534.829101562 627.000976562 c 0
 528.162109375 626.333984375 522.162109375 626.166992188 516.829101562 626.5 c 0
 511.49609375 626.833007812 505.829101562 628 499.829101562 630 c 0
 498.49609375 630 496.49609375 630.666992188 493.829101562 632 c 0
 481.829101562 634.666992188 472.329101562 636.833984375 465.329101562 638.500976562 c 0
 458.329101562 640.16796875 447.162109375 641.66796875 431.829101562 643.000976562 c 0
 416.49609375 644.333984375 399.163085938 645.000976562 379.830078125 645.000976562 c 0
 349.163085938 645.000976562 320.330078125 640.500976562 293.330078125 631.500976562 c 0
 266.330078125 622.500976562 243.997070312 609.000976562 226.330078125 591.000976562 c 0
 208.663085938 573.000976562 199.830078125 553.000976562 199.830078125 531.000976562 c 0
 199.830078125 505.000976562 211.163085938 483.000976562 233.830078125 465.000976562 c 0
 256.497070312 447.000976562 288.497070312 437.333984375 329.830078125 436.000976562 c 0
 367.163085938 434.000976562 400.163085938 428.16796875 428.830078125 418.500976562 c 0
 457.497070312 408.833984375 480.497070312 397.166992188 497.830078125 383.5 c 0
 515.163085938 369.833007812 529.663085938 353.833007812 541.330078125 335.5 c 0
 552.997070312 317.166992188 560.830078125 299 564.830078125 281 c 0
 568.830078125 263 570.830078125 244.333007812 570.830078125 225 c 0
 570.830078125 194.333007812 565.663085938 165.5 555.330078125 138.5 c 0
 544.997070312 111.5 530.6640625 87.8330078125 512.331054688 67.5 c 0
 493.998046875 47.1669921875 472.498046875 29.6669921875 447.831054688 15 c 0
 423.1640625 0.3330078125 396.331054688 -10.6669921875 367.331054688 -18 c 0
 338.331054688 -25.3330078125 308.498046875 -29 277.831054688 -29 c 0
 231.1640625 -29 189.831054688 -19.8330078125 153.831054688 -1.5 c 0
 117.831054688 16.8330078125 92.8310546875 39.3330078125 78.8310546875 66 c 0
EndSplineSet
Validated: 1
EndChar

